<svg width="121" height="2" viewBox="0 0 121 2" fill="none" xmlns="http://www.w3.org/2000/svg">
<path d="M112.192 0.221851C112.254 0.229152 112.316 0.236924 112.379 0.243518C112.452 0.241163 112.525 0.233862 112.595 0.222793C112.563 0.215493 112.547 0.211725 112.517 0.204659C112.404 0.23716 112.3 0.211489 112.192 0.221851ZM109.693 0.0699468C109.818 0.042863 109.939 0.0666497 110.066 0.0395659C109.917 0.00423932 109.759 0.0376818 109.604 0.0317941C109.63 0.0383884 109.651 0.0452182 109.604 0.0503994C109.638 0.0581714 109.657 0.0621749 109.693 0.0699468ZM111.947 0.363158C112.009 0.370695 112.071 0.378466 112.132 0.385061C112.208 0.382706 112.278 0.375876 112.349 0.364571C112.316 0.35727 112.3 0.353502 112.27 0.345966C112.159 0.379173 112.056 0.353031 111.947 0.363158ZM107.389 0.0899652C107.136 0.102447 106.883 0.0793673 106.63 0.0920849C106.855 0.120346 107.313 0.124821 107.389 0.0899652ZM110.085 0.340785C110.064 0.345966 110.01 0.345024 109.955 0.344082C109.939 0.34785 109.923 0.350911 109.905 0.353973C109.99 0.354444 110.079 0.345259 110.165 0.333013C110.133 0.323828 110.101 0.320531 110.066 0.318882C110.047 0.324063 110.024 0.329009 110 0.33419C110.028 0.336545 110.059 0.338194 110.085 0.340785ZM112.296 0.165329C111.765 0.143426 111.232 0.143426 110.703 0.141542C111.226 0.172865 111.76 0.173101 112.296 0.165329ZM110.303 0.178988C110.281 0.18417 110.26 0.189115 110.234 0.194532C110.265 0.196416 110.292 0.198065 110.319 0.200655C110.298 0.205601 110.244 0.204895 110.192 0.203953C110.174 0.207956 110.158 0.210783 110.139 0.21408C110.227 0.214551 110.314 0.205366 110.402 0.192884C110.37 0.18417 110.335 0.180873 110.303 0.178988ZM113.43 0.416148C113.513 0.426039 113.591 0.432634 113.67 0.433811C113.678 0.431221 113.693 0.42863 113.712 0.42604C113.712 0.419445 113.716 0.413322 113.716 0.406728C113.64 0.404844 113.541 0.409318 113.453 0.410496C113.447 0.41238 113.442 0.414971 113.43 0.416148ZM100.955 0.159441C100.912 0.144839 100.982 0.143426 101.054 0.14272C100.908 0.113516 100.757 0.100092 100.597 0.111868C100.712 0.138245 100.829 0.158028 100.955 0.159441ZM100.379 0.121759C100.242 0.109277 99.8017 0.0734794 99.8119 0.132357C99.9464 0.147666 100.627 0.120582 100.379 0.121759ZM99.7184 0.0836065C99.4597 0.119169 99.2639 0.042863 98.9892 0.0963241C99.1792 0.123879 99.7009 0.134006 99.7184 0.0836065ZM104.514 0.106451C104.322 0.104802 104.129 0.107629 103.939 0.0942044C104.098 0.126234 104.491 0.134241 104.514 0.106451ZM104.596 0.35939C104.712 0.362923 104.823 0.364571 104.912 0.363158C104.906 0.353031 104.906 0.343375 104.908 0.333484C104.874 0.328067 104.842 0.321237 104.801 0.315114C104.738 0.341727 104.848 0.358212 104.596 0.35939ZM106.091 0.276961C105.949 0.276019 105.828 0.280258 105.783 0.296037C106.079 0.277197 106.306 0.305929 106.497 0.344082C106.578 0.32736 106.626 0.310875 106.633 0.293447C106.557 0.290621 106.461 0.286381 106.36 0.282849C106.345 0.271309 106.344 0.260004 106.322 0.247993C106.604 0.263301 106.869 0.270367 107.053 0.273428C107.004 0.283791 106.961 0.294624 107.061 0.312759C107.269 0.311817 107.474 0.318882 107.666 0.323828C107.675 0.325712 107.683 0.32736 107.688 0.329715C107.699 0.327831 107.709 0.326418 107.722 0.325005C107.941 0.329951 108.147 0.330422 108.327 0.309933C108.304 0.31794 108.238 0.324534 108.283 0.336545C108.711 0.37305 108.615 0.284968 108.935 0.291798C108.014 0.265656 106.411 0.118698 105.442 0.170746C105.688 0.204659 105.965 0.226797 106.234 0.242341C106.172 0.259298 106.025 0.250819 106.091 0.276961ZM105.963 0.318647C105.778 0.323592 105.331 0.329009 105.423 0.27178C105.287 0.315585 105.086 0.281436 104.843 0.295566C105.134 0.342669 105.789 0.351854 105.963 0.318647ZM106.617 0.15685C106.551 0.13377 106.604 0.114929 106.489 0.0897298C106.471 0.128118 106.192 0.101034 106.351 0.146959C106.445 0.104802 106.525 0.178517 106.617 0.15685ZM108.418 0.0911428C108.21 0.053932 108 0.0767765 107.791 0.0845485C107.998 0.10386 108.209 0.105744 108.418 0.0911428ZM100.342 1.82333C100.372 1.77222 100.407 1.78517 100.648 1.77081C100.528 1.74419 100.372 1.74679 100.168 1.77858C100.185 1.79036 100.253 1.80119 100.179 1.81414C100.005 1.81226 99.8543 1.79648 99.6687 1.82592C99.7228 1.84146 99.7973 1.90528 99.8017 1.85865C99.7929 1.81391 100.126 1.87702 100.342 1.82333ZM96.1031 1.80637C96.2726 1.83039 96.7329 1.83981 96.7432 1.79624C96.5167 1.82709 96.3355 1.76139 96.1031 1.80637ZM93.3281 1.9903C93.3193 1.99242 93.3252 1.99478 93.3252 1.99666C93.4158 1.99972 93.5107 2.0009 93.6043 1.99925C93.6043 1.99666 93.5999 1.99501 93.597 1.99289C93.4947 1.99313 93.3865 1.9903 93.3281 1.9903ZM96.8308 1.83887C96.9507 1.85182 97.5571 1.82757 97.3335 1.82874C97.2093 1.81838 96.8133 1.78776 96.8308 1.83887ZM93.1746 1.96722C93.5254 1.94509 93.8717 1.98206 94.2166 1.96134C93.8615 1.92436 93.4844 1.91471 93.1089 1.91306C93.2024 1.93096 93.0022 1.94815 93.1746 1.96722ZM91.5541 1.8165C91.7221 1.84382 92.2043 1.85253 92.1313 1.81084C91.9398 1.80967 91.7323 1.77646 91.5541 1.8165ZM75.785 1.93284C75.9399 1.90434 76.4397 1.94603 76.3769 1.88385C76.2249 1.92177 75.7237 1.87467 75.785 1.93284ZM91.9559 1.86219C91.7879 1.87137 91.6125 1.86172 91.4474 1.87961C91.7689 1.89327 91.6973 1.94956 91.972 1.92672C91.7908 1.90364 92.292 1.88644 91.9559 1.86219ZM112.933 0.390006C112.929 0.391419 112.924 0.393539 112.921 0.395188C113.199 0.397072 113.49 0.438757 113.744 0.365042C113.741 0.364571 113.735 0.364571 113.731 0.363629C113.773 0.35939 113.801 0.353031 113.801 0.34573C113.784 0.346201 113.765 0.346908 113.748 0.347614C113.781 0.325476 113.848 0.306871 113.976 0.296744C113.963 0.293447 113.953 0.290621 113.938 0.287323C113.947 0.285675 113.953 0.284026 113.968 0.282378C113.968 0.276019 113.971 0.26966 113.969 0.263301C113.933 0.262359 113.886 0.263301 113.842 0.264243C113.794 0.25129 113.762 0.238808 113.763 0.227033C113.607 0.255059 113.702 0.295095 113.477 0.273428C113.484 0.306635 113.537 0.285675 113.652 0.314643C113.607 0.321237 113.564 0.317705 113.52 0.319824C113.526 0.329244 113.541 0.336545 113.556 0.342904C113.579 0.34573 113.594 0.347614 113.601 0.350441C113.506 0.342433 113.415 0.337487 113.331 0.338194C113.347 0.333013 113.363 0.328303 113.377 0.322179C112.971 0.260946 112.62 0.319353 112.256 0.338194C112.484 0.373049 112.724 0.392126 112.933 0.390006ZM113.873 0.381763C114.016 0.397072 114.147 0.379879 114.294 0.402253C114.296 0.403195 114.296 0.404608 114.296 0.404608C114.301 0.404137 114.302 0.404608 114.304 0.404137C114.324 0.407199 114.343 0.410731 114.362 0.415677C114.393 0.410731 114.419 0.406492 114.445 0.402488C114.578 0.41238 114.719 0.444645 114.843 0.41921C114.83 0.394246 115.036 0.379879 114.821 0.345259C114.817 0.345024 114.811 0.345024 114.808 0.344317C114.809 0.343611 114.811 0.342904 114.815 0.342433C114.805 0.341727 114.795 0.34102 114.785 0.340314C114.787 0.341491 114.787 0.342433 114.789 0.343375C114.782 0.342433 114.771 0.341962 114.761 0.34102C114.766 0.340785 114.771 0.340078 114.777 0.339843C114.752 0.338429 114.729 0.337487 114.704 0.337252C114.692 0.336545 114.682 0.335603 114.671 0.335132C114.624 0.321473 114.603 0.308755 114.586 0.296037C114.19 0.292269 113.705 0.280258 113.873 0.381763ZM113.716 0.185112C113.721 0.186054 113.722 0.186525 113.725 0.186996C113.731 0.185347 113.738 0.18417 113.744 0.183228C113.747 0.191706 113.754 0.20042 113.767 0.209134C113.785 0.206543 113.8 0.203953 113.817 0.201833C113.842 0.203953 113.862 0.206072 113.862 0.20984C113.852 0.210547 113.842 0.210547 113.832 0.210782C113.849 0.216435 113.868 0.221851 113.89 0.225384C113.902 0.223265 113.933 0.221616 113.984 0.220674C114.028 0.216435 114.055 0.210312 114.055 0.202775C114.038 0.203482 114.022 0.203953 114.003 0.204659C114.036 0.182757 114.102 0.164387 114.234 0.15426C114.121 0.130002 114.013 0.106451 114.017 0.0859616C113.859 0.113516 113.957 0.152847 113.728 0.131651C113.732 0.149549 113.753 0.151905 113.788 0.154495C113.753 0.162974 113.743 0.172159 113.743 0.181344C113.735 0.182521 113.727 0.183228 113.716 0.185112ZM114.13 0C113.957 0.0190763 113.987 0.0430986 114.022 0.0678272C114.169 0.0480443 114.292 0.0275548 114.13 0ZM113.453 0.225384C113.503 0.222322 113.551 0.219025 113.594 0.213373C113.468 0.188409 113.066 0.190293 113.246 0.226091C113.319 0.207014 113.385 0.218319 113.453 0.225384ZM100.018 1.8596C100.923 1.91541 102.043 1.86101 103.085 1.84546C102.118 1.80802 100.965 1.86619 100.018 1.8596ZM100.604 1.88974C100.382 1.89445 100.185 1.89422 99.9814 1.90199C100.13 1.92059 100.553 1.93708 100.604 1.88974ZM114.985 0.315349C114.999 0.315114 115.011 0.315114 115.026 0.314643C114.999 0.319824 114.958 0.323121 114.9 0.324063C114.999 0.326654 115.053 0.326419 115.096 0.327125C115.131 0.322886 115.167 0.319353 115.207 0.316291C115.185 0.315349 115.167 0.312759 115.148 0.310404C115.227 0.305929 115.271 0.296037 115.239 0.270367C115.696 0.260711 116.404 0.280494 116.712 0.242105C116.069 0.253174 115.194 0.214786 114.713 0.256707C114.856 0.260004 115.001 0.262359 115.143 0.269425C115.074 0.284733 114.938 0.299099 114.985 0.315349ZM102.371 1.77787C101.82 1.7986 101.054 1.75903 100.626 1.83039C101.153 1.80543 102.16 1.85159 102.371 1.77787ZM94.3598 0.21408C94.1318 0.196181 93.9111 0.173101 93.651 0.216435C93.8673 0.251761 94.1274 0.208898 94.3598 0.21408ZM93.6057 0.313936C93.3573 0.289208 94.0646 0.252939 93.6087 0.231036C93.3705 0.247287 93.1323 0.23975 92.8911 0.268247C93.331 0.276254 93.2112 0.351147 93.6057 0.313936ZM93.8688 0.160383C93.6028 0.163209 93.331 0.125998 93.0694 0.183228C93.2872 0.213373 93.9564 0.211725 93.8688 0.160383ZM84.8481 0.334661C84.9475 0.256472 85.2938 0.329716 85.6036 0.293918C85.2821 0.268247 84.5675 0.241399 84.5251 0.286381C84.7999 0.262595 84.626 0.322179 84.8481 0.334661ZM80.7579 0.251761C80.6994 0.206308 80.2713 0.293211 80.413 0.236218C80.546 0.211489 80.6424 0.247993 80.7856 0.206072C80.6585 0.181579 80.5957 0.169097 80.4715 0.144368C80.2567 0.191 80.2245 0.23292 80.3312 0.27178C80.4729 0.26495 80.6059 0.27437 80.7579 0.251761ZM93.7723 0.355151C94.0909 0.340313 94.4007 0.434518 94.7149 0.383648C94.4533 0.283555 93.7884 0.290621 93.7723 0.355151ZM97.4607 0.230094C97.4621 0.226562 97.4665 0.222794 97.468 0.219025C98.9834 0.189351 100.424 0.161796 101.931 0.222558C101.967 0.233627 102.013 0.243754 102.075 0.247993C102.09 0.244696 102.108 0.241163 102.122 0.23716C102.074 0.269425 102.52 0.276019 102.419 0.236218C102.486 0.249171 102.543 0.263301 102.543 0.283084C102.508 0.282849 102.476 0.285675 102.441 0.289914C102.455 0.292976 102.467 0.295566 102.483 0.298864C102.546 0.293918 102.613 0.290385 102.682 0.287323C102.689 0.287088 102.697 0.286617 102.702 0.286381C102.724 0.285675 102.745 0.284733 102.765 0.284026C102.657 0.267776 102.599 0.247051 102.552 0.225855C102.919 0.227033 103.278 0.236453 103.633 0.247993C103.633 0.256472 103.627 0.265657 103.597 0.275077C103.676 0.275077 103.756 0.275312 103.835 0.275548C103.829 0.268483 103.813 0.260946 103.797 0.253174C103.803 0.253174 103.809 0.253175 103.814 0.25341C103.93 0.264479 104.073 0.268483 104.171 0.264243C104.225 0.265892 104.282 0.265892 104.338 0.266834C104.338 0.268718 104.341 0.270367 104.341 0.272015C104.377 0.271309 104.412 0.270131 104.449 0.268718C104.547 0.270367 104.644 0.273428 104.744 0.273664C104.764 0.280729 104.796 0.286617 104.829 0.292505C104.802 0.279316 104.864 0.26707 104.927 0.255059C104.758 0.247051 104.583 0.23975 104.409 0.232685C104.289 0.211253 104.079 0.189351 103.965 0.19359C104.003 0.199713 104.026 0.205601 104.045 0.211489C103.949 0.199478 103.85 0.195239 103.749 0.195945C103.76 0.187702 103.788 0.179931 103.839 0.173101C103.74 0.156379 103.69 0.148372 103.592 0.131651C103.445 0.144839 103.512 0.151669 103.592 0.159441C103.534 0.161796 103.47 0.162032 103.407 0.162267C103.401 0.159441 103.401 0.156379 103.385 0.153318C103.38 0.157086 103.366 0.160383 103.353 0.162974C103.285 0.16368 103.233 0.165564 103.209 0.171688C103.154 0.172394 103.09 0.172159 103.019 0.170274C103.006 0.172394 102.993 0.174749 102.983 0.178046C103.057 0.177575 103.136 0.179224 103.212 0.182286C103.242 0.187702 103.281 0.192412 103.321 0.196887C103.036 0.189351 102.746 0.183228 102.451 0.178046C102.422 0.162738 102.388 0.148607 102.339 0.139187C102.334 0.139187 102.327 0.138952 102.322 0.138481C102.324 0.138245 102.327 0.138245 102.328 0.13801C102.318 0.136361 102.306 0.134948 102.293 0.13377C102.29 0.149314 102.343 0.165564 102.359 0.176633C102.223 0.174278 102.089 0.172159 101.953 0.17051C101.944 0.168155 101.934 0.166035 101.926 0.163916C101.918 0.165564 101.921 0.167919 101.915 0.170274C100.93 0.158028 99.9098 0.158028 98.903 0.166506C98.4178 0.17051 97.9283 0.166506 97.4548 0.177104C97.4344 0.170745 97.4037 0.164387 97.3555 0.158028C97.3087 0.162738 97.2853 0.171452 97.2751 0.181344C96.9434 0.191706 96.6043 0.210547 96.2726 0.247051C96.6482 0.240457 96.9872 0.230801 97.3291 0.222322C97.3628 0.23033 97.4095 0.234569 97.4607 0.230094ZM103.687 0.171217C103.722 0.177575 103.73 0.185112 103.661 0.196181C103.655 0.196181 103.648 0.196181 103.639 0.196181C103.582 0.189115 103.528 0.191706 103.471 0.185347C103.465 0.184405 103.468 0.183934 103.464 0.182757C103.544 0.181344 103.648 0.181579 103.687 0.171217ZM99.1733 0.4218C98.9424 0.418974 98.7189 0.347614 98.4821 0.367868C98.6706 0.430985 99.185 0.48845 99.1733 0.4218ZM102.767 0.32477C102.603 0.301925 102.434 0.301454 102.271 0.307813C102.039 0.277903 101.814 0.339136 101.71 0.240692C101.291 0.316291 100.528 0.257178 100.287 0.300748C100.86 0.332542 101.424 0.32736 101.979 0.326418C101.869 0.335132 101.77 0.343375 101.69 0.345024C102.055 0.353031 102.422 0.374698 102.767 0.32477ZM100.199 0.380115C100.304 0.415913 100.436 0.428866 100.613 0.392833C100.664 0.349263 100.404 0.347143 100.199 0.380115ZM95.2833 0.335132C95.7699 0.299099 96.2288 0.336074 96.6628 0.305693C96.8469 0.283791 97.012 0.333484 97.1903 0.329715C97.0442 0.255765 97.7427 0.336781 97.5951 0.263301C97.3291 0.305693 96.7446 0.225855 96.6672 0.303574C96.2507 0.268247 95.7129 0.261417 95.1956 0.267541C95.3257 0.288737 95.0422 0.315114 95.2833 0.335132ZM103.242 0.256001C103.278 0.264479 103.312 0.270131 103.347 0.275077C103.407 0.274606 103.468 0.275077 103.529 0.275077C103.477 0.254823 103.357 0.226091 103.242 0.256001ZM100.347 0.192413C100.505 0.211725 100.668 0.237866 100.833 0.222322C100.689 0.205366 100.535 0.192648 100.347 0.192413ZM24.0108 1.75856C24.3542 1.82121 24.7298 1.75574 25.0819 1.77434C24.7298 1.74208 24.3688 1.7668 24.0108 1.75856ZM26.4263 1.77528C26.5593 1.8099 27.0401 1.7953 26.9685 1.76468C26.7814 1.78635 26.6178 1.72724 26.4263 1.77528ZM37.1904 0.250819C37.2269 0.236453 37.2064 0.225149 37.1684 0.214786C37.0954 0.215728 37.0252 0.217141 36.9522 0.218083C37.0618 0.233863 37.0895 0.25341 37.1904 0.250819ZM34.2999 0.196181C35.1065 0.157557 35.9468 0.139894 36.806 0.134241C36.863 0.121053 36.901 0.102683 36.958 0.0890232C36.9726 0.0927914 36.9697 0.095853 36.9741 0.0996212C36.9829 0.0899652 37.0472 0.0819579 37.1378 0.0748925C37.0808 0.0715954 37.0223 0.0666497 36.9697 0.0499284C36.5401 0.0588778 36.0418 0.0932624 35.6311 0.0958531C35.4368 0.115165 35.6297 0.13377 35.3316 0.152847C34.7397 0.178517 34.332 0.139187 33.6642 0.19359C33.6905 0.197123 33.7197 0.200185 33.749 0.202775C33.9331 0.201127 34.1187 0.199242 34.2999 0.196181ZM30.7971 1.7847C31.8478 1.79718 32.8897 1.84499 33.9565 1.7986C33.2039 1.79483 32.2482 1.76586 31.4766 1.7588C31.2677 1.75691 30.8848 1.74467 30.7971 1.7847ZM65.2066 1.75738C65.2578 1.75032 65.3074 1.74584 65.3557 1.74184C65.2592 1.73784 65.1847 1.73313 65.1686 1.72535C65.0795 1.73642 65.0473 1.74702 65.2066 1.75738ZM71.1147 1.77787C71.2462 1.74255 70.5243 1.75856 70.327 1.71617C70.0099 1.77057 70.8195 1.77151 71.1147 1.77787ZM67.9977 1.79012C67.8443 1.7515 67.0566 1.74679 66.3552 1.74584C66.928 1.75997 67.5053 1.7734 67.9977 1.79012ZM65.5909 0.200184C64.9494 0.162974 63.9426 0.172865 63.5071 0.204895C64.2027 0.199713 64.891 0.224207 65.5909 0.200184ZM47.1711 0.189115C47.1828 0.178282 47.1828 0.167448 47.1521 0.157792C46.9695 0.159206 46.7386 0.166271 46.5062 0.171688C46.5077 0.172865 46.515 0.172865 46.5164 0.173807C46.4755 0.178988 46.3995 0.178046 46.3192 0.175691C46.2242 0.17734 46.1321 0.178046 46.0459 0.17734C46.0313 0.180873 46.0255 0.186054 46.0415 0.195003C46.3879 0.202069 46.7751 0.198536 47.1711 0.189115ZM48.7771 0.289914C49.0957 0.267541 49.3923 0.341727 49.7182 0.284733C49.4581 0.244696 48.8326 0.249642 48.7771 0.289914ZM63.9017 0.248935C64.4146 0.240221 64.926 0.266599 65.4434 0.257414C64.9787 0.227504 64.1589 0.203953 63.9017 0.248935ZM36.9887 0.107393C36.9902 0.115871 36.9887 0.123879 37.0004 0.132828C37.053 0.132122 37.1056 0.131651 37.1582 0.131651C37.0998 0.114458 37.0209 0.0979726 37.3628 0.0972661C37.3336 0.0906718 37.3058 0.0873746 37.2751 0.0845485C37.1889 0.0923203 37.0983 0.101034 37.0033 0.112103C36.9931 0.11069 36.9931 0.109042 36.9887 0.107393ZM46.3104 0.147666C46.3119 0.150256 46.3265 0.152611 46.3586 0.153789C46.3572 0.154966 46.3835 0.155908 46.4814 0.157086C46.6436 0.156144 46.7269 0.146488 46.7342 0.128825C47.0177 0.115165 47.3085 0.10598 47.6417 0.123172C47.6139 0.141542 47.5803 0.159676 47.5511 0.177575C48.1794 0.156144 48.7903 0.11964 49.2286 0.0810158C48.4498 0.0956175 47.4473 0.0864326 46.6918 0.11281C46.534 0.0946754 46.4127 0.103389 46.233 0.11752C46.2724 0.122937 46.2885 0.127411 46.2958 0.131651C46.2622 0.134241 46.2242 0.13589 46.1891 0.138245C46.23 0.14272 46.2695 0.145075 46.3104 0.147666ZM39.3794 0.0388594C39.4349 0.0473378 39.4846 0.0522834 39.5314 0.0562872C39.5475 0.052048 39.5577 0.0463958 39.5518 0.0379174C39.5314 0.0383884 39.5095 0.0379174 39.4875 0.0379174C39.4934 0.0416856 39.5109 0.0452181 39.5095 0.0489863C39.4671 0.0435696 39.4349 0.0400369 39.4043 0.0369753C39.3502 0.0362688 39.2917 0.0353266 39.2289 0.0343846C39.1602 0.0426275 39.1018 0.0598198 38.8314 0.0454537C38.8343 0.0452182 38.8343 0.0447471 38.8387 0.0442761C38.7744 0.0447471 38.7101 0.0452181 38.6473 0.0452181C38.6268 0.0485152 38.6122 0.0527545 38.6049 0.0579357C38.7642 0.0650011 38.9293 0.0624105 39.0871 0.0821934C39.1967 0.0751281 39.2976 0.0624105 39.3794 0.0388594ZM13.0042 1.84287C13.2088 1.87749 13.4631 1.8928 13.7509 1.89963C13.653 1.88903 13.5814 1.8749 13.5376 1.85842C13.5814 1.85182 13.6764 1.85159 13.7714 1.84994C13.8079 1.85277 13.8649 1.85182 13.9482 1.8417C13.9088 1.83487 13.8766 1.83063 13.8488 1.82851C13.5917 1.80307 13.2848 1.84429 13.0042 1.84287ZM13.9643 1.82121C14.5167 1.8928 15.598 1.8059 15.9488 1.78941C15.3087 1.76845 14.6409 1.79059 13.9643 1.82121ZM12.4825 1.88291C12.142 1.86431 11.4508 1.86501 11.5312 1.91565C11.9009 1.89869 12.2838 1.92083 12.6491 1.89751C12.5848 1.8848 12.5249 1.88173 12.4825 1.88291ZM16.393 1.81226C16.3594 1.82945 15.9882 1.82874 15.921 1.83039C16.2732 1.87608 16.58 1.84052 16.7364 1.78447C16.6882 1.8278 17.6117 1.76822 17.6322 1.73336C17.6366 1.73242 17.6366 1.73101 17.6336 1.73006C17.147 1.76256 16.6136 1.74514 16.1183 1.77222C16.2556 1.77858 16.3492 1.79224 16.393 1.81226ZM2.89194 1.10572C2.81595 1.0963 2.10283 1.08264 2.03854 1.14034C2.90948 1.1752 3.6299 1.14906 4.49792 1.1314C3.99815 1.10667 3.47646 1.07982 2.95331 1.10337C3.0819 1.09701 3.3391 1.08241 2.89194 1.10572ZM9.70603 1.35537C9.77617 1.36125 9.70603 1.34736 9.70603 1.35537V1.35537ZM21.965 0.374934C20.9742 0.353738 20.6469 0.426039 19.9264 0.47903C20.6249 0.436167 21.8071 0.466783 21.965 0.374934ZM27.911 0.245403C27.4931 0.191706 26.3664 0.234334 25.6402 0.221616C25.7848 0.283084 27.2593 0.231978 27.911 0.245403ZM14.2039 0.140129C14.0914 0.105744 14.4743 0.102683 14.3954 0.084313C14.1923 0.100563 13.7451 0.0836065 13.5069 0.103389C13.5361 0.0871391 13.4075 0.0913783 13.3564 0.13589C13.6589 0.0916138 13.8912 0.156144 14.2039 0.140129ZM25.0133 0.293447C25.0688 0.295802 25.1506 0.295095 25.2091 0.291327C25.2149 0.291563 25.2222 0.291563 25.2281 0.291563C25.1828 0.300041 25.1302 0.306871 25.0732 0.312523C25.1988 0.312994 25.326 0.313701 25.4502 0.313465C25.4473 0.306635 25.4414 0.299806 25.437 0.292976C25.7162 0.294624 25.9938 0.295566 26.2729 0.295802C26.2612 0.299335 26.2554 0.302867 26.2408 0.306871C27.1439 0.296037 28.0323 0.276961 28.9632 0.285439C29.1312 0.275548 29.3051 0.267776 29.479 0.260711C29.3548 0.260946 29.2335 0.261653 29.1122 0.261888C29.1634 0.250584 29.2145 0.237866 29.2379 0.234569C29.026 0.207014 28.7791 0.220674 28.5409 0.224913C28.5204 0.211725 28.554 0.201833 28.6329 0.195239C28.5672 0.186996 28.5438 0.185818 28.5379 0.18676C28.3611 0.172865 28.1872 0.174749 28.0104 0.195474C28.4342 0.208192 28.1449 0.238808 28.4488 0.250348C28.5803 0.252468 28.7075 0.251761 28.8361 0.248229C28.9851 0.246109 28.9953 0.253881 28.9836 0.262359C28.8039 0.26283 28.6256 0.263537 28.4488 0.264243C27.4288 0.261417 26.4059 0.257414 25.3961 0.270131C25.2997 0.270131 25.2018 0.270131 25.1053 0.26966C25.098 0.271309 25.0936 0.272957 25.0878 0.274606C24.8949 0.277668 24.702 0.2812 24.5091 0.285675C24.6815 0.287323 24.8525 0.288972 25.025 0.290385C25.0206 0.291327 25.0162 0.292505 25.0133 0.293447ZM31.7645 0.129531C31.7879 0.0779543 31.313 0.120346 31.0821 0.0984436C31.0061 0.11069 31.5614 0.155908 31.7645 0.129531ZM40.1378 0.185347C40.6844 0.247993 40.7004 0.146959 41.0219 0.132357C40.9562 0.113752 40.8407 0.120111 40.8086 0.127411C40.5602 0.13118 40.1875 0.148608 40.17 0.15685C40.1554 0.162974 40.3234 0.164387 40.341 0.166977C40.303 0.178988 40.2372 0.184876 40.1378 0.185347ZM33.2536 0.262359C33.369 0.21408 32.7568 0.240457 32.5624 0.249171C32.2497 0.24658 33.0592 0.273899 33.2536 0.262359ZM6.73664 1.1208C6.8784 1.10667 6.98653 1.12692 7.11074 1.12103C7.13266 1.12127 7.16482 1.11868 7.21304 1.1102C7.06106 1.08877 6.89008 1.07511 6.69427 1.06922C6.85209 1.08877 6.71472 1.09795 6.73664 1.1208ZM0 0.712421C0.600601 0.800502 1.78572 0.754107 2.13351 0.890938C2.0093 0.883638 1.88509 0.877514 1.75796 0.872333C2.11452 0.864797 1.75942 0.84784 1.60014 0.860322C1.39117 0.876572 1.05068 0.848547 0.888481 0.882696C1.25089 0.884109 1.59138 0.903185 1.94939 0.908837C2.2928 0.914254 2.53099 0.883402 2.79111 0.912134C3.25873 0.962769 3.74535 0.913312 4.19397 0.941573C5.51499 1.02589 6.96899 0.907895 8.31048 0.980668C8.11466 0.997389 8.10151 1.01764 8.27102 1.04072C8.45368 1.02801 8.32948 1.0134 8.38062 0.992444C8.57936 1.01364 8.7591 0.992444 8.90231 1.03319C8.58228 1.00916 8.24326 1.09042 7.96268 1.03436C7.894 1.0996 7.45707 1.05556 7.22472 1.09042C7.97876 1.15518 8.78687 1.20535 9.65781 1.2004C8.94614 1.25033 8.08982 1.23078 7.34601 1.26517C7.5769 1.32381 7.9583 1.23431 8.19065 1.29296C7.43954 1.34477 6.24126 1.2541 5.52814 1.21382C5.73418 1.23832 6.44584 1.26587 6.51598 1.2946C5.98699 1.32734 6.23688 1.27176 5.90078 1.28471C5.33233 1.23149 4.65574 1.21641 4.03761 1.18486C4.32694 1.20982 4.63382 1.23102 4.9027 1.2621C4.73027 1.25315 4.55637 1.2468 4.37663 1.24256C4.56367 1.25786 4.74927 1.27341 4.93485 1.28942C4.15451 1.29814 3.46624 1.20699 2.68298 1.2256C2.94163 1.27317 3.33033 1.27765 3.66205 1.30497C3.78918 1.31509 3.89293 1.32993 3.96454 1.34995C4.1735 1.40789 4.38978 1.39752 4.81356 1.40906C6.07175 1.44368 7.33432 1.47548 8.6042 1.4955C8.53406 1.5035 7.16042 1.50233 7.84578 1.57157C8.23595 1.48796 8.76787 1.5572 9.27933 1.54001C8.68019 1.44604 11.255 1.5247 11.4201 1.51198C11.201 1.52117 11.6408 1.45075 11.6978 1.44557C11.7694 1.46347 11.8366 1.48207 11.898 1.50091C12.1961 1.43544 12.3437 1.37703 12.918 1.37727C12.3875 1.40317 13.2965 1.47359 13.3915 1.49997C12.9764 1.50656 12.823 1.41825 12.4022 1.44957C12.427 1.5028 12.9151 1.50868 13.089 1.54519C13.4368 1.61773 13.3841 1.51693 13.748 1.55861C13.5186 1.57722 13.957 1.57321 13.9482 1.58946C13.9307 1.61207 13.6004 1.56968 13.4105 1.593C13.5639 1.60383 13.691 1.61937 13.7919 1.64057C14.052 1.70015 14.1177 1.64128 14.5371 1.66954C15.1187 1.70863 15.9941 1.64999 16.6677 1.6474C17.4261 1.64481 18.1831 1.65329 18.9386 1.64387C19.3141 1.63892 19.6882 1.6295 20.0492 1.61231C20.2187 1.58358 20.0127 1.56144 20.3283 1.54448C20.5665 1.57463 20.0726 1.58593 20.2026 1.61513C20.7141 1.65611 21.2723 1.67307 21.8349 1.68037C22.285 1.68579 22.7395 1.68626 23.191 1.69215C23.72 1.69898 23.8471 1.72677 24.021 1.65588C24.0897 1.67472 24.1496 1.69403 24.2066 1.71358C24.6523 1.66436 23.8267 1.62361 23.9012 1.61066C23.9757 1.60713 24.0546 1.60501 24.1336 1.60548C23.9304 1.56238 24.0152 1.53647 23.6586 1.52022C24.2052 1.50091 24.1496 1.62526 24.6333 1.64905C24.5179 1.63562 24.6435 1.58169 24.8131 1.61042C24.9446 1.64198 24.7035 1.66318 24.7502 1.69427C25.0644 1.68155 25.2529 1.67966 25.4706 1.6368C25.4853 1.63939 25.5028 1.64151 25.5218 1.64387C25.4604 1.64976 25.4078 1.65564 25.3757 1.66082C25.4897 1.66765 25.627 1.66883 25.7673 1.6686C25.9383 1.67943 26.1297 1.68131 26.2788 1.66671C26.308 1.66695 26.3314 1.66765 26.3577 1.66789C26.422 1.7263 27.4989 1.73642 28.6417 1.73077C28.5613 1.7953 28.5336 1.86124 29.0319 1.85017C28.7615 1.82427 28.7206 1.77599 28.8083 1.72983C28.8945 1.72959 28.9822 1.72842 29.0669 1.72794C29.4586 1.77104 29.8648 1.75291 30.2667 1.75479C30.0869 1.73525 29.9043 1.7263 29.7216 1.72159C30.4596 1.71311 31.0879 1.70204 31.31 1.69851C31.9443 1.68838 32.5829 1.67778 33.2215 1.66765C33.1864 1.67024 33.1484 1.67213 33.1104 1.67354C33.3486 1.68814 33.5955 1.67142 33.841 1.65753C34.0456 1.6547 34.2502 1.65211 34.4533 1.64905C34.4782 1.65046 34.5045 1.65093 34.5279 1.65329C34.3583 1.68367 33.8659 1.63939 33.9141 1.68979C34.6287 1.68414 35.5259 1.65329 35.8518 1.75903C35.7583 1.76916 35.6721 1.75644 35.5771 1.77316C35.6823 1.79106 35.732 1.80001 35.8357 1.81767C36.09 1.82286 35.9234 1.79577 36.1821 1.77575C36.1061 1.75126 35.9482 1.72559 35.9994 1.70345C36.2493 1.74113 36.1821 1.77269 36.3764 1.80967C36.7037 1.77363 36.0432 1.71735 36.2054 1.67825C36.3355 1.69827 36.4772 1.65823 36.6073 1.68649C36.2902 1.72323 36.8323 1.71688 36.9259 1.76209C37.0413 1.74679 37.1538 1.73854 37.2678 1.73948C36.9361 1.69427 37.3643 1.66506 37.5499 1.63021C37.5703 1.63115 37.5908 1.6328 37.6083 1.63421C37.7924 1.65988 37.7661 1.6905 37.902 1.69097C37.9576 1.70934 38.016 1.72912 38.1037 1.74773C38.0818 1.70698 38.2104 1.68296 38.4047 1.66789C38.6341 1.69238 38.8241 1.72677 38.811 1.76209C39.1149 1.74867 38.6531 1.71947 38.9585 1.70604C39.1412 1.75055 39.4729 1.69756 39.6249 1.73948C39.5723 1.7011 40.075 1.70863 40.2343 1.72253C40.2664 1.74467 40.281 1.76657 40.3351 1.78894C40.243 1.78941 40.151 1.78894 40.0604 1.79106C40.1422 1.80378 40.2708 1.8092 40.4023 1.81061C40.4067 1.81226 40.4082 1.81391 40.414 1.81485C40.433 1.81391 40.4389 1.81226 40.452 1.81084C40.6624 1.81108 40.8626 1.80119 40.8685 1.788C40.7735 1.78871 40.6785 1.78847 40.5835 1.788C40.6288 1.76304 40.4929 1.7343 40.7735 1.71429C40.9474 1.71381 41.1739 1.70793 41.4223 1.70369C41.4705 1.71523 41.5085 1.72229 41.5334 1.72912C41.4442 1.73336 41.3639 1.73831 41.3054 1.74443C41.3916 1.74208 41.4793 1.7416 41.5655 1.74184C41.5772 1.75126 41.5714 1.76233 41.5436 1.78211C41.6561 1.77434 41.7672 1.78188 41.8841 1.7595C41.8066 1.75691 41.7555 1.75055 41.719 1.74255C42.1617 1.74891 42.6016 1.77505 43.0502 1.75997C42.6586 1.71876 42.0609 1.71122 41.6459 1.72465C41.6444 1.72323 41.6386 1.72206 41.6342 1.72111C41.6532 1.72064 41.6707 1.72111 41.6927 1.71947C41.6927 1.71311 41.6854 1.70628 41.6781 1.69992C42.0039 1.69568 42.3488 1.69592 42.6586 1.71287C42.7974 1.69592 42.8661 1.68744 43.0035 1.67048C43.2256 1.66459 43.4462 1.66012 43.6669 1.65494C44.1491 1.65564 44.5466 1.65658 44.6664 1.65776C45.2787 1.66365 45.8895 1.67802 46.4726 1.71052C46.496 1.67119 46.9358 1.65046 46.9446 1.6514C47.2734 1.64811 48.3811 1.67472 48.4293 1.68579C48.5725 1.63421 49.0168 1.65753 49.2944 1.67284C49.4595 1.68108 49.6042 1.69497 49.7328 1.71429C50.0733 1.69992 47.1989 0.181815 47.5511 0.177575C48.1268 0.17051 51.9321 1.68155 52.5034 1.66671C53.1011 1.65093 53.3744 1.62173 53.956 1.64316C54.3125 1.65658 56.7193 1.74419 56.826 1.7164C57.092 1.6474 57.6516 1.72394 58.1193 1.72842C58.3808 1.73148 58.6336 1.72465 58.8762 1.70769C59.0194 1.69309 58.7023 1.67119 58.8119 1.65564C58.8601 1.65588 58.9391 1.6547 59.034 1.65164C59.2021 1.66177 59.2898 1.6686 59.3044 1.6726C59.8217 1.67142 60.3521 1.66506 60.8899 1.65494C60.6093 1.65093 60.3258 1.6474 60.0496 1.6441C59.7325 1.65093 59.4315 1.6507 59.1334 1.64834C59.3102 1.64293 59.5367 1.63374 59.791 1.62361C59.9532 1.62879 60.1329 1.6335 60.3419 1.6361C60.472 1.63798 60.5991 1.64128 60.7306 1.64245C60.8402 1.64787 60.9527 1.65235 61.0653 1.65753C61.0214 1.65682 60.9776 1.65658 60.9323 1.65564C60.83 1.67966 60.6839 1.70322 60.9221 1.72583C61.2494 1.71028 61.5329 1.71947 61.8251 1.72535C61.8295 1.71805 61.8529 1.71358 61.8894 1.71099C61.7302 1.71005 61.6235 1.70769 61.7199 1.69332C61.999 1.69073 62.2694 1.69332 62.5368 1.69827C62.5631 1.69733 62.5865 1.69733 62.6113 1.69639C62.2518 1.68226 61.8617 1.6726 61.4613 1.66459C61.3385 1.65776 61.2318 1.65164 61.1339 1.64528C61.2348 1.64716 61.3341 1.64928 61.4394 1.65211C61.9552 1.67024 62.474 1.68838 63.0015 1.70628C63.0103 1.70746 63.0234 1.7084 63.0351 1.70887C63.6372 1.72394 64.2714 1.7416 64.9173 1.72677C64.6192 1.70463 64.2611 1.72842 63.9762 1.69851C64.4876 1.66789 64.9056 1.70746 65.3703 1.70369C65.3425 1.70746 65.3031 1.71052 65.2753 1.71381C65.4024 1.71876 65.5383 1.723 65.6815 1.72724C65.7838 1.72371 65.8934 1.71805 66.0118 1.7011C65.5559 1.66271 65.0225 1.69662 64.5578 1.66506C66.38 1.69073 68.2038 1.72371 70.0275 1.70746C69.5306 1.69003 68.4624 1.72394 68.3104 1.68744C69.0236 1.67802 71.2141 1.66247 70.6266 1.72535C71.4786 1.74208 72.5745 1.75267 73.5346 1.76421C73.5361 1.76115 73.539 1.7588 73.5405 1.7555C73.9745 1.75008 74.4611 1.67519 74.7081 1.78353C75.0295 1.76539 75.3218 1.76987 75.5059 1.74278C75.6871 1.73525 75.8713 1.73525 76.0642 1.75055C75.902 1.74631 75.7441 1.74325 75.5848 1.74702C75.88 1.78164 76.5405 1.80331 76.6165 1.76115C76.466 1.76162 76.3155 1.75738 76.1664 1.75314C76.1285 1.73689 76.2205 1.73054 76.3097 1.72794C76.7086 1.74773 77.0973 1.76256 77.1105 1.71005C77.0052 1.73054 76.5639 1.71099 76.6911 1.69144C76.789 1.68367 76.8898 1.67966 76.9906 1.67731C76.995 1.68461 77.0023 1.69144 77.0257 1.69921C77.0681 1.69497 77.0944 1.69003 77.1134 1.68555C77.2493 1.69521 77.3866 1.70628 77.524 1.71523C77.4144 1.76845 77.5547 1.8311 77.2931 1.88079C76.976 1.85795 76.6574 1.82969 76.355 1.83628C76.8313 1.93449 76.9921 1.86077 77.2011 1.94885C77.5152 1.89233 77.9317 1.86784 78.3263 1.85748C78.3277 1.85771 78.3277 1.85771 78.3292 1.85842C78.3292 1.85842 78.3292 1.85748 78.3321 1.857C78.4023 1.85536 78.4709 1.85394 78.5382 1.85277C78.6273 1.85512 78.7018 1.85583 78.7617 1.85394C78.7749 1.85441 78.772 1.85441 78.7647 1.85394C78.788 1.85277 78.8085 1.85182 78.826 1.85017C78.9342 1.8497 79.0365 1.84994 79.1271 1.85065C79.0321 1.84311 78.6404 1.83863 78.7398 1.81344C79.0131 1.8165 79.3521 1.81956 79.2644 1.74891C79.4792 1.77693 79.6999 1.7807 79.9191 1.77269C79.9352 1.7767 79.9483 1.77929 79.9644 1.78447C80.0185 1.77599 80.0755 1.76916 80.1339 1.76256C80.2289 1.75644 80.3239 1.74961 80.4189 1.74184C80.4832 1.7522 80.5723 1.76586 80.717 1.78517C81.1378 1.76256 81.5791 1.7595 82.0307 1.76421C82.0701 1.77528 82.1125 1.78635 82.1549 1.80048C82.453 1.79059 82.7628 1.78753 83.0814 1.78635C83.1501 1.78847 83.2187 1.78965 83.2845 1.79177C83.2889 1.79177 83.2889 1.792 83.2903 1.792C83.5914 1.79978 83.8866 1.80684 84.1715 1.8099C84.1657 1.81179 84.1554 1.8132 84.1525 1.81508C84.4039 1.79624 84.2446 1.8497 84.4477 1.86383C84.5383 1.79177 84.8569 1.86501 85.1404 1.83534C85.0424 1.82592 84.9007 1.81579 84.7575 1.80825C84.8598 1.80637 84.965 1.80472 85.0629 1.80048C85.2938 1.80284 85.5203 1.80401 85.7453 1.80378C86.0157 1.82709 86.2977 1.81697 86.5973 1.80072C86.7493 1.80072 86.9027 1.79978 87.0532 1.7986C87.3309 1.82286 87.5764 1.82333 87.8175 1.81532C88.1156 1.84311 88.4239 1.82898 88.3304 1.79295C88.3786 1.79059 88.4268 1.78894 88.478 1.78753C88.7834 1.78941 89.0742 1.79224 89.3709 1.80543C89.5915 1.7807 89.8326 1.76233 90.0913 1.74773C90.1658 1.74584 90.2433 1.74372 90.3178 1.74184C90.6714 1.80425 90.5691 1.77787 91.0484 1.85489C90.9871 1.86501 90.9198 1.85748 90.857 1.86383C91.3889 1.92036 90.9198 1.79389 90.9198 1.79389C90.9198 1.79389 91.1726 1.81532 91.2837 1.79365C91.082 1.75738 90.8672 1.75055 90.7196 1.73925C90.7459 1.73595 90.7722 1.73218 90.7986 1.72912C90.8365 1.72818 90.8731 1.72677 90.9125 1.72583C91.0791 1.74631 91.2033 1.78871 91.4678 1.76374C91.3918 1.73336 91.0484 1.75621 91.1829 1.7197C91.3539 1.74584 91.8463 1.75479 91.7689 1.71452C91.6213 1.719 91.4693 1.71805 91.3159 1.71476C91.5336 1.70863 91.7528 1.70322 91.9676 1.69686C93.0899 1.69756 94.2239 1.68226 95.3476 1.66577C95.3549 1.66671 95.3622 1.66718 95.3681 1.66836C95.5025 1.66671 95.637 1.66459 95.7699 1.66271C95.7115 1.67048 95.6925 1.68131 95.7714 1.69921C96.1937 1.70086 96.6219 1.70251 97.05 1.70369C96.9448 1.71052 96.844 1.71852 96.7534 1.72794C98.6253 1.7376 100.496 1.69921 102.349 1.65423C102.984 1.65753 103.613 1.63774 104.229 1.61584C104.821 1.60501 105.4 1.59677 105.97 1.59017C106.087 1.60807 106.208 1.62879 106.324 1.63256C106.269 1.61419 106.293 1.60053 106.318 1.58617C106.324 1.58617 106.329 1.58593 106.338 1.58593C106.449 1.59677 106.557 1.59559 106.665 1.58287C106.758 1.5824 106.848 1.58146 106.94 1.58075C106.993 1.58263 107.045 1.58405 107.097 1.58617C107.105 1.5857 107.114 1.58452 107.121 1.58405C107.681 1.59512 108.42 1.59041 108.941 1.6003C109.069 1.60242 109.366 1.62879 109.531 1.6328C109.527 1.61937 109.556 1.60925 109.604 1.60289C109.582 1.59512 109.556 1.58687 109.509 1.5751C109.515 1.57557 109.521 1.57557 109.53 1.57557C109.54 1.57557 109.547 1.57557 109.557 1.57557C109.674 1.57604 109.79 1.57722 109.907 1.57769C109.99 1.57981 110.073 1.58099 110.155 1.58334C110.143 1.58146 110.132 1.58075 110.117 1.57934C110.187 1.58004 110.33 1.58075 110.33 1.58075C110.33 1.58075 109.822 1.55343 109.568 1.54872C109.67 1.54071 109.778 1.53294 109.886 1.52541C110.113 1.52635 110.325 1.52658 110.515 1.5101C110.509 1.55037 110.84 1.5678 110.662 1.61749C110.573 1.62314 110.171 1.5678 110.292 1.62361C110.455 1.63303 110.557 1.63798 110.636 1.64104C110.631 1.63963 110.624 1.63892 110.618 1.63774C110.699 1.63704 110.782 1.63939 110.862 1.63963C110.921 1.6368 110.989 1.63186 111.096 1.62597C110.713 1.57722 110.763 1.53483 110.634 1.49079C110.946 1.50774 111.07 1.50939 111.258 1.4955C111.191 1.50868 111.133 1.52352 111.266 1.54613C111.606 1.57887 111.365 1.46582 111.574 1.49761C111.463 1.51858 111.654 1.54142 111.77 1.55343C111.855 1.5499 111.969 1.55343 112.087 1.55555C112.068 1.5433 112.036 1.53553 111.966 1.54142C111.844 1.50845 112.021 1.5287 112.137 1.52046C112.14 1.52046 112.14 1.5207 112.14 1.5207C112.173 1.51834 112.204 1.51269 112.216 1.50256C112.3 1.52234 112.311 1.53883 112.294 1.55367C112.338 1.55178 112.379 1.54919 112.407 1.5426C112.509 1.57745 112.384 1.5758 112.261 1.5751C112.227 1.59205 112.192 1.60878 112.232 1.62927C112.159 1.6368 112.135 1.62503 112.123 1.60807C111.976 1.61207 111.787 1.56733 111.656 1.58829C111.651 1.57745 111.665 1.57039 111.681 1.5645C111.649 1.56474 111.618 1.56638 111.587 1.57392C111.593 1.59983 111.612 1.62668 111.619 1.65258C113.123 1.71052 114.581 1.80166 116.087 1.68909C115.778 1.65164 115.528 1.67048 115.271 1.68532C115.691 1.59888 117.114 1.70345 117.484 1.55602C117.701 1.59771 118.176 1.53341 118.489 1.47948C118.122 1.43426 117.884 1.51881 117.504 1.45405C118.156 1.47383 118.702 1.36997 119.433 1.44745C119.627 1.42154 119.841 1.3987 120.072 1.37892C120.013 1.36314 120.108 1.36008 120.206 1.36714C120.259 1.36267 120.316 1.35961 120.37 1.35537C120.38 1.31792 120.37 1.2793 120.415 1.24303C120.294 1.17449 119.846 1.21288 119.966 1.17049C120.066 1.1573 120.083 1.14034 120.099 1.12362C120.321 1.1208 121.22 1.20299 120.95 1.10902C120.811 1.13611 120.316 1.12692 119.944 1.09042C120.114 1.06286 120.045 1.02447 120.055 0.989617C119.244 0.793908 119.491 0.514827 118.898 0.296037C117.928 0.271073 116.918 0.257178 116.015 0.306871C115.983 0.302867 115.958 0.29745 115.965 0.284968C115.894 0.289208 115.888 0.300983 115.91 0.312994C115.813 0.319353 115.717 0.325476 115.623 0.333013C115.527 0.31794 115.423 0.322179 115.318 0.32736C115.36 0.335839 115.403 0.343375 115.448 0.34997C115.216 0.372108 114.991 0.398014 114.783 0.433576C113.636 0.447942 112.385 0.453123 111.28 0.422742C111.212 0.412615 111.147 0.413557 111.083 0.416855C110.998 0.414264 110.915 0.411438 110.832 0.408376C110.804 0.402488 110.776 0.395188 110.747 0.384354C110.681 0.390948 110.614 0.394481 110.545 0.396365C110.298 0.385061 110.063 0.371637 109.842 0.355622C109.753 0.358212 109.663 0.360332 109.569 0.361981C109.429 0.35727 109.291 0.357035 109.156 0.366455C108.865 0.368104 108.559 0.367162 108.248 0.365042C107.833 0.355386 107.434 0.35256 107.047 0.356799C106.597 0.355386 106.155 0.357035 105.748 0.367868C105.659 0.356328 105.568 0.355151 105.61 0.372108C105.381 0.379173 105.159 0.389535 104.956 0.404844C104.9 0.395659 104.843 0.3893 104.786 0.38247C104.786 0.378231 104.791 0.375169 104.785 0.369281C104.758 0.37093 104.732 0.37093 104.706 0.372108C104.151 0.315585 103.623 0.365042 103.074 0.32477C103.1 0.331364 103.126 0.335132 103.154 0.339843C102.929 0.334661 102.718 0.336074 102.54 0.356328C102.819 0.38459 103.423 0.358683 103.746 0.417797C103.674 0.424155 103.601 0.429337 103.527 0.433576C103.399 0.416619 103.265 0.436402 103.132 0.440406C103.069 0.437109 103.014 0.431456 102.974 0.421094C102.888 0.443703 102.773 0.457363 102.64 0.464663C102.369 0.451475 101.888 0.422507 101.926 0.467725C101.419 0.455243 100.885 0.42863 100.595 0.469374C100.88 0.462544 101.161 0.451475 101.444 0.499048C99.3838 0.594901 97.3335 0.358212 95.2629 0.356093C95.4835 0.39872 96.0154 0.403666 95.7714 0.48162C95.634 0.477852 95.5011 0.477852 95.3432 0.474555C95.2263 0.465134 95.1109 0.465134 94.9954 0.467489C94.028 0.453594 92.992 0.47479 92.1459 0.448413C92.7333 0.415677 91.9121 0.432869 91.972 0.38718C92.4294 0.392833 92.9978 0.405315 93.5341 0.364571C92.8911 0.337723 92.1985 0.353973 91.6476 0.357741C91.5818 0.342669 91.5175 0.330893 91.4576 0.340078C91.4532 0.346201 91.4649 0.353031 91.4678 0.35939C90.5969 0.367868 89.7347 0.395187 88.8433 0.362216C89.137 0.361509 89.4205 0.344553 89.7143 0.345259C89.6353 0.340785 89.5579 0.337723 89.479 0.334661C89.5915 0.328067 89.6894 0.318882 89.6529 0.297451C89.5711 0.302867 89.2335 0.299806 89.2145 0.325005C88.3056 0.301925 87.4522 0.35727 86.5461 0.372343C86.3182 0.376111 86.0478 0.34785 85.7892 0.350911C84.9124 0.361509 84.0619 0.402253 83.3108 0.416148C83.2158 0.398956 83.1369 0.37776 83.0784 0.350911C82.6561 0.393775 82.1476 0.363158 81.661 0.333955C81.6873 0.333484 81.7136 0.333248 81.737 0.330422C81.6931 0.330657 81.6522 0.330658 81.6098 0.330893C81.1349 0.302632 80.6848 0.278845 80.3516 0.326183C79.5947 0.314643 78.9283 0.290385 78.1202 0.272722C78.1524 0.300041 78.0472 0.326654 77.9639 0.353031C77.4597 0.336545 76.9585 0.318646 76.4587 0.301925C76.4032 0.283555 76.352 0.265185 76.3287 0.247051C76.8416 0.248935 77.3399 0.308755 77.866 0.275077C77.1075 0.247287 76.0115 0.157792 75.4562 0.227033C75.6491 0.235276 75.9063 0.259298 76.0335 0.288266C75.4855 0.271073 74.9404 0.256472 74.3997 0.2487C74.274 0.290385 74.1221 0.258591 73.9979 0.299806C73.1912 0.278139 72.3933 0.266599 71.5998 0.265185C71.6641 0.278139 71.7284 0.287794 71.7957 0.296508C71.7416 0.297215 71.6992 0.299806 71.6802 0.306164C71.4625 0.311346 71.2521 0.319353 71.0577 0.3316C70.46 0.316056 69.5701 0.263537 69.2384 0.307813C69.2924 0.312052 69.3436 0.316291 69.3933 0.320766C69.3903 0.320766 69.383 0.320766 69.3772 0.320766C69.4123 0.340785 69.5029 0.34102 69.5964 0.340314C69.6446 0.34573 69.6943 0.350911 69.7425 0.355622C69.5555 0.367162 68.9651 0.372343 68.9841 0.372343C68.5822 0.372343 68.2023 0.359861 67.8063 0.35256C67.1312 0.333248 65.5822 0.346908 65.1277 0.272015C63.9543 0.339136 62.5967 0.282849 61.4145 0.249171C61.5007 0.270838 62.1262 0.276961 62.0326 0.304987C57.5464 0.317233 53.0544 0.347143 48.5667 0.336074C48.5667 0.336074 48.5667 0.335839 48.5652 0.335839L48.5623 0.336074C48.3446 0.335603 48.1268 0.335132 47.9076 0.334661C47.8229 0.323828 47.7805 0.309462 47.8331 0.294624C47.2398 0.349498 46.6757 0.265656 46.0941 0.264479C45.2948 0.323828 44.5174 0.291327 43.7356 0.26966C43.7999 0.282849 43.8481 0.295566 43.7575 0.305222C43.6274 0.304045 43.5003 0.303338 43.3732 0.30169C43.3089 0.300983 43.2446 0.300041 43.1817 0.299099C43.0751 0.297451 42.9698 0.295802 42.8661 0.29486C42.3488 0.28803 41.8329 0.281436 41.3156 0.272957C40.8217 0.26495 40.4652 0.280729 40.0604 0.28803C39.4452 0.287088 38.8504 0.282849 38.2878 0.26707C38.279 0.273664 38.263 0.27861 38.241 0.283084C37.9079 0.282849 37.5718 0.282849 37.2386 0.283791C37.1538 0.276961 37.0691 0.272486 36.9829 0.276255C37.0106 0.279552 37.0296 0.282378 37.0471 0.284733C36.9376 0.285439 36.8294 0.286146 36.7198 0.286381L36.7184 0.284497C36.8367 0.280258 36.977 0.288737 36.8718 0.26707C36.8265 0.270838 36.7812 0.268483 36.7344 0.26495C36.7461 0.257649 36.7578 0.250819 36.771 0.243989C36.8294 0.243047 36.8879 0.242341 36.9463 0.239515C36.8879 0.235511 36.8367 0.230801 36.7973 0.225149C36.7987 0.2235 36.7973 0.221851 36.7973 0.220203C35.9497 0.231743 35.0978 0.238573 34.2414 0.243047C34.2721 0.241163 34.3043 0.239515 34.3306 0.237631C34.0895 0.192884 33.7139 0.253881 33.4538 0.222793C33.407 0.252468 33.7285 0.25812 34.0179 0.25129C33.6584 0.266599 33.35 0.26283 33.0212 0.266128C32.9511 0.267541 32.8795 0.268718 32.8094 0.270131C32.6515 0.273664 32.4879 0.280258 32.3067 0.292505C32.3753 0.293211 32.4382 0.296037 32.4864 0.302867C32.3563 0.305222 32.2263 0.307577 32.0962 0.308755C32.0845 0.309933 32.0714 0.31111 32.0597 0.312052C31.8215 0.31111 31.5833 0.309933 31.3466 0.306871C31.3422 0.306871 31.3407 0.306871 31.3393 0.306871C31.3758 0.304516 31.4094 0.30169 31.4459 0.296744C31.3831 0.293211 31.3247 0.289914 31.2677 0.286381C31.0499 0.288737 30.8278 0.290856 30.6057 0.293447C30.4888 0.290856 30.3719 0.288266 30.2535 0.285439C29.8224 0.273428 29.7011 0.299099 29.2832 0.305693C28.7732 0.312994 28.3319 0.296744 27.8117 0.295566C27.8175 0.309462 27.8672 0.317234 27.9578 0.318647C27.8321 0.325476 27.7269 0.337252 27.6407 0.353031C27.648 0.353502 27.6553 0.353738 27.6612 0.353973C26.7259 0.367162 25.7454 0.367162 24.7605 0.367162C24.7546 0.369046 24.7444 0.371637 24.7385 0.373992C24.9665 0.35468 25.1755 0.409789 25.399 0.422742C25.5189 0.382705 25.6825 0.369988 25.9441 0.392126C25.6709 0.387887 25.8111 0.407434 25.9134 0.429572C25.2675 0.427924 24.6231 0.419445 23.9889 0.409318C23.9056 0.457833 24.6523 0.455243 24.6143 0.503523C24.6012 0.52307 22.2207 0.541675 21.8963 0.547092C21.3439 0.556513 20.6732 0.541911 20.2289 0.553922C19.9937 0.560516 19.7774 0.536494 19.5523 0.547799C19.0774 0.535788 19.8241 0.509646 19.7949 0.511295C19.1958 0.476439 18.5148 0.535788 17.9361 0.49999C18.2532 0.505878 18.2562 0.471964 18.2781 0.433811C18.5192 0.422036 19.0131 0.412144 19.1388 0.36881C18.7545 0.388593 18.3526 0.374227 18.0384 0.37093C18.1451 0.373285 18.6726 0.349969 18.5382 0.318882C18.1568 0.32477 17.8192 0.34573 17.4276 0.34102C17.7447 0.462073 17.4232 0.355151 17.4641 0.387887C17.2376 0.318882 16.5552 0.359625 16.2045 0.37093C15.9414 0.379408 14.9434 0.358919 14.9711 0.392833C14.6789 0.365042 14.8542 0.333484 14.4626 0.338194C14.1499 0.341727 13.8298 0.344317 13.4967 0.348321C12.4796 0.359861 11.4625 0.372579 10.5214 0.442054C10.6267 0.484682 10.8283 0.512708 11.0826 0.531549C10.8385 0.551096 9.58182 0.610209 9.47076 0.600082C9.15366 0.571114 8.24326 0.572527 7.99922 0.623398C8.29733 0.605028 8.50776 0.609032 8.76202 0.638C6.11705 0.725139 3.494 0.602202 0.907471 0.650246C0.992233 0.654485 1.01415 0.662728 0.967392 0.674739C0.635674 0.661786 0.306877 0.701117 0 0.712421ZM116.119 1.42343C116.298 1.51952 116.464 1.4491 116.712 1.47006C116.861 1.45711 117.028 1.45122 117.203 1.46747C116.906 1.53224 116.541 1.5247 116.187 1.52894C116.259 1.5247 116.348 1.51269 116.446 1.50021C115.914 1.52187 115.391 1.54495 114.836 1.52894C115.017 1.47948 115.781 1.51551 116.119 1.42343ZM113.941 1.67142C114.013 1.73477 113.504 1.68838 113.278 1.63115C113.466 1.60831 113.732 1.6726 113.941 1.67142ZM109.481 1.5751C109.457 1.58758 109.283 1.58263 109.118 1.57463C109.239 1.57463 109.36 1.57486 109.481 1.5751ZM102.417 0.4722C102.268 0.474319 102.108 0.4722 101.944 0.468432C102.134 0.445822 102.29 0.454772 102.417 0.4722ZM81.1028 1.69168C81.1188 1.69238 81.1334 1.69262 81.1495 1.69332C81.3176 1.70581 81.4608 1.71099 81.5207 1.69215C81.5251 1.69215 81.5295 1.69215 81.5338 1.69168C81.5368 1.69215 81.5411 1.69238 81.5455 1.69262C81.5762 1.71452 81.5192 1.73313 81.4126 1.74891C81.0019 1.68626 81.0399 1.72912 80.641 1.72488C80.6381 1.72418 80.6381 1.72418 80.6366 1.72394C80.7944 1.71052 80.9493 1.69851 81.1028 1.69168ZM75.1348 1.6507C75.1245 1.65046 75.1143 1.64976 75.1041 1.64928C75.1158 1.64834 75.1289 1.64811 75.1377 1.6474C75.1377 1.6474 75.1362 1.64976 75.1348 1.6507ZM74.5897 1.60783C74.7592 1.6109 74.9302 1.61419 75.1026 1.61773C75.1055 1.61914 75.1099 1.62079 75.1143 1.62196C75.0632 1.63139 74.9682 1.63986 74.8878 1.64834C74.7344 1.6514 74.5809 1.65588 74.4333 1.64316C74.5385 1.61749 74.8191 1.64293 74.5897 1.60783ZM74.7782 1.66412C74.7504 1.67024 74.7431 1.67637 74.7811 1.6832C74.8352 1.67543 74.8922 1.67001 74.9419 1.66412C75.0018 1.66436 75.0559 1.66412 75.1128 1.66365C75.0778 1.68037 75.0106 1.69568 74.8469 1.70746C74.6496 1.69733 74.4494 1.67684 74.201 1.66765C74.3953 1.66459 74.5853 1.66412 74.7782 1.66412ZM73.6238 1.61608C73.6515 1.62408 73.6735 1.63374 73.6764 1.6474C73.6983 1.62267 73.7728 1.61137 73.8532 1.60195C73.9672 1.61985 74.1206 1.62997 74.2974 1.64198C74.2156 1.65941 74.0592 1.6514 74.0797 1.66412C74.011 1.66271 73.9423 1.662 73.8678 1.66318C73.9774 1.68626 74.0373 1.70793 73.9906 1.72653C73.8473 1.71688 73.7041 1.71476 73.5609 1.719C73.5829 1.6839 73.5989 1.65423 73.6238 1.61608ZM69.2588 1.62408C69.6256 1.63256 70.5214 1.62196 70.5433 1.6693C70.178 1.65918 69.272 1.67966 69.2588 1.62408ZM70.0626 0.38718C70.1985 0.399427 70.3475 0.410025 70.5287 0.417561C70.46 0.418974 70.3943 0.418974 70.3256 0.418503C70.1897 0.413086 70.0567 0.407434 69.9208 0.404137C69.9778 0.398014 70.0216 0.392597 70.0626 0.38718ZM69.4181 0.55981C69.4181 0.563342 69.4167 0.567346 69.4225 0.571114C69.2223 0.569937 69.0484 0.584303 68.9154 0.609974C68.8847 0.607619 68.854 0.605734 68.8263 0.604086C68.8365 0.600082 68.8438 0.596079 68.8584 0.592075C68.8161 0.594665 68.7722 0.596314 68.7298 0.598198C68.7196 0.597492 68.7065 0.597021 68.6992 0.597021C68.7035 0.597492 68.7065 0.598198 68.7108 0.59914C68.6787 0.600553 68.6422 0.600789 68.61 0.602202C68.6363 0.566875 69.0119 0.560516 69.4181 0.55981ZM68.3309 1.5393C68.5632 1.53506 68.7956 1.53059 69.0279 1.52635C69.0382 1.53035 69.0528 1.53506 69.0835 1.54142C69.1069 1.53412 69.1317 1.53059 69.1536 1.52823C69.1858 1.52894 69.2179 1.52964 69.2486 1.52988C69.3494 1.54024 69.443 1.56968 69.5555 1.53718C69.5467 1.53647 69.5438 1.53577 69.5379 1.53483C69.7235 1.53812 69.9106 1.54071 70.0962 1.5433C70.083 1.54354 70.0684 1.54401 70.0523 1.54448C69.877 1.54166 69.6665 1.55178 69.6388 1.56733C69.5467 1.57463 69.4605 1.5824 69.3713 1.58946C69.44 1.53765 68.8789 1.54189 68.2929 1.54943C68.309 1.5466 68.3192 1.5426 68.3309 1.5393ZM67.5476 1.60501C66.9573 1.66247 65.8774 1.62526 65.6947 1.59559C66.3201 1.6003 66.9412 1.59535 67.5476 1.60501ZM62.2168 1.59983C62.2328 1.59629 62.2577 1.59629 62.3161 1.60289C62.284 1.60195 62.2518 1.601 62.2168 1.59983ZM62.5295 1.60548C62.5763 1.59959 62.5982 1.59629 62.6449 1.59041C62.5339 1.58263 62.4228 1.57486 62.3118 1.5718C62.3176 1.56968 62.3278 1.56733 62.3366 1.56544C62.1861 1.56827 62.0458 1.57321 61.9187 1.5824C62.0458 1.57392 62.0794 1.56568 62.0882 1.5572C62.474 1.55626 62.7721 1.56733 62.8919 1.59818C62.7691 1.60289 62.6449 1.60571 62.5295 1.60548ZM61.9727 1.45334C62.0429 1.45405 62.1159 1.45475 62.1861 1.45569C62.1145 1.4597 62.037 1.46182 61.9581 1.45499C61.964 1.45452 61.9669 1.45381 61.9727 1.45334ZM58.866 1.47242C58.6351 1.46865 58.4057 1.46488 58.1748 1.46088C59.2795 1.45287 60.3857 1.44227 61.4861 1.44886C61.5022 1.4531 61.5168 1.45758 61.5124 1.46252C61.5343 1.45805 61.5446 1.45381 61.5592 1.44886C61.6542 1.44957 61.7462 1.45075 61.8412 1.45169C61.8471 1.47006 62.0195 1.49502 62.132 1.4929C62.1466 1.49314 62.1642 1.49243 62.1846 1.48961C62.1422 1.4776 62.1832 1.47548 62.2518 1.47618C62.2489 1.47783 62.2518 1.47948 62.2475 1.48113C62.2592 1.47877 62.2723 1.4776 62.284 1.47642C62.3264 1.47689 62.3731 1.4776 62.4184 1.47783C62.4944 1.48396 62.569 1.49479 62.6493 1.4856C62.6084 1.48113 62.5763 1.47807 62.5441 1.47501C62.566 1.47289 62.5821 1.47077 62.5953 1.467C62.585 1.46488 62.5763 1.46347 62.566 1.46158C62.6917 1.46394 62.8188 1.46582 62.9445 1.46841C62.9752 1.47595 62.9927 1.47854 62.9927 1.46959C63.2075 1.47453 63.4194 1.48042 63.6313 1.48725C63.1082 1.51693 62.5266 1.53765 61.9479 1.54872C61.6761 1.54943 61.3955 1.54849 61.1076 1.5466C61.1486 1.53224 61.3283 1.51975 61.3721 1.51434C60.2572 1.51387 59.1451 1.51198 58.0301 1.51598C57.995 1.46818 58.7038 1.48914 58.866 1.47242ZM16.0116 1.28707C16.0145 1.2873 16.0174 1.28707 16.0335 1.28448C15.9911 1.28 17.7856 1.26469 18.0881 1.25998C17.6322 1.35607 16.4909 1.33959 15.8845 1.30096C15.9268 1.29649 15.9692 1.29154 16.0116 1.28707ZM10.0334 1.30756C11.0154 1.26328 12.0368 1.33323 13.0291 1.32805C12.6535 1.38174 11.8103 1.39211 11.3559 1.36714C11.3339 1.3695 11.3193 1.37162 11.3076 1.37374C11.1922 1.39281 11.5634 1.3881 11.5546 1.40129C11.54 1.41825 11.3602 1.40859 11.4713 1.43097C11.1513 1.45051 11.2068 1.40294 11.1162 1.37279C11.1089 1.39328 11.0504 1.39917 10.9438 1.39093C11.0168 1.35913 10.9101 1.34995 10.6208 1.36314C10.3928 1.36785 10.162 1.36879 9.93253 1.36644C10.0597 1.35701 10.1868 1.35678 10.3154 1.36479C10.1722 1.35183 10.0772 1.33276 10.0334 1.30756ZM9.91939 1.3662C9.84924 1.36267 9.7791 1.35913 9.70603 1.35537C9.6958 1.2442 9.96468 1.37162 9.91939 1.3662ZM5.81748 1.21288C5.99576 1.16178 6.29971 1.22843 6.44585 1.2044C6.58905 1.18038 6.00745 1.15141 5.66404 1.15C5.64796 1.14482 5.59098 1.14294 5.46384 1.15495C5.47846 1.15824 5.49892 1.16107 5.52084 1.16413C5.52522 1.16437 5.53107 1.16531 5.53399 1.16554C5.65235 1.1792 5.83209 1.18815 5.81748 1.21288ZM6.93685 1.17544C7.22327 1.17379 7.48045 1.22136 7.7771 1.20299C7.55498 1.1792 6.93685 1.14246 6.93685 1.17544ZM8.42446 0.574883C7.70842 0.574412 6.28218 0.508468 5.79264 0.597256C6.72057 0.545444 7.26418 0.60385 8.42446 0.574883ZM62.0326 0.304987C62.1539 0.268483 54.8722 0.324534 62.0326 0.304987V0.304987Z" fill="white"/>
</svg>
