<?xml version="1.0" encoding="UTF-8"?>
<svg version="1.1" xmlns="http://www.w3.org/2000/svg" width="145" height="145">
<path d="M0 0 C3.57717399 2.64029509 6.60885414 5.68041941 9.625 8.9375 C12.37413076 7.6789317 13.83417627 6.72281909 16 4.5 C20.5425937 0.06556329 24.21999258 -1.27022293 30.5 -1.5625 C36.42118428 -1.3864053 40.30649315 -0.15161734 44.625 3.9375 C48.46165283 8.08371161 49.94740558 11.85390868 50.1875 17.5 C49.96447038 22.66565376 48.59689578 25.75827156 45.625 29.9375 C44.965 29.9375 44.305 29.9375 43.625 29.9375 C43.5321875 30.8346875 43.5321875 30.8346875 43.4375 31.75 C42.27922805 34.86842447 40.55668385 35.50574742 37.625 36.9375 C32.02226794 38.99183509 26.12990859 38.3185054 20.69140625 36.13671875 C16.69053901 33.8148544 13.6830464 30.36153599 10.625 26.9375 C7.40813706 28.91148408 4.92692776 30.54121981 2.625 33.5625 C-0.29952396 37.03537221 -3.05542561 37.65777396 -7.48046875 38.19140625 C-13.27377039 38.50051529 -17.63090076 37.30394597 -22.375 33.9375 C-27.1484987 29.51535019 -29.42857976 24.95142943 -29.6875 18.5 C-29.58303536 14.29355732 -28.6239139 11.55182591 -26.375 7.9375 C-25.776875 6.885625 -25.17875 5.83375 -24.5625 4.75 C-18.70476375 -2.78137518 -8.60124565 -2.70779956 0 0 Z M-19.375 13.9375 C-20.55666209 16.95730313 -20.71489294 18.72038338 -19.84375 21.83984375 C-18.53415473 24.80462194 -17.41813367 26.52346236 -14.34765625 27.7421875 C-9.51972983 28.55096834 -6.02418094 27.96886146 -1.94921875 25.26171875 C0.64278076 23.08135192 2.59417143 20.64527143 4.625 17.9375 C0.37435326 11.76763606 0.37435326 11.76763606 -5.921875 8.1640625 C-12.00598032 7.92438562 -15.45212415 9.31051823 -19.375 13.9375 Z M18.25 15.6875 C17.71375 16.43 17.1775 17.1725 16.625 17.9375 C20.20364285 23.34361914 20.20364285 23.34361914 25.0625 27.5 C29.9145415 28.32839733 33.41071166 27.75582475 37.5 25 C39.67170132 23.11938937 39.67170132 23.11938937 40.625 20.9375 C40.53848369 19.39136986 40.38497364 17.84840613 40.1875 16.3125 C40.08566406 15.49523437 39.98382813 14.67796875 39.87890625 13.8359375 C39.75322266 12.89621094 39.75322266 12.89621094 39.625 11.9375 C38.965 11.9375 38.305 11.9375 37.625 11.9375 C37.625 11.2775 37.625 10.6175 37.625 9.9375 C29.36894922 7.29556375 23.83787595 9.21732785 18.25 15.6875 Z " fill="#FFFFFF" transform="translate(62.375,54.0625)"/>
<path d="M0 0 C1.49080078 0.02707031 1.49080078 0.02707031 3.01171875 0.0546875 C3.77097656 0.07789063 4.53023437 0.10109375 5.3125 0.125 C4.79819295 4.84243704 2.61984975 8.09764039 -0.0625 11.875 C-0.66191406 12.75865234 -0.66191406 12.75865234 -1.2734375 13.66015625 C-4.30446897 17.99732299 -4.30446897 17.99732299 -7.6875 19.125 C-9.3346761 21.43104654 -9.73072397 22.66394428 -9.46484375 25.5 C-8.53787643 28.6302615 -7.26560818 30.04466016 -5 32.375 C5.3125 43.48648649 5.3125 43.48648649 5.3125 49.125 C3.41867836 49.26092021 1.52200296 49.3574094 -0.375 49.4375 C-1.43074219 49.49550781 -2.48648438 49.55351563 -3.57421875 49.61328125 C-7.78421381 48.95299344 -8.9979391 47.37708345 -11.6875 44.125 C-13.26222136 41.95544292 -14.7766581 39.79693999 -16.25 37.5625 C-18.30898581 34.45090659 -20.27113292 31.52434355 -22.98046875 28.92578125 C-23.82544922 28.03439453 -23.82544922 28.03439453 -24.6875 27.125 C-24.4375 23.875 -24.4375 23.875 -23.6875 21.125 C-22.6975 20.795 -21.7075 20.465 -20.6875 20.125 C-19.97566517 18.81522391 -19.32213425 17.47387419 -18.6875 16.125 C-17.11330538 13.6991919 -15.43085896 11.35271745 -13.75 9 C-13.30720703 8.36707031 -12.86441406 7.73414063 -12.40820312 7.08203125 C-8.64057006 1.79274608 -6.52512588 -0.15353237 0 0 Z " fill="#FFFFFF" transform="translate(35.6875,47.875)"/>
<path d="M0 0 C10.36518987 -1.05664557 10.36518987 -1.05664557 13.921875 1.2421875 C15.49316418 3.07535821 16.74233825 4.93893642 18 7 C18.54527344 7.77988281 19.09054688 8.55976562 19.65234375 9.36328125 C21.86713087 12.54736344 23.76853467 15.305604 25 19 C25.99 19.33 26.98 19.66 28 20 C28.625 22.8125 28.625 22.8125 29 26 C28.34 26.99 27.68 27.98 27 29 C26.34 29 25.68 29 25 29 C24.77441406 29.51175781 24.54882812 30.02351563 24.31640625 30.55078125 C22.47638214 33.9742089 20.21337574 37.04247794 17.9375 40.1875 C17.47794922 40.82880859 17.01839844 41.47011719 16.54492188 42.13085938 C13.15472274 46.84527726 13.15472274 46.84527726 12 48 C9.98035801 48.07244053 7.95832876 48.08377188 5.9375 48.0625 C4.83277344 48.05347656 3.72804688 48.04445312 2.58984375 48.03515625 C1.30787109 48.01775391 1.30787109 48.01775391 0 48 C1.2637437 38.87836278 8.97432367 31.55681497 15 25 C13.70506755 20.39579572 11.01054827 17.58546653 7.88671875 14.12109375 C6.03999667 12.0449652 4.2767657 9.93660494 2.5625 7.75 C2.06878906 7.12609375 1.57507813 6.5021875 1.06640625 5.859375 C0 4 0 4 0 0 Z " fill="#FFFFFF" transform="translate(105,48)"/>
</svg>
