<?xml version="1.0" encoding="UTF-8"?>
<svg version="1.1" xmlns="http://www.w3.org/2000/svg" width="842" height="595">
<path d="M0 0 C277.86 0 555.72 0 842 0 C842 196.35 842 392.7 842 595 C564.14 595 286.28 595 0 595 C0 398.65 0 202.3 0 0 Z " fill="#FEFEFE" transform="translate(0,0)"/>
<path d="M0 0 C156.09 0 312.18 0 473 0 C473 97.68 473 195.36 473 296 C455.18 296 437.36 296 419 296 C418.34 297.65 417.68 299.3 417 301 C416.03129427 302.77340671 415.02756712 304.52797577 413.99609375 306.265625 C413.42052734 307.23757813 412.84496094 308.20953125 412.25195312 309.2109375 C411.35379883 310.71527344 411.35379883 310.71527344 410.4375 312.25 C409.83486328 313.26835937 409.23222656 314.28671875 408.61132812 315.3359375 C404.14501232 322.85498768 404.14501232 322.85498768 403 324 C401.04526561 324.09774241 399.08693624 324.12371286 397.12975979 324.12304783 C395.84587917 324.12503888 394.56199855 324.12702993 393.23921245 324.12908131 C391.79582224 324.12622771 390.35243221 324.1232821 388.90904236 324.12025452 C387.39025259 324.12069009 385.87146289 324.12156473 384.35267359 324.12284368 C380.15914427 324.12509147 375.96564025 324.1210635 371.77211416 324.11606562 C367.25743379 324.11176536 362.74275496 324.11320724 358.22807312 324.1139679 C350.39943539 324.1144934 342.57080597 324.11134383 334.74217033 324.10573006 C323.42314078 324.09761864 312.10411527 324.09500021 300.78508312 324.09374207 C282.42271915 324.09155098 264.06035961 324.08488937 245.69799805 324.07543945 C227.85587588 324.06626679 210.01375491 324.05918525 192.17163086 324.05493164 C191.07267921 324.05466892 189.97372756 324.05440619 188.84147435 324.05413551 C183.32860677 324.05283051 177.81573918 324.0515668 172.30287158 324.05032361 C126.53524465 324.03994923 80.76762255 324.02232939 35 324 C38.20589734 314.38230797 43.97017443 305.80219475 49 297 C24.745 296.505 24.745 296.505 0 296 C0 198.32 0 100.64 0 0 Z " fill="#0B0C0B" transform="translate(174,139)"/>
<path d="M0 0 C156.09 0 312.18 0 473 0 C473 97.68 473 195.36 473 296 C455.18 296 437.36 296 419 296 C418.34 297.65 417.68 299.3 417 301 C416.03129427 302.77340671 415.02756712 304.52797577 413.99609375 306.265625 C413.42052734 307.23757813 412.84496094 308.20953125 412.25195312 309.2109375 C411.35379883 310.71527344 411.35379883 310.71527344 410.4375 312.25 C409.83486328 313.26835937 409.23222656 314.28671875 408.61132812 315.3359375 C404.14501232 322.85498768 404.14501232 322.85498768 403 324 C401.04526561 324.09774241 399.08693624 324.12371286 397.12975979 324.12304783 C395.84587917 324.12503888 394.56199855 324.12702993 393.23921245 324.12908131 C391.79582224 324.12622771 390.35243221 324.1232821 388.90904236 324.12025452 C387.39025259 324.12069009 385.87146289 324.12156473 384.35267359 324.12284368 C380.15914427 324.12509147 375.96564025 324.1210635 371.77211416 324.11606562 C367.25743379 324.11176536 362.74275496 324.11320724 358.22807312 324.1139679 C350.39943539 324.1144934 342.57080597 324.11134383 334.74217033 324.10573006 C323.42314078 324.09761864 312.10411527 324.09500021 300.78508312 324.09374207 C282.42271915 324.09155098 264.06035961 324.08488937 245.69799805 324.07543945 C227.85587588 324.06626679 210.01375491 324.05918525 192.17163086 324.05493164 C191.07267921 324.05466892 189.97372756 324.05440619 188.84147435 324.05413551 C183.32860677 324.05283051 177.81573918 324.0515668 172.30287158 324.05032361 C126.53524465 324.03994923 80.76762255 324.02232939 35 324 C38.20589734 314.38230797 43.97017443 305.80219475 49 297 C24.745 296.505 24.745 296.505 0 296 C0 198.32 0 100.64 0 0 Z M4 4 C4 99.04 4 194.08 4 292 C20.17 292 36.34 292 53 292 C57.15044748 286.31865551 57.15044748 286.31865551 59 280 C59.66 280 60.32 280 61 280 C61.27714844 279.37351562 61.55429688 278.74703125 61.83984375 278.1015625 C62.20207031 277.28429687 62.56429687 276.46703125 62.9375 275.625 C63.29714844 274.81289063 63.65679687 274.00078125 64.02734375 273.1640625 C64.6569903 271.76316215 65.31312642 270.37374716 66 269 C187.77 268.67 309.54 268.34 435 268 C435 268.99 435 269.98 435 271 C434.34 271 433.68 271 433 271 C431.03152677 273.57370529 429.50027697 276.45015312 427.875 279.25 C427.40707031 280.02730469 426.93914062 280.80460937 426.45703125 281.60546875 C425.79380859 282.73662109 425.79380859 282.73662109 425.1171875 283.890625 C424.71097168 284.58188477 424.30475586 285.27314453 423.88623047 285.98535156 C422.73156211 288.2434078 422.73156211 288.2434078 423 292 C438.51 292 454.02 292 470 292 C470 196.96 470 101.92 470 4 C316.22 4 162.44 4 4 4 Z " fill="#E17B2D" transform="translate(174,139)"/>
<path d="M0 0 C8.69327866 -0.11633316 17.3862855 -0.2049359 26.0801754 -0.25906086 C30.11802221 -0.2850507 34.1553328 -0.32025105 38.19287109 -0.37719727 C42.09625064 -0.43190084 45.99911754 -0.46150017 49.9028511 -0.47438622 C51.38510829 -0.48355799 52.86734039 -0.50146717 54.34937668 -0.52865028 C63.21067054 -0.68457843 70.50930358 -0.21896889 78 5 C80 7 80 7 80.1953125 9.3828125 C80.17210937 10.28773438 80.14890625 11.19265625 80.125 12.125 C80.10695313 13.03507812 80.08890625 13.94515625 80.0703125 14.8828125 C80.04710937 15.58148438 80.02390625 16.28015625 80 17 C79.34 17 78.68 17 78 17 C77.64615234 17.92619141 77.64615234 17.92619141 77.28515625 18.87109375 C75.64980305 21.58011349 74.38406004 21.99731163 71.4375 23.0625 C70.54804688 23.38992188 69.65859375 23.71734375 68.7421875 24.0546875 C67.83726562 24.36664063 66.93234375 24.67859375 66 25 C65.15695312 25.29132813 64.31390625 25.58265625 63.4453125 25.8828125 C61.3021877 26.60655629 59.15370347 27.30852465 57 28 C56.01 28.33 55.02 28.66 54 29 C58.00281925 31.66854617 61.27346541 31.375285 65.9921875 31.55859375 C69.33214346 32.04874313 71.21554555 33.14689755 74 35 C75.175625 35.3403125 75.175625 35.3403125 76.375 35.6875 C81.20226371 38.10113186 84.79810139 42.59226212 87.19140625 47.38671875 C88.1160012 50.37490242 88.26594281 52.87520976 88.25 56 C88.25773438 57.5159375 88.25773438 57.5159375 88.265625 59.0625 C87.99363426 62.0703976 87.26321118 64.27306793 86 67 C85.34 67 84.68 67 84 67 C83.88398437 68.06154297 83.88398437 68.06154297 83.765625 69.14453125 C82.7967587 72.7580071 81.1230353 74.80764093 78.75 77.6875 C77.98171875 78.64011719 77.2134375 79.59273438 76.421875 80.57421875 C73.0876696 83.9138019 70.48373959 84.88920298 65.77922058 85.24050903 C63.95720879 85.2338472 63.95720879 85.2338472 62.09838867 85.22705078 C61.08779892 85.22748886 61.08779892 85.22748886 60.05679321 85.22793579 C57.84371786 85.22654938 55.63098484 85.21102111 53.41796875 85.1953125 C51.87811975 85.19157991 50.33826837 85.1887341 48.79841614 85.18673706 C44.75584292 85.17911994 40.71341461 85.15948808 36.67089844 85.1373291 C32.5416866 85.11682918 28.41245124 85.10772649 24.28320312 85.09765625 C16.18873577 85.07624026 8.09438594 85.04212766 0 85 C0.61277612 82.03824877 1.25372522 80.61941217 3 78 C3.29886887 74.85179043 3.29886887 74.85179043 3.24291992 71.20532227 C3.24481827 70.51880585 3.24671661 69.83228943 3.24867249 69.12496948 C3.2523774 66.85533226 3.24167891 64.58601505 3.23046875 62.31640625 C3.22927649 60.73843931 3.22882389 59.16047165 3.2290802 57.58250427 C3.22751574 54.27460286 3.21922995 50.96680972 3.20581055 47.65893555 C3.18883472 43.42087412 3.18499588 39.18293187 3.18575573 34.94484043 C3.18548362 31.68575403 3.1799956 28.42669363 3.17275429 25.16761589 C3.16957407 23.60512425 3.16760172 22.04262967 3.16686058 20.48013496 C3.16468937 18.29472987 3.15592787 16.10945032 3.14526367 13.92407227 C3.14145187 12.68069595 3.13764008 11.43731964 3.13371277 10.15626526 C3.02398775 7.56622643 2.76969512 5.45722052 2 3 C1.34 3 0.68 3 0 3 C0 2.01 0 1.02 0 0 Z " fill="#F9FAF9" transform="translate(432,298)"/>
<path d="M0 0 C8.72789275 -0.0697047 17.45568873 -0.1229147 26.18379974 -0.15543652 C30.23721697 -0.17105035 34.29044286 -0.19220961 38.34375 -0.22631836 C42.26005416 -0.25906561 46.17617501 -0.27688518 50.09260559 -0.28463173 C51.58204532 -0.29014781 53.07147573 -0.30091907 54.56083679 -0.31719017 C69.25133213 -0.47120727 69.25133213 -0.47120727 76 3 C78.58556955 5.82796669 79.21899727 8.26968878 79.5 12 C79.34227501 15.10776651 78.97816423 16.03313014 77.1875 18.75 C69.23482507 24.36365289 59.3788498 26.03178351 50 28 C50 28.66 50 29.32 50 30 C51.07378906 30.10957031 52.14757812 30.21914062 53.25390625 30.33203125 C54.6901678 30.49161587 56.12636233 30.65180442 57.5625 30.8125 C58.26697266 30.88275391 58.97144531 30.95300781 59.69726562 31.02539062 C68.75825222 32.06928309 77.72737202 36.10099024 83.9375 42.9375 C87.19357702 47.77228104 87.1840684 52.83715429 87.3125 58.5625 C87.36857422 60.20412109 87.36857422 60.20412109 87.42578125 61.87890625 C86.90183481 65.71957783 85.59792699 67.18206839 83 70 C81.99440224 71.350015 80.99396675 72.70389871 80 74.0625 C75.69418835 79.76421069 73.14798326 82.28304178 66 84 C62.65260315 84.24050903 62.65260315 84.24050903 59.14672852 84.22705078 C58.50197067 84.22734283 57.85721283 84.22763489 57.19291687 84.22793579 C55.08810374 84.22655626 52.98365658 84.21106128 50.87890625 84.1953125 C49.40917657 84.19157745 47.93944438 84.1887328 46.4697113 84.18673706 C42.62115477 84.1791393 38.77275171 84.15952447 34.92425537 84.1373291 C30.98923823 84.11678708 27.05419605 84.10771755 23.11914062 84.09765625 C15.41269082 84.0762745 7.706367 84.04218578 0 84 C0.875 79.25 0.875 79.25 2 77 C2.10220846 74.80539328 2.13843875 72.60761942 2.14526367 70.41064453 C2.14862228 69.73402771 2.1519809 69.05741089 2.15544128 68.36029053 C2.16495999 66.1177793 2.16689493 63.87534269 2.16796875 61.6328125 C2.17118099 60.07583587 2.17454504 58.51885954 2.17805481 56.96188354 C2.18404859 53.69512228 2.18589449 50.42838747 2.18530273 47.16162109 C2.18520117 42.97617776 2.19884672 38.79090427 2.21607494 34.60550117 C2.22719609 31.38845033 2.2292219 28.17144051 2.22869301 24.95437241 C2.22987321 23.41141042 2.23429723 21.86844738 2.24202538 20.3255043 C2.25182648 18.16626365 2.24894678 16.00739115 2.24291992 13.84814453 C2.24434494 12.61951691 2.24576996 11.39088928 2.24723816 10.12503052 C2.00794415 7.10041215 1.44921172 5.58918523 0 3 C0 2.01 0 1.02 0 0 Z " fill="#F7F7F7" transform="translate(197,171)"/>
<path d="M0 0 C8.91 0 17.82 0 27 0 C27.5775 2.0625 28.155 4.125 28.75 6.25 C30.0276702 10.78867606 31.41216493 15.24534235 33 19.6875 C35.82019647 27.91307304 37.32524648 36.48370018 39 45 C39.66 45 40.32 45 41 45 C41.09410156 43.72511719 41.18820312 42.45023437 41.28515625 41.13671875 C41.88825623 35.71305869 43.57709851 30.91655732 45.4375 25.8125 C48.07245066 18.31251451 49.91055223 11.35127324 50.7109375 3.421875 C51 1 51 1 52 0 C53.99964982 -0.08758003 56.0023611 -0.10696576 58.00390625 -0.09765625 C59.21884766 -0.09443359 60.43378906 -0.09121094 61.68554688 -0.08789062 C62.96494141 -0.07951172 64.24433594 -0.07113281 65.5625 -0.0625 C66.84576172 -0.05798828 68.12902344 -0.05347656 69.45117188 -0.04882812 C72.63416022 -0.03699545 75.81705762 -0.02051068 79 0 C78.83886719 0.87527344 78.67773438 1.75054687 78.51171875 2.65234375 C77.66972956 8.58799498 77.80855678 14.5798523 77.8125 20.5625 C77.8137085 22.45983887 77.8137085 22.45983887 77.81494141 24.39550781 C77.86195475 31.53231813 78.14971241 38.283742 79.43359375 45.3046875 C80.40629239 51.65070756 80.73631748 58.07186381 81.12646484 64.47753906 C81.56296765 70.58058746 82.66157206 75.35463991 85 81 C85 81.99 85 82.98 85 84 C75.76 84 66.52 84 57 84 C57.01160156 81.85757813 57.02320313 79.71515625 57.03515625 77.5078125 C57.04295188 75.43603666 57.04902576 73.36426245 57.05493164 71.29248047 C57.05996474 69.8510668 57.06679173 68.40965824 57.07543945 66.96826172 C57.08754983 64.89809915 57.09323847 62.82800399 57.09765625 60.7578125 C57.10551147 58.88826904 57.10551147 58.88826904 57.11352539 56.98095703 C57.20816587 54.07228894 57.20816587 54.07228894 56 52 C55.84479443 49.67726841 55.74980833 47.35040687 55.68359375 45.0234375 C55.66281265 44.33819 55.64203156 43.6529425 55.62062073 42.94692993 C55.55519815 40.75638931 55.49627446 38.56572811 55.4375 36.375 C55.39430782 34.8906125 55.3506933 33.40623722 55.30664062 31.921875 C55.19952447 28.28137916 55.09823638 24.64074749 55 21 C54.34 20.67 53.68 20.34 53 20 C52.95101562 20.81984375 52.90203125 21.6396875 52.8515625 22.484375 C52.77679688 23.56203125 52.70203125 24.6396875 52.625 25.75 C52.55539062 26.81734375 52.48578125 27.8846875 52.4140625 28.984375 C52.01743108 31.87304914 51.34718498 33.47466846 50 36 C49.59489988 37.67600244 49.24211569 39.36535547 48.9375 41.0625 C48.4336848 43.8314017 47.89262079 46.32213764 47 49 C46.34 49 45.68 49 45 49 C44.67 51.97 44.34 54.94 44 58 C43.34 58 42.68 58 42 58 C41.96261719 58.70125 41.92523438 59.4025 41.88671875 60.125 C41.51263392 65.52355748 40.86980385 70.14835752 38.765625 75.140625 C37.57807411 78.02467715 36.81465061 80.9920593 36 84 C32.37 84 28.74 84 25 84 C24.16288007 80.22997062 23.33014812 76.45906483 22.5 72.6875 C22.26152344 71.61564453 22.02304687 70.54378906 21.77734375 69.43945312 C21.55175781 68.41142578 21.32617188 67.38339844 21.09375 66.32421875 C20.88427734 65.37635498 20.67480469 64.42849121 20.45898438 63.4519043 C20 61 20 61 20 58 C19.34 58 18.68 58 18 58 C17.83918945 57.31599121 17.67837891 56.63198242 17.51269531 55.92724609 C13.14834571 37.36055916 13.14834571 37.36055916 8 19 C3.1851118 50.48813895 3.1851118 50.48813895 5 82 C5.66 82 6.32 82 7 82 C7 82.99 7 83.98 7 85 C2.05 85 -2.9 85 -8 85 C-7 79 -7 79 -5.50830078 75.28955078 C-3.60075193 70.39826252 -3.24594298 65.56991098 -2.8671875 60.3671875 C-2.78501984 59.37171906 -2.70285217 58.37625061 -2.61819458 57.35061646 C-2.35955975 54.19284406 -2.11667276 51.03411156 -1.875 47.875 C-1.62301753 44.7090787 -1.36776673 41.5434467 -1.11038208 38.37796021 C-0.9518202 36.41494855 -0.79691877 34.45163675 -0.64620972 32.48800659 C-0.2885947 27.93836313 0.19702194 23.49701397 1 19 C1.12987168 17.64013079 1.23815465 16.27787612 1.31640625 14.9140625 C1.35830078 14.21152344 1.40019531 13.50898438 1.44335938 12.78515625 C1.48267578 12.07230469 1.52199219 11.35945313 1.5625 10.625 C1.60568359 9.88894531 1.64886719 9.15289062 1.69335938 8.39453125 C1.79843799 6.59651932 1.89962093 4.79828042 2 3 C1.34 3 0.68 3 0 3 C0 2.01 0 1.02 0 0 Z " fill="#F4F4F4" transform="translate(342,298)"/>
<path d="M0 0 C0.80695313 -0.01160156 1.61390625 -0.02320313 2.4453125 -0.03515625 C5.98636835 -0.01762627 8.38729825 0.05557317 11.5625 1.7109375 C13 3.375 13 3.375 13 6.375 C12.13375 6.560625 11.2675 6.74625 10.375 6.9375 C3.9971746 9.65398119 1.18095288 15.04436847 -2.1875 20.875 C-5.88275922 26.85505119 -10.59834371 30.50258761 -17 33.375 C-18.32 33.375 -19.64 33.375 -21 33.375 C-19.61559812 36.14380376 -17.64497703 36.40681559 -14.8984375 37.5390625 C-3.74929374 42.44835625 0.51822683 51.66633845 5 62.375 C5.34417969 63.19226563 5.68835938 64.00953125 6.04296875 64.8515625 C7.41030743 68.27953834 8 70.63120722 8 74.375 C10.65228812 75.45025194 13.28368454 76.46956151 16 77.375 C15.61315581 79.79922357 15.31772078 81.07312356 13.51171875 82.7890625 C12.60873047 83.38847656 12.60873047 83.38847656 11.6875 84 C11.09324219 84.40476562 10.49898437 84.80953125 9.88671875 85.2265625 C5.91029236 87.64699596 3.29770309 88.6512702 -1.4375 88.625 C-2.36433594 88.63015625 -3.29117188 88.6353125 -4.24609375 88.640625 C-7.16054176 88.35951512 -9.34890497 87.58747903 -12 86.375 C-12 85.715 -12 85.055 -12 84.375 C-12.763125 84.21 -13.52625 84.045 -14.3125 83.875 C-18.24045478 81.68265315 -18.76664494 78.44859557 -20 74.375 C-20.25652344 73.69179687 -20.51304687 73.00859375 -20.77734375 72.3046875 C-23.18327302 65.81705734 -24.08758341 59.20935119 -25 52.375 C-25.20706405 50.93731662 -25.41509426 49.49977124 -25.625 48.0625 C-25.810625 46.7321875 -25.810625 46.7321875 -26 45.375 C-26.66 45.375 -27.32 45.375 -28 45.375 C-28.23460937 44.74078125 -28.46921875 44.1065625 -28.7109375 43.453125 C-29.82290908 41.19249261 -29.82290908 41.19249261 -32.1640625 40.546875 C-32.97617187 40.40765625 -33.78828125 40.2684375 -34.625 40.125 C-35.44226563 39.97546875 -36.25953125 39.8259375 -37.1015625 39.671875 C-37.72804688 39.57390625 -38.35453125 39.4759375 -39 39.375 C-38.90544602 44.15843229 -38.79914631 48.94141773 -38.68261719 53.72436523 C-38.64466804 55.34669112 -38.60976028 56.96909145 -38.578125 58.59155273 C-38.5317233 60.94281386 -38.47386692 63.29357707 -38.4140625 65.64453125 C-38.40251129 66.35333939 -38.39096008 67.06214752 -38.37905884 67.79243469 C-38.20421278 73.95126097 -37.13933039 79.10868288 -36 85.375 C-45.9 85.375 -55.8 85.375 -66 85.375 C-65.67 82.735 -65.34 80.095 -65 77.375 C-64.9150717 75.07090406 -64.87220707 72.76488858 -64.87060547 70.45922852 C-64.86745331 69.14749161 -64.86430115 67.8357547 -64.86105347 66.48426819 C-64.86284383 65.0741472 -64.86489492 63.66402651 -64.8671875 62.25390625 C-64.86651251 60.7847441 -64.86554086 59.31558206 -64.86428833 57.84642029 C-64.86282008 54.77772959 -64.86493741 51.70906814 -64.86962891 48.64038086 C-64.8753206 44.72917375 -64.87204516 40.81803537 -64.86605644 36.90683079 C-64.86242287 33.87574253 -64.86360229 30.84467024 -64.86618423 27.81358147 C-64.86684605 26.37244598 -64.8660515 24.93130898 -64.86370468 23.49017525 C-64.86113249 21.46683916 -64.86575497 19.44349792 -64.87060547 17.42016602 C-64.87140106 16.27403336 -64.87219666 15.1279007 -64.87301636 13.94703674 C-65.02249528 9.74221009 -65.53536126 5.55674867 -66 1.375 C-56.1 1.375 -46.2 1.375 -36 1.375 C-37 6.375 -37 6.375 -38 9.375 C-38.14777936 11.07367188 -38.24747066 12.77677489 -38.31640625 14.48046875 C-38.35830078 15.46337891 -38.40019531 16.44628906 -38.44335938 17.45898438 C-38.48267578 18.48314453 -38.52199219 19.50730469 -38.5625 20.5625 C-38.60568359 21.59826172 -38.64886719 22.63402344 -38.69335938 23.70117188 C-38.79944366 26.2589819 -38.90150146 28.81688845 -39 31.375 C-28.11682533 27.67224461 -24.13875036 21.15511104 -18.67578125 11.20703125 C-13.56999357 2.57836908 -9.81728775 -0.14114311 0 0 Z " fill="#F4F4F4" transform="translate(605,169.625)"/>
<path d="M0 0 C0.75410156 0.00322266 1.50820312 0.00644531 2.28515625 0.00976562 C3.06246094 0.01814453 3.83976562 0.02652344 4.640625 0.03515625 C5.43339844 0.03966797 6.22617188 0.04417969 7.04296875 0.04882812 C8.99222008 0.0605706 10.94143238 0.07850479 12.890625 0.09765625 C12.890625 0.75765625 12.890625 1.41765625 12.890625 2.09765625 C22.460625 2.09765625 32.030625 2.09765625 41.890625 2.09765625 C41.890625 8.86407961 41.890625 8.86407961 39.078125 12.78515625 C38.55605469 13.53152344 38.03398437 14.27789062 37.49609375 15.046875 C34.29246893 19.13909648 32.03681561 20.8111086 26.890625 22.09765625 C22.04527645 22.44375257 18.40988025 21.86126805 13.890625 20.09765625 C13.80425781 19.39898437 13.71789062 18.7003125 13.62890625 17.98046875 C13.48839844 17.07039063 13.34789062 16.1603125 13.203125 15.22265625 C13.07550781 14.31773437 12.94789063 13.4128125 12.81640625 12.48046875 C12.10371548 9.92229248 12.10371548 9.92229248 9.71484375 8.80078125 C6.52809073 8.00739876 3.67531035 7.76102874 0.390625 7.72265625 C-0.7128125 7.69429688 -1.81625 7.6659375 -2.953125 7.63671875 C-6.79389969 8.19762397 -8.42909607 9.32869162 -11.109375 12.09765625 C-11.62955958 15.73894829 -11.77239843 18.00164836 -9.84277344 21.19140625 C-3.38016809 28.29845168 10.1129691 29.36610677 19.16992188 31.59765625 C21.14720011 32.08766906 23.12045771 32.59186721 25.09375 33.09765625 C26.83640137 33.53078125 26.83640137 33.53078125 28.61425781 33.97265625 C33.95504738 35.80651306 37.90236463 38.54296633 41.140625 43.16015625 C41.62015625 43.83175781 42.0996875 44.50335938 42.59375 45.1953125 C46.69423811 51.21018512 46.43952125 55.90972918 45.890625 63.09765625 C43.14147111 72.41423331 36.80274179 78.84479863 28.890625 84.09765625 C28.00375 84.69578125 27.116875 85.29390625 26.203125 85.91015625 C17.58808074 90.3340979 6.13657622 88.99081403 -2.84277344 86.30712891 C-4.27446935 85.84628394 -5.70138021 85.37019644 -7.12207031 84.87646484 C-13.91366024 82.5670609 -19.36018143 82.28549226 -26.109375 85.09765625 C-28.296875 84.91015625 -28.296875 84.91015625 -30.109375 84.09765625 C-32.57874066 80.39360776 -32.78491182 77.3950471 -32.109375 73.09765625 C-29.57516912 68.46617655 -27.17839815 64.78733063 -22.109375 63.09765625 C-12.81224863 61.72594908 -6.65314343 66.33084361 0.890625 71.09765625 C1.77363281 71.61714844 2.65664062 72.13664062 3.56640625 72.671875 C5.38283744 73.74624727 7.14549696 74.91096919 8.890625 76.09765625 C8.890625 76.75765625 8.890625 77.41765625 8.890625 78.09765625 C10.540625 78.42765625 12.190625 78.75765625 13.890625 79.09765625 C13.890625 79.75765625 13.890625 80.41765625 13.890625 81.09765625 C21.7740797 81.1859117 21.7740797 81.1859117 28.640625 77.97265625 C30.48962422 73.71995805 30.61963643 70.17253495 29.078125 65.78515625 C27.83094508 63.79698147 27.83094508 63.79698147 24.890625 62.09765625 C24.890625 61.43765625 24.890625 60.77765625 24.890625 60.09765625 C23.92125 59.99453125 22.951875 59.89140625 21.953125 59.78515625 C19.16099634 59.38707058 16.66801671 58.73650143 14.015625 57.78515625 C9.56119224 56.21120574 5.05519868 55.18906702 0.453125 54.16015625 C-18.65305945 49.763162 -18.65305945 49.763162 -25.109375 41.09765625 C-29.17612221 34.33883695 -28.835801 27.77465834 -28.109375 20.09765625 C-26.47770018 13.86232748 -22.14937557 8.97609419 -17.109375 5.09765625 C-11.69867669 2.08155753 -6.24174973 -0.04728598 0 0 Z " fill="#F3F3F2" transform="translate(240.109375,295.90234375)"/>
<path d="M0 0 C7.26 0 14.52 0 22 0 C24.5973704 6.493426 26.18633309 10.5747785 27.33349609 17.00390625 C28.9225472 24.1470693 31.4992106 31.06501657 33.8125 38 C34.86586981 41.16497262 35.91450326 44.33143904 36.95703125 47.5 C37.21412872 48.28004395 37.4712262 49.06008789 37.7361145 49.86376953 C39.79779678 56.19871084 41.60990468 62.58829236 43.27339172 69.0390625 C44.41284898 73.3429926 45.94152232 77.02686531 48 81 C48.33 82.32 48.66 83.64 49 85 C38.44 85 27.88 85 17 85 C17.495 83.02 17.495 83.02 18 81 C18.09231291 79.00169711 18.13000107 77.00042773 18.125 75 C18.12757813 73.96875 18.13015625 72.9375 18.1328125 71.875 C18.01863671 69.40342991 17.71350656 67.3557042 17 65 C16.484375 65.32613281 15.96875 65.65226562 15.4375 65.98828125 C12.1946838 67.33425784 9.50122243 67.22829814 6 67.1875 C4.783125 67.18105469 3.56625 67.17460937 2.3125 67.16796875 C-0.36100637 67.0324018 -2.4569083 66.71628565 -5 66 C-8.58375742 65.66645597 -8.58375742 65.66645597 -12 66 C-14.10827055 69.16240582 -14.33817465 70.50657469 -14.625 74.1875 C-14.69976563 75.08855469 -14.77453125 75.98960937 -14.8515625 76.91796875 C-14.90054688 77.60503906 -14.94953125 78.29210937 -15 79 C-13.68 79.66 -12.36 80.32 -11 81 C-11 81.99 -11 82.98 -11 84 C-16.94 84 -22.88 84 -29 84 C-28.34 82.35 -27.68 80.7 -27 79 C-24.875 78.1875 -24.875 78.1875 -23 78 C-22.91105469 76.77152344 -22.82210937 75.54304688 -22.73046875 74.27734375 C-22.04306216 68.13387228 -20.18832314 62.43233165 -18.3125 56.5625 C-17.95236816 55.41305908 -17.59223633 54.26361816 -17.22119141 53.0793457 C-14.95560344 45.88487208 -12.59433618 38.72600443 -10.15844727 31.58764648 C-7.85748071 24.76352006 -5.90678011 17.84546948 -4.00341797 10.90112305 C-3.77025879 10.05976807 -3.53709961 9.21841309 -3.296875 8.3515625 C-3.09416992 7.60729004 -2.89146484 6.86301758 -2.68261719 6.09619141 C-2 4 -2 4 0 0 Z " fill="#F3F3F3" transform="translate(557,298)"/>
<path d="M0 0 C7.26 0 14.52 0 22 0 C25.93815154 9.18902027 28.78564005 18.55091311 30.41015625 28.42578125 C31.31598987 32.37905513 32.68239009 36.16748918 34 40 C37.27128602 49.63947558 40.40583104 59.2586445 43.125 69.0703125 C44.16066071 72.53792647 45.52582901 75.70066494 47 79 C47.33 80.65 47.66 82.3 48 84 C37.77 84 27.54 84 17 84 C17.33 80.37 17.66 76.74 18 73 C17.17913337 69.13664314 17.17913337 69.13664314 15 66 C13.66648898 66.3326218 12.33319871 66.66612863 11 67 C9.18934409 67.0917471 7.37547189 67.13002905 5.5625 67.125 C4.17224609 67.12886719 4.17224609 67.12886719 2.75390625 67.1328125 C0.06544581 67.00315625 -2.3718186 66.55579574 -5 66 C-8.62535976 65.7496423 -8.62535976 65.7496423 -12 66 C-14.3941161 68.3941161 -14.29598923 69.03786311 -14.3125 72.3125 C-14.24105304 76.3525009 -13.40936283 78.68712611 -11 82 C-11 82.66 -11 83.32 -11 84 C-17.27 84 -23.54 84 -30 84 C-28.76067035 81.5213407 -27.45164869 79.0747041 -26.03881836 76.69067383 C-24.05151055 73.23223534 -22.6755707 69.72861802 -21.37890625 65.94921875 C-21.1539447 65.29765808 -20.92898315 64.64609741 -20.69720459 63.97479248 C-19.97770905 61.88164102 -19.26953242 59.78489083 -18.5625 57.6875 C-18.06601961 56.23119426 -17.56951885 54.77489547 -17.07299805 53.31860352 C-14.39624707 45.41987157 -11.88713371 37.50760207 -9.79248047 29.43286133 C-7.14914269 19.43283689 -3.48284074 9.73121258 0 0 Z " fill="#F3F3F3" transform="translate(397,171)"/>
<path d="M0 0 C9.24 0 18.48 0 28 0 C27.67 1.32 27.34 2.64 27 4 C26.8833138 6.45463022 26.81525028 8.88349911 26.79467773 11.33886719 C26.77982834 12.43702003 26.77982834 12.43702003 26.76467896 13.55735779 C26.7331618 15.97049761 26.70834536 18.38365709 26.68359375 20.796875 C26.66301577 22.47268172 26.64201907 24.14848334 26.62062073 25.82427979 C26.56548726 30.23008087 26.51603958 34.63592812 26.46777344 39.04180908 C26.41749464 43.53963315 26.36184189 48.03739037 26.30664062 52.53515625 C26.19916577 61.35671579 26.09819394 70.17833227 26 79 C30.62 79 35.24 79 40 79 C40 78.34 40 77.68 40 77 C41.64333504 75.96210419 43.31243867 74.96432076 45 74 C47.34813734 72.06832602 47.34813734 72.06832602 47.375 68.625 C47.30644883 64.82726502 46.3136211 61.7995719 45 58.25 C42.8590434 52.12856451 41.61440362 46.43894788 43 40 C45.28307715 36.21068494 48.0040556 32.9979722 52 31 C53.70702735 30.93003986 55.41668003 30.91559846 57.125 30.9375 C58.03507812 30.94652344 58.94515625 30.95554688 59.8828125 30.96484375 C60.58148438 30.97644531 61.28015625 30.98804688 62 31 C62 31.66 62 32.32 62 33 C62.66 33 63.32 33 64 33 C63 36 63 36 61 37 C61.26050211 42.99154857 63.41268786 46.62718853 66.56640625 51.6640625 C70.29189246 57.73447328 70.97078588 64.00637929 70 71 C68.30172858 75.2807668 66.05513846 78.1764773 62.4375 81 C60 82 60 82 56 82 C56 82.66 56 83.32 56 84 C37.85 84 19.7 84 1 84 C1.33 82.02 1.66 80.04 2 78 C2.09368966 75.63881305 2.1379219 73.27538709 2.14526367 70.91235352 C2.14862228 70.2302179 2.1519809 69.54808228 2.15544128 68.84527588 C2.16488435 66.60646712 2.16689088 64.36773365 2.16796875 62.12890625 C2.17118542 60.56241323 2.17454979 58.9959205 2.17805481 57.4294281 C2.18402907 54.15208235 2.18589641 50.87476291 2.18530273 47.59741211 C2.18520109 43.41013756 2.19886362 39.22303247 2.21607494 35.03579807 C2.22722362 31.80233493 2.22922108 28.56891244 2.22869301 25.33543205 C2.2298684 23.79215853 2.23426529 22.24888381 2.24202538 20.70562935 C2.25188565 18.54264749 2.24892398 16.38002945 2.24291992 14.21704102 C2.24434494 12.98937515 2.24576996 11.76170929 2.24723816 10.49684143 C2.07493474 6.35145149 2.07493474 6.35145149 0 0 Z " fill="#F5F5F5" transform="translate(291,171)"/>
<path d="M0 0 C5.6169914 0.78933882 9.92637217 0.74279292 15.11328125 -1.5625 C16.10328125 -1.5625 17.09328125 -1.5625 18.11328125 -1.5625 C18.53808203 9.73720064 18.53808203 9.73720064 15.11328125 13.82421875 C9.82499484 17.86670692 6.34870495 19.58780422 -0.32421875 19.625 C-1.47792969 19.63917969 -2.63164063 19.65335938 -3.8203125 19.66796875 C-6.88671875 19.4375 -6.88671875 19.4375 -9.88671875 17.4375 C-10.2578125 15.4140625 -10.2578125 15.4140625 -10.32421875 13.0625 C-10.59397028 10.01675999 -10.8135474 8.56250106 -12.38671875 5.875 C-16.17231728 3.69828085 -19.62659488 3.80985744 -23.88671875 4.4375 C-26.42630109 5.32079643 -26.42630109 5.32079643 -27.88671875 7.4375 C-29.17514412 11.02817962 -29.17514412 11.02817962 -29.88671875 14.4375 C-30.54671875 14.4375 -31.20671875 14.4375 -31.88671875 14.4375 C-32.907163 21.81731603 -33.10714737 29.09305204 -33.12695312 36.53588867 C-33.13665082 38.73459844 -33.16774499 40.9323682 -33.19921875 43.13085938 C-33.29264006 55.47554376 -31.87447461 66.56939695 -23.3984375 76.11328125 C-21.06402563 78.15815367 -18.94263002 78.14920648 -15.88671875 78.4375 C-14.62859375 78.581875 -13.37046875 78.72625 -12.07421875 78.875 C-6.65341648 78.77095389 -2.72917114 76.09122683 1.11328125 72.4375 C4.97902746 67.08971168 5.73691883 61.37602121 5.51953125 54.890625 C4.96779667 51.55899695 3.46732261 49.79154136 1.11328125 47.4375 C1.11328125 46.4475 1.11328125 45.4575 1.11328125 44.4375 C4.61771169 43.81418233 7.62905651 43.62347725 11.11328125 44.4375 C15.19177903 48.04601464 16.78511258 52.42776634 17.6484375 57.71484375 C17.92935073 63.88773195 17.42628291 68.78780977 13.6484375 73.796875 C7.03033415 80.8696572 -2.17868573 84.46840741 -11.7890625 85.00390625 C-13.80059016 85.03166392 -15.81272082 85.02983461 -17.82421875 85 C-18.87746338 84.98831787 -19.93070801 84.97663574 -21.01586914 84.96459961 C-31.45869551 84.66775837 -38.85111273 82.51643949 -46.69921875 75.4375 C-52.14534899 69.52427465 -57.88671875 61.66575239 -57.88671875 53.4375 C-58.54671875 53.4375 -59.20671875 53.4375 -59.88671875 53.4375 C-60.03422385 49.35455891 -60.1215184 45.27231857 -60.19921875 41.1875 C-60.24111328 40.04796875 -60.28300781 38.9084375 -60.32617188 37.734375 C-60.48216182 26.75268273 -57.66208241 17.43060989 -49.94921875 9.4375 C-49.13582031 8.57125 -48.32242187 7.705 -47.484375 6.8125 C-34.75547035 -4.82535568 -15.96212803 -2.80652801 0 0 Z " fill="#F5F5F5" transform="translate(514.88671875,171.5625)"/>
<path d="M0 0 C153.78 0 307.56 0 466 0 C466 95.04 466 190.08 466 288 C450.49 288 434.98 288 419 288 C419.83815138 283.80924309 420.50669849 281.71926157 422.5625 278.1875 C423.01753906 277.39730469 423.47257812 276.60710937 423.94140625 275.79296875 C424.29074219 275.20128906 424.64007812 274.60960937 425 274 C425.6875 275.5625 425.6875 275.5625 426 278 C424.515 281.465 424.515 281.465 423 285 C436.53 285.66 450.06 286.32 464 287 C464 192.95 464 98.9 464 2 C462.68 2.66 461.36 3.32 460 4 C460 3.34 460 2.68 460 2 C309.19 2.33 158.38 2.66 3 3 C2.67 96.39 2.34 189.78 2 286 C9.59 286 17.18 286 25 286 C29.48808975 286.13097083 33.95603909 286.27547183 38.4375 286.5 C39.47841797 286.54769531 40.51933594 286.59539062 41.59179688 286.64453125 C44.06146069 286.75834064 46.53079601 286.87668738 49 287 C49 287.33 49 287.66 49 288 C32.83 288 16.66 288 0 288 C0 192.96 0 97.92 0 0 Z " fill="#482B1B" transform="translate(178,143)"/>
<path d="M0 0 C9.57 0 19.14 0 29 0 C28 4 28 4 27 6 C26.89772466 8.21993392 26.86155786 10.44300502 26.85473633 12.6652832 C26.85137772 13.3500473 26.8480191 14.0348114 26.84455872 14.74032593 C26.83503825 17.01049603 26.83310487 19.28059241 26.83203125 21.55078125 C26.82881876 23.1277825 26.82545469 24.70478344 26.82194519 26.28178406 C26.81595071 29.59142752 26.81410555 32.90104485 26.81469727 36.21069336 C26.81479875 40.44760354 26.80116189 44.68434563 26.78392506 48.92121601 C26.77279338 52.18034125 26.77077844 55.43942605 26.77130699 58.69856834 C26.77012805 60.26024135 26.76571105 61.82191543 26.75797462 63.38356972 C26.74815379 65.5713429 26.75106119 67.75875392 26.75708008 69.9465332 C26.75565506 71.19070511 26.75423004 72.43487701 26.75276184 73.7167511 C26.99509076 76.93480672 27.71786589 79.07507507 29 82 C29 82.99 29 83.98 29 85 C19.1 85 9.2 85 -1 85 C-0.01 82.03 0.98 79.06 2 76 C2.43594696 72.29317742 2.43594696 72.29317742 2.37231445 68.60009766 C2.37596512 67.92085236 2.37961578 67.24160706 2.38337708 66.54177856 C2.39137936 64.33227283 2.37796912 62.12352426 2.36328125 59.9140625 C2.36276176 58.36469524 2.3632829 56.81532731 2.36479187 55.26596069 C2.36470263 52.03674337 2.35436673 48.80777825 2.33618164 45.57861328 C2.31338142 41.4391976 2.31297611 37.30014595 2.31969929 33.16068459 C2.32303713 29.96939858 2.31641458 26.77819574 2.30657005 23.58692551 C2.30272314 22.0598939 2.30156773 20.53285304 2.3031559 19.00581741 C2.30352628 16.87820949 2.29091839 14.75107239 2.2746582 12.62353516 C2.27005081 11.41380035 2.26544342 10.20406555 2.26069641 8.95767212 C2.22173456 5.8131411 2.22173456 5.8131411 0 3 C0 2.01 0 1.02 0 0 Z " fill="#F7F7F7" transform="translate(293,298)"/>
<path d="M0 0 C3.69806227 2.7319732 6.76572745 6.23067364 8.82421875 10.34765625 C8.92247074 13.19118446 8.96322358 16.00467667 8.94921875 18.84765625 C8.95501953 20.02521484 8.95501953 20.02521484 8.9609375 21.2265625 C8.95087269 27.09434838 8.95087269 27.09434838 7.82421875 29.34765625 C6.83421875 29.34765625 5.84421875 29.34765625 4.82421875 29.34765625 C4.70046875 30.52328125 4.70046875 30.52328125 4.57421875 31.72265625 C3.82421875 34.34765625 3.82421875 34.34765625 1.82421875 35.47265625 C1.16421875 35.76140625 0.50421875 36.05015625 -0.17578125 36.34765625 C-0.50578125 37.33765625 -0.83578125 38.32765625 -1.17578125 39.34765625 C-6.3765951 41.36907939 -11.0852006 41.6041568 -16.61328125 41.47265625 C-17.34482422 41.46363281 -18.07636719 41.45460938 -18.83007812 41.4453125 C-20.61212423 41.42201778 -22.39399884 41.38615815 -24.17578125 41.34765625 C-24.27459055 35.70602548 -24.34722121 30.06489726 -24.39550781 24.42260742 C-24.41563473 22.50292184 -24.44293915 20.58329763 -24.47753906 18.66381836 C-24.52601055 15.90593329 -24.54873867 13.14885798 -24.56640625 10.390625 C-24.58705139 9.53115768 -24.60769653 8.67169037 -24.62896729 7.78617859 C-24.63121419 1.83207978 -24.63121419 1.83207978 -22.2734375 -0.67578125 C-15.13742345 -3.99794794 -6.86070619 -3.88263089 0 0 Z " fill="#0C0E0D" transform="translate(483.17578125,336.65234375)"/>
<path d="M0 0 C73.26 0 146.52 0 222 0 C222 97.02 222 194.04 222 294 C204.84 294.33 187.68 294.66 170 295 C169.01 296.65 168.02 298.3 167 300 C166.67 298.68 166.34 297.36 166 296 C166.66 296 167.32 296 168 296 C168.33 294.02 168.66 292.04 169 290 C169.66 290 170.32 290 171 290 C171.33 288.02 171.66 286.04 172 284 C172.66 284 173.32 284 174 284 C174.08636719 283.37351562 174.17273438 282.74703125 174.26171875 282.1015625 C174.68626709 279.63217125 175.14272416 277.35643158 176 275 C178.625 273.4375 178.625 273.4375 181 273 C179.50032855 277.2263468 177.37408499 280.95891086 175.12109375 284.81640625 C173.78535805 287.21443941 173.78535805 287.21443941 173 291 C188.51 291 204.02 291 220 291 C220 195.96 220 100.92 220 3 C159.94 3 99.88 3 38 3 C38 2.67 38 2.34 38 2 C25.46 1.67 12.92 1.34 0 1 C0 0.67 0 0.34 0 0 Z " fill="#C35430" transform="translate(424,140)"/>
<path d="M0 0 C4.50133803 2.38648525 7.97809593 5.70069163 9.5625 10.5859375 C9.68625 11.42125 9.68625 11.42125 9.8125 12.2734375 C10.4725 12.2734375 11.1325 12.2734375 11.8125 12.2734375 C11.8934313 14.87822633 11.95295434 17.48050403 12 20.0859375 C12.02513672 20.82392578 12.05027344 21.56191406 12.07617188 22.32226562 C12.15077602 27.81810409 12.15077602 27.81810409 10.48046875 30.06640625 C9.93003906 30.46472656 9.37960938 30.86304688 8.8125 31.2734375 C7.84698411 32.43416699 6.88879792 33.60102709 5.9375 34.7734375 C2.37645948 38.91052869 -0.34000834 40.92305115 -5.8125 41.9609375 C-10.92553164 42.32615405 -16.0614415 42.2734375 -21.1875 42.2734375 C-21.1875 29.0734375 -21.1875 15.8734375 -21.1875 2.2734375 C-13.99562301 -0.8087955 -7.65243429 -2.54170139 0 0 Z " fill="#101111" transform="translate(244.1875,207.7265625)"/>
<path d="M0 0 C144.6427776 -0.07991314 144.6427776 -0.07991314 181.47265625 -0.06640625 C182.15447138 -0.06617144 182.83628652 -0.06593664 183.53876272 -0.06569472 C240.88093119 -0.04588254 298.22133814 0.14997564 355.5625 0.5 C356.54408238 0.50597372 357.52566477 0.51194743 358.53699207 0.51810217 C382.69142182 0.66535539 406.84576009 0.82428684 431 1 C431 1.33 431 1.66 431 2 C345.80068416 2.90965849 260.59902117 3.11893172 153.32916129 3.17830308 C140.99950429 3.18367609 128.66986046 3.19444682 116.34020996 3.20800781 C102.11011543 3.22356968 87.88003825 3.23152188 73.64993489 3.22964984 C66.24014494 3.22882562 58.83038773 3.23110444 51.42060471 3.24188805 C44.55151299 3.25185227 37.68248801 3.25174501 30.81339312 3.24447727 C28.30029721 3.24344765 25.78719731 3.2458555 23.27410841 3.25187778 C19.86707669 3.25951761 16.4602793 3.25500539 13.05325317 3.24723816 C12.05229185 3.25238156 11.05133054 3.25752497 10.02003706 3.26282424 C9.11555818 3.2582256 8.2110793 3.25362696 7.27919197 3.24888897 C6.49528528 3.24910634 5.7113786 3.24932371 4.90371716 3.24954766 C3 3 3 3 1 1 C1 97.36 1 193.72 1 293 C0.67 293 0.34 293 0 293 C0 196.31 0 99.62 0 0 Z " fill="#D17D2C" transform="translate(175,140)"/>
<path d="M0 0 C121.77 0 243.54 0 369 0 C369 0.99 369 1.98 369 3 C368.34 3 367.68 3 367 3 C366.67 3.99 366.34 4.98 366 6 C365.01 5.01 364.02 4.02 363 3 C362.5875 3.515625 362.175 4.03125 361.75 4.5625 C360 6 360 6 357.875 5.8125 C356 5 356 5 355 3 C237.52 3 120.04 3 -1 3 C-0.67 2.01 -0.34 1.02 0 0 Z " fill="#95552E" transform="translate(240,407)"/>
<path d="M0 0 C2.875 1.9375 2.875 1.9375 5 4 C5.99 4.33 6.98 4.66 8 5 C9.98387006 9.38539698 10.42632713 13.22513616 10 18 C8.20295753 22.44981945 6.34896529 25.57921304 2.23046875 28.0703125 C-0.4231989 29.17639464 -2.38691733 29.20034428 -5.25 29.125 C-6.14203125 29.10695313 -7.0340625 29.08890625 -7.953125 29.0703125 C-8.62859375 29.04710937 -9.3040625 29.02390625 -10 29 C-10 28.01 -10 27.02 -10 26 C-10.5775 25.95875 -11.155 25.9175 -11.75 25.875 C-14.41510347 24.83857087 -15.75110213 23.52370938 -17.21484375 21.0703125 C-18.98845988 16.39361325 -19.16384618 11.84289327 -18 7 C-13.62588686 1.01067536 -7.28233124 -1.84183475 0 0 Z " fill="#E68633" transform="translate(379,424)"/>
<path d="M0 0 C3.78346082 2.73011093 4.1191979 6.83212736 5 11.125 C5.33806069 12.66604461 5.6791812 14.20642134 6.0234375 15.74609375 C6.18811523 16.48327637 6.35279297 17.22045898 6.52246094 17.97998047 C7.41320297 21.74787393 8.65864491 25.37278534 10 29 C12.55614407 35.99576271 12.55614407 35.99576271 12 40 C8.29264337 42.47157109 6.38852255 42.22699255 2 42 C1.22011719 41.83242187 0.44023437 41.66484375 -0.36328125 41.4921875 C-3.23960309 40.95527409 -5.88926441 40.90228029 -8.8125 40.9375 C-9.78832031 40.94652344 -10.76414062 40.95554688 -11.76953125 40.96484375 C-12.50558594 40.97644531 -13.24164063 40.98804688 -14 41 C-13.68546875 39.93523437 -13.3709375 38.87046875 -13.046875 37.7734375 C-12.84191406 37.07806885 -12.63695312 36.3827002 -12.42578125 35.66625977 C-11.97113383 34.12476192 -11.51538498 32.58358854 -11.05859375 31.04272461 C-9.98442449 27.40652665 -8.9258233 23.77025265 -7.953125 20.10546875 C-6.0193474 12.91720528 -3.65274592 6.49709726 0 0 Z " fill="#171817" transform="translate(399,187)"/>
<path d="M0 0 C0.99 0 1.98 0 3 0 C4.75331138 6.07949301 6.49190211 12.16300922 8.21728516 18.25048828 C8.91146053 20.68897956 9.61665027 23.12396717 10.32421875 25.55859375 C10.69606911 26.87218189 11.06721745 28.18596906 11.4375 29.5 C11.76621094 30.6446875 12.09492187 31.789375 12.43359375 32.96875 C13.00950328 36.05085894 12.85334802 38.0104932 12 41 C7.08497242 42.29235715 2.22709898 42.11135517 -2.8125 42.0625 C-4.13797852 42.05573242 -4.13797852 42.05573242 -5.49023438 42.04882812 C-7.66018559 42.03709866 -9.83010172 42.01916495 -12 42 C-11.34 38.7 -10.68 35.4 -10 32 C-9.34 32 -8.68 32 -8 32 C-7.89042969 31.31035156 -7.78085937 30.62070312 -7.66796875 29.91015625 C-6.76333353 24.54853777 -5.62087045 19.53241708 -3.796875 14.4140625 C-2.23821836 9.69224974 -1.15326806 4.83391079 0 0 Z " fill="#121413" transform="translate(558,314)"/>
<path d="M0 0 C1.48831242 0.00667405 2.97660807 0.01863442 4.46484375 0.03515625 C5.22345703 0.03966797 5.98207031 0.04417969 6.76367188 0.04882812 C8.64326246 0.06064945 10.52281274 0.07858547 12.40234375 0.09765625 C12.40234375 2.07765625 12.40234375 4.05765625 12.40234375 6.09765625 C5.65234375 8.22265625 5.65234375 8.22265625 3.40234375 7.09765625 C3.40234375 8.41765625 3.40234375 9.73765625 3.40234375 11.09765625 C6.37234375 11.42765625 9.34234375 11.75765625 12.40234375 12.09765625 C12.58984375 14.47265625 12.58984375 14.47265625 12.40234375 17.09765625 C9.48469375 19.04275625 7.7769709 19.55041942 4.40234375 20.09765625 C7.50775301 21.30847476 7.50775301 21.30847476 11.40234375 21.09765625 C12.74398454 21.39579865 14.08085548 21.72008817 15.40234375 22.09765625 C15.40234375 25.2230088 14.90494311 26.44601032 13.40234375 29.09765625 C11.41449476 31.08550524 7.67533968 30.32763412 4.96484375 30.34765625 C4.27068359 30.36828125 3.57652344 30.38890625 2.86132812 30.41015625 C0.84375 30.42578125 0.84375 30.42578125 -2.59765625 30.09765625 C-4.91582272 26.62040654 -4.84391374 25.25308082 -4.828125 21.15234375 C-4.82619141 19.99347656 -4.82425781 18.83460938 -4.82226562 17.640625 C-4.81001953 16.43019531 -4.79777344 15.21976562 -4.78515625 13.97265625 C-4.78451172 12.75449219 -4.78386719 11.53632813 -4.78320312 10.28125 C-4.73226937 0.12845465 -4.73226937 0.12845465 0 0 Z " fill="#E7A448" transform="translate(251.59765625,422.90234375)"/>
<path d="M0 0 C16.46153846 0 16.46153846 0 20 1 C22.53432351 3.77191634 23.01560862 5.25078636 22.9375 9 C20.95603528 15.3406871 16.37974903 18.40735259 11 21.75 C10.38382812 22.14832031 9.76765625 22.54664063 9.1328125 22.95703125 C6.02338978 24.92544263 3.61008179 26.09747955 0 27 C0 18.09 0 9.18 0 0 Z " fill="#0A0B0B" transform="translate(459,303)"/>
<path d="M0 0 C2.371875 -0.04125 4.74375 -0.0825 7.1875 -0.125 C7.92508545 -0.14320801 8.6626709 -0.16141602 9.42260742 -0.18017578 C15.0415032 -0.22722123 18.38433319 0.92288879 23 4 C24.07665075 8.80351875 24.07665075 8.80351875 23 12 C19.64513524 15.62975126 15.64240158 19.37584652 10.734375 20.53515625 C10.16203125 20.68855469 9.5896875 20.84195313 9 21 C8.67 21.99 8.34 22.98 8 24 C6.67696283 24.3721042 5.34262065 24.70630173 4 25 C3.67 25.66 3.34 26.32 3 27 C2.01 27 1.02 27 0 27 C0 18.09 0 9.18 0 0 Z " fill="#171918" transform="translate(223,176)"/>
<path d="M0 0 C13 0 13 0 16.8125 1.4375 C19.58706251 4.6877018 19.79784013 6.74934331 19.54296875 10.9375 C19 13 19 13 16.5 15.0625 C15.675 15.371875 14.85 15.68125 14 16 C15.20381448 18.49361571 16.45428722 20.68143083 18 23 C18 24.32 18 25.64 18 27 C16.15625 26.75 16.15625 26.75 14 26 C12.53916206 24.02956743 11.48882871 21.97886513 10.34375 19.8125 C8.95556101 17.53918169 8.95556101 17.53918169 5 17 C5 20.3 5 23.6 5 27 C3.35 27 1.7 27 0 27 C0 18.09 0 9.18 0 0 Z " fill="#F2D6B4" transform="translate(332,424)"/>
<path d="M0 0 C0.33 0 0.66 0 1 0 C1 94.71 1 189.42 1 287 C-14.18 287 -29.36 287 -45 287 C-44.16184862 282.80924309 -43.49330151 280.71926157 -41.4375 277.1875 C-40.98246094 276.39730469 -40.52742187 275.60710937 -40.05859375 274.79296875 C-39.70925781 274.20128906 -39.35992188 273.60960937 -39 273 C-38.3125 274.5625 -38.3125 274.5625 -38 277 C-38.99 279.31 -39.98 281.62 -41 284 C-27.47 284.66 -13.94 285.32 0 286 C0 191.62 0 97.24 0 0 Z " fill="#361B16" transform="translate(642,144)"/>
<path d="M0 0 C13 0 13 0 18 4 C18.59375 6.25390625 18.59375 6.25390625 18.5 8.5625 C18.4896875 9.32691406 18.479375 10.09132813 18.46875 10.87890625 C17.90397434 13.43451613 16.8952805 14.26731729 15 16 C15.13034494 17.87053397 15.13034494 17.87053397 16 20 C16.350625 21.2375 16.70125 22.475 17.0625 23.75 C17.5265625 25.35875 17.5265625 25.35875 18 27 C16.1875 26.8125 16.1875 26.8125 14 26 C11 21.82142857 11 21.82142857 11 19 C10.34 19 9.68 19 9 19 C9 18.01 9 17.02 9 16 C7.35 16 5.7 16 4 16 C4 19.63 4 23.26 4 27 C2.68 27 1.36 27 0 27 C0 18.09 0 9.18 0 0 Z " fill="#EDD0BA" transform="translate(474,424)"/>
<path d="M0 0 C7.26 0 14.52 0 22 0 C25.375 7.875 25.375 7.875 26 12 C26.48198463 10.75108386 26.96045677 9.50081192 27.4375 8.25 C27.70433594 7.55390625 27.97117187 6.8578125 28.24609375 6.140625 C28.96146693 4.10940997 29.51365652 2.0964709 30 0 C31.98 0 33.96 0 36 0 C36 6.27 36 12.54 36 19 C35.01 19 34.02 19 33 19 C32.505 13.06 32.505 13.06 32 7 C31.525625 8.60875 31.05125 10.2175 30.5625 11.875 C29.125 16.75 29.125 16.75 28 19 C27.01 19 26.02 19 25 19 C23.68 15.7 22.36 12.4 21 9 C20.67 12.3 20.34 15.6 20 19 C18.68 19 17.36 19 16 19 C16 13.72 16 8.44 16 3 C14.02 3 12.04 3 10 3 C10 8.28 10 13.56 10 19 C8.68 19 7.36 19 6 19 C6 13.72 6 8.44 6 3 C4.02 3 2.04 3 0 3 C0 2.01 0 1.02 0 0 Z " fill="#6F6C6D" transform="translate(654,139)"/>
<path d="M0 0 C5 0 5 0 6.73046875 1.57421875 C7.21128906 2.27160156 7.69210937 2.96898437 8.1875 3.6875 C8.94546875 4.78384766 8.94546875 4.78384766 9.71875 5.90234375 C11.11747524 8.19232989 12.08972543 10.47923966 13 13 C13.99387334 14.33790641 14.9926892 15.67218122 16 17 C16 17.66 16 18.32 16 19 C16.66 19 17.32 19 18 19 C18 12.73 18 6.46 18 0 C18.99 0 19.98 0 21 0 C21 8.58 21 17.16 21 26 C17 25 17 25 15.21875 22.63671875 C14.6515625 21.66347656 14.084375 20.69023437 13.5 19.6875 C11.18973878 15.75480533 9.30991041 13.30991041 6 10 C5.67 15.28 5.34 20.56 5 26 C3.35 26 1.7 26 0 26 C0 17.42 0 8.84 0 0 Z " fill="#F3CE9D" transform="translate(274,425)"/>
<path d="M0 0 C5 1 5 1 6.4855957 2.42700195 C6.87835693 3.02472412 7.27111816 3.62244629 7.67578125 4.23828125 C8.32836914 5.22151367 8.32836914 5.22151367 8.99414062 6.22460938 C9.42919922 6.91361328 9.86425781 7.60261719 10.3125 8.3125 C10.76689453 8.98990234 11.22128906 9.66730469 11.68945312 10.36523438 C15 15.45800047 15 15.45800047 15 20 C15.99 20 16.98 20 18 20 C18 13.4 18 6.8 18 0 C18.99 0 19.98 0 21 0 C21 8.91 21 17.82 21 27 C19.68 27 18.36 27 17 27 C15.53613281 25.47119141 15.53613281 25.47119141 14.203125 23.3515625 C13.71972656 22.59359375 13.23632812 21.835625 12.73828125 21.0546875 C12.24714844 20.25289063 11.75601563 19.45109375 11.25 18.625 C10.74339844 17.8309375 10.23679687 17.036875 9.71484375 16.21875 C6 10.311047 6 10.311047 6 8 C5.34 8 4.68 8 4 8 C4 14.27 4 20.54 4 27 C2.68 27 1.36 27 0 27 C0 18.09 0 9.18 0 0 Z " fill="#F2D3C3" transform="translate(519,424)"/>
<path d="M0 0 C2.8689372 1.40012589 4.59389858 2.79867317 7 5 C7 5.99 7 6.98 7 8 C2.30731707 7.36585366 2.30731707 7.36585366 0.6875 5.4375 C-1.69303038 3.40964079 -3.95038304 3.45905755 -6.9921875 3.59375 C-10.61888598 4.3275567 -11.996799 5.99519849 -14 9 C-14.69677178 11.83277708 -14.73679406 14.17276698 -14 17 C-11.70800597 19.96050874 -11.70800597 19.96050874 -9 22 C-8.67 22.33 -8.34 22.66 -8 23 C-2.96987192 23.49767024 -2.96987192 23.49767024 1.375 21.25 C3.29014897 18.89167772 3.29014897 18.89167772 4 15 C0.37 15 -3.26 15 -7 15 C-7 14.01 -7 13.02 -7 12 C-2.05 12 2.9 12 8 12 C8 18.22447215 7.68124651 19.39844187 4 24 C0.97745507 26.73837404 -0.93656898 27.39302531 -5 27.3125 C-5.845625 27.30863281 -6.69125 27.30476563 -7.5625 27.30078125 C-11.53791999 26.81022462 -13.50999805 25.51722428 -16.25 22.625 C-19.153195 17.84119286 -19.28133896 12.33179378 -18 7 C-13.63277104 1.02010164 -7.26161441 -1.91095116 0 0 Z " fill="#F6E4CB" transform="translate(379,424)"/>
<path d="M0 0 C13.92857143 -0.9375 13.92857143 -0.9375 18.875 2.6875 C22.08856417 6.07383644 22.59641377 8.95617404 22.8125 13.5625 C22.55970092 17.55672552 22.22616441 20.54418213 19.75 23.75 C13.63786684 28.75083622 8.39899865 27 0 27 C0 18.09 0 9.18 0 0 Z M4 4 C4 10.6 4 17.2 4 24 C13.34636444 25.025053 13.34636444 25.025053 17.125 21.5625 C19.74599104 17.64960203 19.80221941 13.53728397 19 9 C17.27310955 5.71068486 16.5579199 5.1859733 13 4 C10.03 4 7.06 4 4 4 Z " fill="#F5E3CF" transform="translate(442,424)"/>
<path d="M0 0 C4.95 0 9.9 0 15 0 C15 1.32 15 2.64 15 4 C11.37 4 7.74 4 4 4 C4 6.64 4 9.28 4 12 C6.97 12 9.94 12 13 12 C13 12.99 13 13.98 13 15 C10.03 15 7.06 15 4 15 C4 17.97 4 20.94 4 24 C7.63 24 11.26 24 15 24 C15 24.99 15 25.98 15 27 C10.05 27 5.1 27 0 27 C0 18.09 0 9.18 0 0 Z " fill="#F4DFB5" transform="translate(249,424)"/>
<path d="M0 0 C4.62 0 9.24 0 14 0 C14 0.99 14 1.98 14 3 C10.7 3 7.4 3 4 3 C4 5.97 4 8.94 4 12 C7.3 12 10.6 12 14 12 C14 12.99 14 13.98 14 15 C10.7 15 7.4 15 4 15 C4 17.97 4 20.94 4 24 C7.63 24 11.26 24 15 24 C15 24.99 15 25.98 15 27 C10.05 27 5.1 27 0 27 C0 18.09 0 9.18 0 0 Z " fill="#F5E2C5" transform="translate(307,424)"/>
<path d="M0 0 C0 2 0 2 -2.1875 4.3125 C-4.05285578 6.09495108 -5.94895467 7.84580742 -7.875 9.5625 C-10.2279736 11.6958745 -10.2279736 11.6958745 -9.91796875 13.86328125 C-8.65556065 16.80173755 -6.76403478 18.4477421 -4.4375 20.625 C-2.92337393 22.04700295 -1.43506852 23.49825153 0 25 C0 25.66 0 26.32 0 27 C-2.23828125 27.30859375 -2.23828125 27.30859375 -5 27 C-7.16796875 24.84765625 -7.16796875 24.84765625 -9.1875 22.0625 C-11.61614921 18.47282862 -11.61614921 18.47282862 -15 16 C-15 19.63 -15 23.26 -15 27 C-15.99 27 -16.98 27 -18 27 C-18 18.42 -18 9.84 -18 1 C-17.01 1 -16.02 1 -15 1 C-15 4.3 -15 7.6 -15 11 C-11.16960592 9.72320197 -11.01242585 8.40564374 -9 5 C-4.66666667 0 -4.66666667 0 0 0 Z " fill="#F4DED0" transform="translate(570,424)"/>
<path d="M0 0 C1.65 0.33 3.3 0.66 5 1 C5 10.9 5 20.8 5 31 C3.35 31 1.7 31 0 31 C-1.82595254 29.17404746 -1.130419 26.2987678 -1.1328125 23.84765625 C-1.13410156 22.59662109 -1.13539063 21.34558594 -1.13671875 20.05664062 C-1.13285156 18.73857422 -1.12898438 17.42050781 -1.125 16.0625 C-1.12886719 14.74830078 -1.13273437 13.43410156 -1.13671875 12.08007812 C-1.13542969 10.82775391 -1.13414062 9.57542969 -1.1328125 8.28515625 C-1.13168457 7.12894775 -1.13055664 5.97273926 -1.12939453 4.78149414 C-1 2 -1 2 0 0 Z " fill="#E6A784" transform="translate(503,422)"/>
<path d="M0 0 C2.25 -0.0625 2.25 -0.0625 5 1 C6.2442911 3.26669812 7.13753977 5.53506698 8.0078125 7.96875 C8.33523438 8.6390625 8.66265625 9.309375 9 10 C9.99 10.33 10.98 10.66 12 11 C12.99 7.7 13.98 4.4 15 1 C16.65 0.67 18.3 0.34 20 0 C19.39301257 4.12751449 17.96189209 7.3321148 16 11 C15.34 11 14.68 11 14 11 C13.34 16.28 12.68 21.56 12 27 C10.68 27 9.36 27 8 27 C7.67 22.38 7.34 17.76 7 13 C6.34 13 5.68 13 5 13 C4.15930585 11.39967863 3.32768495 9.79458829 2.5 8.1875 C1.80390625 6.84751953 1.80390625 6.84751953 1.09375 5.48046875 C0 3 0 3 0 0 Z " fill="#F6E4CF" transform="translate(396,424)"/>
<path d="M0 0 C2.21463013 -0.36076355 2.21463013 -0.36076355 5.00048828 -0.34057617 C6.56188034 -0.34023628 6.56188034 -0.34023628 8.15481567 -0.33988953 C9.28192963 -0.32440567 10.40904358 -0.30892181 11.5703125 -0.29296875 C13.29735916 -0.28660149 13.29735916 -0.28660149 15.05929565 -0.28010559 C18.74809855 -0.26327052 22.43636136 -0.22560874 26.125 -0.1875 C28.62108588 -0.17245944 31.11718029 -0.15876995 33.61328125 -0.14648438 C39.74237275 -0.1133512 45.8711478 -0.06310389 52 0 C51.07834209 1.7711287 50.14671354 3.53707113 49.2109375 5.30078125 C48.69321777 6.28473877 48.17549805 7.26869629 47.64208984 8.2824707 C45.51896189 11.79608016 43.35111667 13.68613373 40 16 C41.2272794 11.49997553 42.61863134 9.16321584 46 6 C46.33 5.01 46.66 4.02 47 3 C30.83 3 14.66 3 -2 3 C-1.34 2.01 -0.68 1.02 0 0 Z " fill="#D49036" transform="translate(178,431)"/>
<path d="M0 0 C3.66891871 0.01050372 7.33784528 0.0148535 11.0067749 0.01983643 C18.11812089 0.03034392 25.22943701 0.04724944 32.34075928 0.06866455 C31.68075928 1.71866455 31.02075928 3.36866455 30.34075928 5.06866455 C29.35075928 4.07866455 28.36075928 3.08866455 27.34075928 2.06866455 C26.92825928 2.58428955 26.51575928 3.09991455 26.09075928 3.63116455 C24.34075928 5.06866455 24.34075928 5.06866455 22.21575928 4.88116455 C20.34075928 4.06866455 20.34075928 4.06866455 19.34075928 2.06866455 C-7.05924072 2.06866455 -33.45924072 2.06866455 -60.65924072 2.06866455 C-60.65924072 1.73866455 -60.65924072 1.40866455 -60.65924072 1.06866455 C-40.42722798 0.20433166 -20.24711068 -0.0644683 0 0 Z " fill="#CA582F" transform="translate(575.6592407226563,407.93133544921875)"/>
<path d="M0 0 C8.77972757 -0.04637541 17.55941285 -0.08189564 26.33923626 -0.10362434 C30.41622436 -0.11405392 34.49312855 -0.12819802 38.57006836 -0.15087891 C42.50579972 -0.17263677 46.44145045 -0.18457484 50.37723732 -0.18975449 C51.87751344 -0.19344496 53.37778524 -0.20065155 54.87802696 -0.21146011 C56.98217624 -0.22601431 59.08599389 -0.22797632 61.19018555 -0.22705078 C62.38709518 -0.231492 63.58400482 -0.23593323 64.81718445 -0.24050903 C67.96227666 -0.00285056 70.16831492 0.65430023 73 2 C73 2.33 73 2.66 73 3 C48.91 3 24.82 3 0 3 C0 2.01 0 1.02 0 0 Z " fill="#BFBFBF" transform="translate(432,298)"/>
<path d="M0 0 C0.33 0 0.66 0 1 0 C1 8.58 1 17.16 1 26 C2.32 26 3.64 26 5 26 C5 19.73 5 13.46 5 7 C5.66 7 6.32 7 7 7 C8.66264064 9.26213629 10.18907401 11.50808909 11.6875 13.875 C12.33041992 14.85146484 12.33041992 14.85146484 12.98632812 15.84765625 C14.05910893 17.52333642 15.03745881 19.25865651 16 21 C15.67 21.66 15.34 22.32 15 23 C14.01 22.34 13.02 21.68 12 21 C12 20.01 12 19.02 12 18 C11.01 18 10.02 18 9 18 C9.25561323 20.3431213 9.59270772 22.67843403 10 25 C10.66 25.33 11.32 25.66 12 26 C7.76446141 28.82369239 5.87293746 28 0 28 C0 18.76 0 9.52 0 0 Z " fill="#DE7544" transform="translate(518,425)"/>
<path d="M0 0 C0.89203125 0.00902344 1.7840625 0.01804687 2.703125 0.02734375 C3.37859375 0.03894531 4.0540625 0.05054688 4.75 0.0625 C4.75 0.3925 4.75 0.7225 4.75 1.0625 C3.52023437 1.26166016 3.52023437 1.26166016 2.265625 1.46484375 C0.64914062 1.72974609 0.64914062 1.72974609 -1 2 C-2.60101563 2.26103516 -2.60101563 2.26103516 -4.234375 2.52734375 C-6.59142219 2.94562803 -8.927601 3.48190025 -11.25 4.0625 C-11.25 16.6025 -11.25 29.1425 -11.25 42.0625 C-0.65109291 41.7087587 -0.65109291 41.7087587 9.75 40.0625 C9.75 40.7225 9.75 41.3825 9.75 42.0625 C4.43468311 43.83660051 -0.10618805 44.3202668 -5.6875 44.1875 C-6.41904297 44.17847656 -7.15058594 44.16945313 -7.90429688 44.16015625 C-9.68634298 44.13686153 -11.46821759 44.1010019 -13.25 44.0625 C-13.3488093 38.42086923 -13.42143996 32.77974101 -13.46972656 27.13745117 C-13.48985348 25.21776559 -13.5171579 23.29814138 -13.55175781 21.37866211 C-13.6002293 18.62077704 -13.62295742 15.86370173 -13.640625 13.10546875 C-13.66127014 12.24600143 -13.68191528 11.38653412 -13.70318604 10.50102234 C-13.70543321 4.54619343 -13.70543321 4.54619343 -11.34570312 2.04003906 C-7.46916277 0.23182988 -4.26603525 -0.05613204 0 0 Z " fill="#4E4F4F" transform="translate(472.25,333.9375)"/>
<path d="M0 0 C2.97 0 5.94 0 9 0 C9 0.33 9 0.66 9 1 C7.02 1 5.04 1 3 1 C3 4.96 3 8.92 3 13 C6.3 13 9.6 13 13 13 C12.9175 13.886875 12.835 14.77375 12.75 15.6875 C13.0537589 19.71230539 14.37232494 21.04386556 17 24 C17 24.66 17 25.32 17 26 C15.1875 25.8125 15.1875 25.8125 13 25 C10 20.82142857 10 20.82142857 10 18 C9.34 18 8.68 18 8 18 C8 17.01 8 16.02 8 15 C6.35 15 4.7 15 3 15 C3 18.63 3 22.26 3 26 C2.01 26 1.02 26 0 26 C0 17.42 0 8.84 0 0 Z " fill="#F8ECDC" transform="translate(475,425)"/>
<path d="M0 0 C5.61 0 11.22 0 17 0 C17 1.98 17 3.96 17 6 C13.37 6 9.74 6 6 6 C6 7.98 6 9.96 6 12 C9.63 12 13.26 12 17 12 C16.34 13.98 15.68 15.96 15 18 C12.03 17.67 9.06 17.34 6 17 C6 19.31 6 21.62 6 24 C9.3 24 12.6 24 16 24 C16 24.33 16 24.66 16 25 C12.37 25 8.74 25 5 25 C5 22.03 5 19.06 5 16 C8.3 16 11.6 16 15 16 C15 15.01 15 14.02 15 13 C11.7 13 8.4 13 5 13 C5 10.03 5 7.06 5 4 C8.3 4 11.6 4 15 4 C15 3.01 15 2.02 15 1 C10.38 1 5.76 1 1 1 C1 9.91 1 18.82 1 28 C5.95 28 10.9 28 16 28 C16 28.33 16 28.66 16 29 C10.72 29 5.44 29 0 29 C0 19.43 0 9.86 0 0 Z " fill="#E99E52" transform="translate(306,423)"/>
<path d="M0 0 C7.4251497 -0.49500998 7.4251497 -0.49500998 10.25 1.9375 C10.8275 2.618125 11.405 3.29875 12 4 C14.1381966 4.7872678 14.1381966 4.7872678 16 5 C16.33 4.01 16.66 3.02 17 2 C19.24406525 7.75041721 20.0436729 12.4156671 17.6875 18.25 C15.29309553 22.15199247 13.2315146 24.23625136 9 26 C6.421875 26.1953125 6.421875 26.1953125 3.75 26.125 C2.85796875 26.10695313 1.9659375 26.08890625 1.046875 26.0703125 C0.37140625 26.04710937 -0.3040625 26.02390625 -1 26 C-1 25.34 -1 24.68 -1 24 C-0.33613281 23.97421875 0.32773437 23.9484375 1.01171875 23.921875 C6.49971167 23.56936159 10.10862645 23.25618982 14 19 C16.26131258 15.60803113 16.27579816 13.34521103 17 9 C12.38 9 7.76 9 3 9 C4.32 8.67 5.64 8.34 7 8 C7.33 6.02 7.66 4.04 8 2 C5.03 2 2.06 2 -1 2 C-0.67 1.34 -0.34 0.68 0 0 Z " fill="#E4904A" transform="translate(370,427)"/>
<path d="M0 0 C5.61 0 11.22 0 17 0 C17 6.27 17 12.54 17 19 C16.67 19 16.34 19 16 19 C16 13.72 16 8.44 16 3 C14.02 3 12.04 3 10 3 C10 8.28 10 13.56 10 19 C8.68 19 7.36 19 6 19 C6 13.72 6 8.44 6 3 C4.02 3 2.04 3 0 3 C0 2.01 0 1.02 0 0 Z " fill="#615E5F" transform="translate(654,139)"/>
<path d="M0 0 C0.99 0 1.98 0 3 0 C3 8.58 3 17.16 3 26 C-2.05240852 24.73689787 -3.22470409 22.30047745 -5.8125 18.125 C-6.23208984 17.48691406 -6.65167969 16.84882813 -7.08398438 16.19140625 C-8.14627333 14.51484477 -9.08269089 12.76007392 -10 11 C-9.67 10.01 -9.34 9.02 -9 8 C-7.82750647 9.45365269 -6.66216184 10.91307419 -5.5 12.375 C-4.52546875 13.59316406 -4.52546875 13.59316406 -3.53125 14.8359375 C-2 17 -2 17 -2 19 C-1.34 19 -0.68 19 0 19 C0 12.73 0 6.46 0 0 Z " fill="#F6E7D0" transform="translate(292,425)"/>
<path d="M0 0 C1.67542976 0.28604898 3.34385343 0.61781233 5 1 C5.33 3.97 5.66 6.94 6 10 C6.66 9.67 7.32 9.34 8 9 C7.67 9.99 7.34 10.98 7 12 C6.01 12 5.02 12 4 12 C4 8.7 4 5.4 4 2 C3.01 2 2.02 2 1 2 C1 10.58 1 19.16 1 28 C1.99 28 2.98 28 4 28 C4 24.37 4 20.74 4 17 C8.5 19.25 8.5 19.25 10 23 C8.68 22.01 7.36 21.02 6 20 C6 23.3 6 26.6 6 30 C4.00045254 30.04254356 1.99958364 30.04080783 0 30 C-1.83034055 28.16965945 -1.13042797 25.26788008 -1.1328125 22.8125 C-1.13410156 21.55695313 -1.13539063 20.30140625 -1.13671875 19.0078125 C-1.13462402 18.35071289 -1.1325293 17.69361328 -1.13037109 17.01660156 C-1.12502234 15.00838665 -1.13031691 13.00039541 -1.13671875 10.9921875 C-1.13542969 9.73664063 -1.13414062 8.48109375 -1.1328125 7.1875 C-1.13112061 5.44533203 -1.13112061 5.44533203 -1.12939453 3.66796875 C-1 1 -1 1 0 0 Z " fill="#E18B68" transform="translate(551,423)"/>
<path d="M0 0 C0.33 0 0.66 0 1 0 C1 1.65 1 3.3 1 5 C2.65 3.68 4.3 2.36 6 1 C6.99 1.66 7.98 2.32 9 3 C9.29296875 5.3828125 9.29296875 5.3828125 9.1875 8.125 C9.16042969 9.03507812 9.13335938 9.94515625 9.10546875 10.8828125 C9.07066406 11.58148438 9.03585937 12.28015625 9 13 C8.01 13 7.02 13 6 13 C5.67 11.35 5.34 9.7 5 8 C4.01 8.66 3.02 9.32 2 10 C1.63501966 12.89608399 1.63501966 12.89608399 1.8125 16.125 C1.83957031 17.22070312 1.86664062 18.31640625 1.89453125 19.4453125 C1.92933594 20.28835938 1.96414063 21.13140625 2 22 C2.99 22 3.98 22 5 22 C4.25 26.75 4.25 26.75 2 29 C-1.625 29.125 -1.625 29.125 -5 29 C-5 28.34 -5 27.68 -5 27 C-3.35 27 -1.7 27 0 27 C0 18.09 0 9.18 0 0 Z " fill="#D76B3E" transform="translate(541,424)"/>
<path d="M0 0 C16.46153846 0 16.46153846 0 20 1 C22 3.1875 22 3.1875 23 6 C22.6875 9.3125 22.6875 9.3125 22 12 C21.67 12 21.34 12 21 12 C20.34 9.03 19.68 6.06 19 3 C13.39 2.67 7.78 2.34 2 2 C2 9.26 2 16.52 2 24 C2.99 24.33 3.98 24.66 5 25 C4.34 25.66 3.68 26.32 3 27 C2.01 27 1.02 27 0 27 C0 18.09 0 9.18 0 0 Z " fill="#4F4E4E" transform="translate(459,303)"/>
<path d="M0 0 C-1.48346264 4.18066743 -3.57122189 7.89162815 -5.78125 11.71875 C-7.26283462 14.39140061 -7.26283462 14.39140061 -9 19 C5.52 19 20.04 19 35 19 C35 19.33 35 19.66 35 20 C19.49 20 3.98 20 -12 20 C-12 19.01 -12 18.02 -12 17 C-11.34 17 -10.68 17 -10 17 C-9.67 15.02 -9.34 13.04 -9 11 C-8.34 11 -7.68 11 -7 11 C-6.89042969 10.37351562 -6.78085937 9.74703125 -6.66796875 9.1015625 C-6.50941406 8.28429687 -6.35085938 7.46703125 -6.1875 6.625 C-6.03667969 5.81289063 -5.88585937 5.00078125 -5.73046875 4.1640625 C-4.72269948 1.17847868 -3.19663259 0 0 0 Z " fill="#D6522B" transform="translate(605,413)"/>
<path d="M0 0 C1.40912096 2.81824192 1.11183553 5.17251282 1.09765625 8.3203125 C1.09443359 9.57714844 1.09121094 10.83398438 1.08789062 12.12890625 C1.07951172 13.44761719 1.07113281 14.76632812 1.0625 16.125 C1.05748489 17.46484211 1.05292201 18.804686 1.04882812 20.14453125 C1.03701086 23.42973206 1.02053617 26.71484397 1 30 C0.67 30 0.34 30 0 30 C0 21.09 0 12.18 0 3 C-0.99 3 -1.98 3 -3 3 C-3 9.6 -3 16.2 -3 23 C-3.99 23 -4.98 23 -6 23 C-8.125 18.375 -8.125 18.375 -7 15 C-6.67 15.33 -6.34 15.66 -6 16 C-5.96261719 15.09636719 -5.92523437 14.19273437 -5.88671875 13.26171875 C-5.78810547 11.49248047 -5.78810547 11.49248047 -5.6875 9.6875 C-5.62949219 8.51574219 -5.57148437 7.34398437 -5.51171875 6.13671875 C-5 3 -5 3 -3.58203125 1.08203125 C-2 0 -2 0 0 0 Z " fill="#DF8963" transform="translate(540,421)"/>
<path d="M0 0 C0.99 0.495 0.99 0.495 2 1 C-3.08660331 5.26174872 -6.07976096 6.12553778 -12.67456055 6.11352539 C-13.347995 6.11367142 -14.02142944 6.11381744 -14.715271 6.1139679 C-16.93911979 6.11327175 -19.16288461 6.10549332 -21.38671875 6.09765625 C-22.92942764 6.09579101 -24.47213711 6.09436761 -26.0148468 6.09336853 C-30.07383868 6.08955169 -34.13279473 6.07972851 -38.19177246 6.06866455 C-42.33422359 6.05843252 -46.4766805 6.05386707 -50.61914062 6.04882812 C-58.74611018 6.03810551 -66.87305063 6.02103907 -75 6 C-74.67 4.68 -74.34 3.36 -74 2 C-73.67 2.66 -73.34 3.32 -73 4 C-64.5156201 4.09288948 -56.03145448 4.16386033 -47.54669094 4.20724869 C-43.60638336 4.22807839 -39.66642499 4.2563104 -35.72631836 4.30175781 C-31.92022863 4.34538211 -28.1144737 4.36917181 -24.30815315 4.37950897 C-22.85972896 4.38687079 -21.41132204 4.40124672 -19.96304131 4.42292023 C-12.28931085 4.53313723 -6.42883989 4.58926751 0 0 Z " fill="#A3A3A3" transform="translate(507,377)"/>
<path d="M0 0 C8.76245679 -0.04640675 17.52487107 -0.08191151 26.28742409 -0.10362434 C30.35653662 -0.11404711 34.42556487 -0.12817869 38.49462891 -0.15087891 C42.42388102 -0.17266116 46.35305223 -0.18457996 50.28236008 -0.18975449 C51.77901864 -0.19344059 53.27567293 -0.20063863 54.77229691 -0.21146011 C56.87384754 -0.22604678 58.97506678 -0.22797498 61.07666016 -0.22705078 C62.8686937 -0.23371262 62.8686937 -0.23371262 64.69692993 -0.24050903 C68.10160436 0.0073982 70.82410321 0.78049339 74 2 C74 2.33 74 2.66 74 3 C72.00045254 3.04254356 69.99958364 3.04080783 68 3 C67.505 2.505 67.505 2.505 67 2 C65.01671573 1.89018806 63.02949856 1.8508831 61.04321289 1.83886719 C59.13101707 1.82445587 59.13101707 1.82445587 57.18019104 1.80975342 C55.77768125 1.80490634 54.3751694 1.80062729 52.97265625 1.796875 C51.54398088 1.79112635 50.11530555 1.78536859 48.68663025 1.77960205 C45.68797444 1.76908384 42.6893455 1.76324644 39.69067383 1.75976562 C35.84234191 1.75427658 31.99436306 1.7302437 28.14614201 1.70179367 C25.19423881 1.68319957 22.24242123 1.67796345 19.2904644 1.67642975 C17.87143458 1.67339576 16.45240653 1.66534221 15.03343391 1.65224457 C13.0510872 1.63525192 11.06859572 1.63889924 9.08618164 1.64355469 C7.95668594 1.63990906 6.82719025 1.63626343 5.66346741 1.63250732 C4.78452316 1.75377991 3.90557892 1.87505249 3 2 C2.01 3.485 2.01 3.485 1 5 C0.67 3.35 0.34 1.7 0 0 Z " fill="#C6C6C6" transform="translate(197,171)"/>
<path d="M0 0 C6.15234375 -0.09765625 6.15234375 -0.09765625 8 0 C9 1 9 1 9.125 4.5 C9 8 9 8 8 9 C5.32941149 9.14115161 2.67567762 9.04247107 0 9 C0 6.03 0 3.06 0 0 Z " fill="#E07236" transform="translate(479,428)"/>
<path d="M0 0 C3.96 0 7.92 0 12 0 C12.33 0.66 12.66 1.32 13 2 C9.37 2 5.74 2 2 2 C2 9.26 2 16.52 2 24 C3.98 24 5.96 24 8 24 C8 24.33 8 24.66 8 25 C5.36 25 2.72 25 0 25 C0 16.75 0 8.5 0 0 Z " fill="#FAF2E3" transform="translate(443,425)"/>
<path d="M0 0 C5.625 -0.25 5.625 -0.25 9 2 C9.25 5.0625 9.25 5.0625 9 8 C8 9 8 9 6.15234375 9.09765625 C4.1015625 9.06510417 2.05078125 9.03255208 0 9 C0 6.03 0 3.06 0 0 Z " fill="#E78A32" transform="translate(337,428)"/>
<path d="M0 0 C12.13273543 -1.0735426 12.13273543 -1.0735426 16.7109375 1.55859375 C18.63152243 3.28157337 20.36326748 5.00745607 22 7 C21.67 7.66 21.34 8.32 21 9 C20.01 9 19.02 9 18 9 C17.34 8.01 16.68 7.02 16 6 C13.12240932 5.19663887 13.12240932 5.19663887 9.875 4.8125 C6.966875 4.4103125 6.966875 4.4103125 4 4 C4 10.6 4 17.2 4 24 C3.67 24 3.34 24 3 24 C3 17.07 3 10.14 3 3 C6.3 2.67 9.6 2.34 13 2 C8.71 1.67 4.42 1.34 0 1 C0 0.67 0 0.34 0 0 Z " fill="#EDC2A2" transform="translate(442,424)"/>
<path d="M0 0 C1.98 0 3.96 0 6 0 C6 6.27 6 12.54 6 19 C5.01 19 4.02 19 3 19 C2.67 14.38 2.34 9.76 2 5 C1.01 5.495 1.01 5.495 0 6 C0 4.02 0 2.04 0 0 Z " fill="#494647" transform="translate(684,139)"/>
<path d="M0 0 C0.33 0 0.66 0 1 0 C1 6.27 1 12.54 1 19 C3.31 19 5.62 19 8 19 C8.33 18.01 8.66 17.02 9 16 C9.99 16 10.98 16 12 16 C12.33 11.71 12.66 7.42 13 3 C15.35951179 5.35951179 15.34409415 6.01925635 15.4375 9.25 C15.33709118 12.52121353 14.97042081 14.83023385 13.125 17.5625 C10 20 10 20 0 20 C0 13.4 0 6.8 0 0 Z " fill="#E18A53" transform="translate(446,428)"/>
<path d="M0 0 C1.65 0 3.3 0 5 0 C5 8.91 5 17.82 5 27 C4.67 27 4.34 27 4 27 C4 18.42 4 9.84 4 1 C3.01 1 2.02 1 1 1 C1 7.27 1 13.54 1 20 C0.34 20 -0.32 20 -1 20 C-5 14.70588235 -5 14.70588235 -5 11 C-3.68 11.66 -2.36 12.32 -1 13 C-0.67 8.71 -0.34 4.42 0 0 Z " fill="#F1B775" transform="translate(291,424)"/>
<path d="M0 0 C9.57 0 19.14 0 29 0 C28.67 1.32 28.34 2.64 28 4 C27.67 3.34 27.34 2.68 27 2 C18.75 2 10.5 2 2 2 C1.67 2.66 1.34 3.32 1 4 C0.67 2.68 0.34 1.36 0 0 Z " fill="#CACACA" transform="translate(293,298)"/>
<path d="M0 0 C0.66 0 1.32 0 2 0 C2 8.58 2 17.16 2 26 C1.01 26 0.02 26 -1 26 C-1.33 24.35 -1.66 22.7 -2 21 C-1.34 21 -0.68 21 0 21 C0 14.07 0 7.14 0 0 Z " fill="#F8F1DE" transform="translate(293,425)"/>
<path d="M0 0 C0.99 0 1.98 0 3 0 C3.38218767 1.65614657 3.71395102 3.32457024 4 5 C3.67 5.33 3.34 5.66 3 6 C2.84379445 7.41327947 2.74943827 8.8335459 2.68359375 10.25390625 C2.64169922 11.10791016 2.59980469 11.96191406 2.55664062 12.84179688 C2.49766602 14.18854492 2.49766602 14.18854492 2.4375 15.5625 C2.39431641 16.46419922 2.35113281 17.36589844 2.30664062 18.29492188 C2.20021858 20.52978485 2.09820012 22.76476308 2 25 C1.34 25 0.68 25 0 25 C0 16.75 0 8.5 0 0 Z " fill="#F9F5E8" transform="translate(275,425)"/>
<path d="M0 0 C0.66 0.33 1.32 0.66 2 1 C2 1.66 2 2.32 2 3 C3.65 3.33 5.3 3.66 7 4 C5.4169423 8.2742558 2.49431596 10.26531794 -1 13 C-1.22151549 11.20991533 -1.42682213 9.41781838 -1.625 7.625 C-1.74101563 6.62726563 -1.85703125 5.62953125 -1.9765625 4.6015625 C-1.98429688 3.74304688 -1.99203125 2.88453125 -2 2 C-1.34 1.34 -0.68 0.68 0 0 Z " fill="#DE5F31" transform="translate(557,421)"/>
<path d="M0 0 C2.25 -0.0625 2.25 -0.0625 5 1 C6.28106399 3.26248929 7.19977478 5.53301133 8.10546875 7.96875 C8.81933878 10.17563793 8.81933878 10.17563793 11 11 C11 11.66 11 12.32 11 13 C9.68 12.34 8.36 11.68 7 11 C6.34 11.66 5.68 12.32 5 13 C4.15930585 11.39967863 3.32768495 9.79458829 2.5 8.1875 C1.80390625 6.84751953 1.80390625 6.84751953 1.09375 5.48046875 C0 3 0 3 0 0 Z " fill="#F1D0B0" transform="translate(396,424)"/>
<path d="M0 0 C2.31 0 4.62 0 7 0 C6.67 1.32 6.34 2.64 6 4 C7.65 4 9.3 4 11 4 C10.67 4.99 10.34 5.98 10 7 C6.7 7 3.4 7 0 7 C0 4.69 0 2.38 0 0 Z " fill="#EB8928" transform="translate(312,440)"/>
<path d="M0 0 C1.32 0.33 2.64 0.66 4 1 C4 1.99 4 2.98 4 4 C3.34 4 2.68 4 2 4 C2 10.6 2 17.2 2 24 C1.34 24 0.68 24 0 24 C0 16.08 0 8.16 0 0 Z " fill="#FBF7F3" transform="translate(520,426)"/>
<path d="M0 0 C1.32 0.66 2.64 1.32 4 2 C4 5.3 4 8.6 4 12 C3.01 12 2.02 12 1 12 C0.67 10.35 0.34 8.7 0 7 C-1.98 7.99 -1.98 7.99 -4 9 C-4.25 6.75 -4.25 6.75 -4 4 C-2 1.6875 -2 1.6875 0 0 Z " fill="#DE5D29" transform="translate(546,425)"/>
<path d="M0 0 C0.625 1.75 0.625 1.75 1 4 C0.34 5.32 -0.32 6.64 -1 8 C2.3 8 5.6 8 9 8 C8.67 5.69 8.34 3.38 8 1 C10 4 10 4 10 7 C10.66 7 11.32 7 12 7 C12 7.99 12 8.98 12 10 C7.05 10 2.1 10 -3 10 C-1.875 3.25 -1.875 3.25 0 0 Z " fill="#A9A9A9" transform="translate(337,373)"/>
<path d="M0 0 C3.3 0 6.6 0 10 0 C10 0.66 10 1.32 10 2 C9.01 2.495 9.01 2.495 8 3 C8.33 3.99 8.66 4.98 9 6 C6.03 6 3.06 6 0 6 C0 4.02 0 2.04 0 0 Z " fill="#EA8827" transform="translate(312,429)"/>
<path d="M0 0 C0.33 0 0.66 0 1 0 C1 3.96 1 7.92 1 12 C9.91 11.67 18.82 11.34 28 11 C28.33 10.34 28.66 9.68 29 9 C29.33 10.32 29.66 11.64 30 13 C19.44 13 8.88 13 -2 13 C-1.34 8.71 -0.68 4.42 0 0 Z " fill="#8D8D8D" transform="translate(576,370)"/>
<path d="M0 0 C0.33 0 0.66 0 1 0 C1.08121924 1.60332791 1.13929134 3.20784026 1.1875 4.8125 C1.22230469 5.70582031 1.25710938 6.59914063 1.29296875 7.51953125 C0.95081002 10.41647515 0.24606427 11.22555028 -2 13 C-0.79618552 15.49361571 0.45428722 17.68143083 2 20 C1.625 22.1875 1.625 22.1875 1 24 C-0.98 24 -2.96 24 -5 24 C-4.67 23.34 -4.34 22.68 -4 22 C-3.01 22.33 -2.02 22.66 -1 23 C-3.35456323 17.43282467 -3.35456323 17.43282467 -6 12 C-5.195625 11.690625 -4.39125 11.38125 -3.5625 11.0625 C-0.83888394 9.29423085 -0.83888394 9.29423085 -0.4453125 6.796875 C-0.20962327 4.52568784 -0.05263436 2.28241731 0 0 Z " fill="#E4954A" transform="translate(351,428)"/>
<path d="M0 0 C1.98 0 3.96 0 6 0 C6 0.66 6 1.32 6 2 C4.35 2 2.7 2 1 2 C1 6.29 1 10.58 1 15 C-0.32 15 -1.64 15 -3 15 C-3.66 13.68 -4.32 12.36 -5 11 C-4.34 11 -3.68 11 -3 11 C-2.67 10.01 -2.34 9.02 -2 8 C-1.34 8 -0.68 8 0 8 C0 5.36 0 2.72 0 0 Z " fill="#EB9230" transform="translate(290,422)"/>
<path d="M0 0 C2.64 0 5.28 0 8 0 C8 0.33 8 0.66 8 1 C5.69 1 3.38 1 1 1 C1 3.97 1 6.94 1 10 C3.64 9.67 6.28 9.34 9 9 C9.33 6.69 9.66 4.38 10 2 C10.33 2 10.66 2 11 2 C11 4.64 11 7.28 11 10 C11.66 10.33 12.32 10.66 13 11 C12.34 11.66 11.68 12.32 11 13 C11.32198966 16.09926819 11.32198966 16.09926819 12 19 C11.01 18.34 10.02 17.68 9 17 C8.8125 14.375 8.8125 14.375 9 12 C6.03 11.67 3.06 11.34 0 11 C0 7.37 0 3.74 0 0 Z " fill="#E3B595" transform="translate(478,427)"/>
<path d="M0 0 C1.65 0 3.3 0 5 0 C5 1.65 5 3.3 5 5 C4.01 4.67 3.02 4.34 2 4 C2 8.95 2 13.9 2 19 C1.34 19 0.68 19 0 19 C0 12.73 0 6.46 0 0 Z " fill="#373334" transform="translate(671,139)"/>
<path d="M0 0 C1.32 0 2.64 0 4 0 C4.66 1.65 5.32 3.3 6 5 C3.69 4.34 1.38 3.68 -1 3 C-1 11.58 -1 20.16 -1 29 C0.32 29.33 1.64 29.66 3 30 C1.35 30 -0.3 30 -2 30 C-2.04939662 26.04903022 -2.08571755 22.0981797 -2.10986328 18.14697266 C-2.12488107 16.1408864 -2.15028981 14.13488676 -2.17578125 12.12890625 C-2.18544922 10.24365234 -2.18544922 10.24365234 -2.1953125 8.3203125 C-2.20578613 7.15773926 -2.21625977 5.99516602 -2.22705078 4.79736328 C-2 2 -2 2 0 0 Z " fill="#EBA349" transform="translate(275,422)"/>
<path d="M0 0 C6.88359708 6.70244979 6.88359708 6.70244979 7.265625 10.9609375 C7.26046875 12.08757812 7.2553125 13.21421875 7.25 14.375 C7.25773437 16.05722656 7.25773437 16.05722656 7.265625 17.7734375 C7.00575269 20.93012177 6.34320698 23.15368045 5 26 C4.67 26 4.34 26 4 26 C4.03480469 24.84242188 4.06960938 23.68484375 4.10546875 22.4921875 C4.13362207 20.9531396 4.16092056 19.41407589 4.1875 17.875 C4.21263672 17.11445313 4.23777344 16.35390625 4.26367188 15.5703125 C4.32841965 10.56315134 3.59991295 7.413958 1 3 C0.67 2.01 0.34 1.02 0 0 Z " fill="#818281" transform="translate(279,338)"/>
<path d="M0 0 C-0.0868276 2.12577907 -0.1949951 4.25069581 -0.3125 6.375 C-0.37050781 7.55835938 -0.42851563 8.74171875 -0.48828125 9.9609375 C-0.65714844 10.96382812 -0.82601562 11.96671875 -1 13 C-1.99 13.66 -2.98 14.32 -4 15 C-3.67 11.04 -3.34 7.08 -3 3 C-3.99 3.33 -4.98 3.66 -6 4 C-7.66368258 4.11766176 -9.33220803 4.17509083 -11 4.1875 C-12.299375 4.20876953 -12.299375 4.20876953 -13.625 4.23046875 C-16 4 -16 4 -19 2 C-18.26394531 2.02320313 -17.52789063 2.04640625 -16.76953125 2.0703125 C-15.30580078 2.09738281 -15.30580078 2.09738281 -13.8125 2.125 C-12.36810547 2.15980469 -12.36810547 2.15980469 -10.89453125 2.1953125 C-6.93830481 1.92836065 -3.95649304 0 0 0 Z " fill="#999999" transform="translate(533,170)"/>
<path d="M0 0 C3.3 0 6.6 0 10 0 C9.66466723 3.01799494 9.13434402 4.80881813 7.375 7.3125 C4.16715428 9.5917588 1.84279789 9.29559984 -2 9 C-2.33 8.34 -2.66 7.68 -3 7 C-0.36 7 2.28 7 5 7 C5 6.34 5 5.68 5 5 C5.66 5 6.32 5 7 5 C7 4.01 7 3.02 7 2 C4.69 2 2.38 2 0 2 C0 1.34 0 0.68 0 0 Z " fill="#E39859" transform="translate(373,439)"/>
<path d="M0 0 C0.33 0 0.66 0 1 0 C1.22786458 2.05078125 1.45572917 4.1015625 1.68359375 6.15234375 C1.81886614 8.01140229 1.81886614 8.01140229 3 9 C3.08685603 10.56172745 3.10702219 12.12729344 3.09765625 13.69140625 C3.09282227 15.10776367 3.09282227 15.10776367 3.08789062 16.55273438 C3.07951172 17.54595703 3.07113281 18.53917969 3.0625 19.5625 C3.05798828 20.55958984 3.05347656 21.55667969 3.04882812 22.58398438 C3.03700007 25.05604849 3.02051849 27.52799518 3 30 C2.67 30 2.34 30 2 30 C0.22796804 19.87410311 -0.23950618 10.2455423 0 0 Z " fill="#666767" transform="translate(419,317)"/>
<path d="M0 0 C7.26 0 14.52 0 22 0 C22.33 1.65 22.66 3.3 23 5 C22.34 4.34 21.68 3.68 21 3 C18.77341846 2.62995706 18.77341846 2.62995706 16.2109375 2.5859375 C14.79941406 2.52792969 14.79941406 2.52792969 13.359375 2.46875 C12.37453125 2.4378125 11.3896875 2.406875 10.375 2.375 C9.38242187 2.33632813 8.38984375 2.29765625 7.3671875 2.2578125 C4.91164615 2.1633686 2.4561159 2.07780125 0 2 C0 1.34 0 0.68 0 0 Z " fill="#C3C3C3" transform="translate(557,298)"/>
<path d="M0 0 C1.32 0.33 2.64 0.66 4 1 C4 4.12535255 3.50259936 5.34835407 2 8 C1 9 1 9 -2.37890625 9.09765625 C-3.77347077 9.09098369 -5.16801743 9.07902532 -6.5625 9.0625 C-7.62887695 9.05573242 -7.62887695 9.05573242 -8.71679688 9.04882812 C-10.47790013 9.03700864 -12.23896036 9.01907263 -14 9 C-14 8.67 -14 8.34 -14 8 C-9.38 7.67 -4.76 7.34 0 7 C0.33 6.01 0.66 5.02 1 4 C-2.3 4 -5.6 4 -9 4 C-9 3.67 -9 3.34 -9 3 C-4.545 2.505 -4.545 2.505 0 2 C0 1.34 0 0.68 0 0 Z " fill="#E69834" transform="translate(263,444)"/>
<path d="M0 0 C4.20240011 3.71750779 6.99782679 8.31660979 10 13 C9.67 13.66 9.34 14.32 9 15 C8.01 15 7.02 15 6 15 C4.46484375 12.8828125 4.46484375 12.8828125 2.9375 10.125 C0.81196262 6.30544968 0.81196262 6.30544968 -2 3 C-1.34 3 -0.68 3 0 3 C0 2.01 0 1.02 0 0 Z " fill="#F1D9C8" transform="translate(524,427)"/>
<path d="M0 0 C0.6875 1.5625 0.6875 1.5625 1 4 C0.01 6.31 -0.98 8.62 -2 11 C4.93 11.33 11.86 11.66 19 12 C19 12.33 19 12.66 19 13 C11.08 13 3.16 13 -5 13 C-2.75 4 -2.75 4 0 0 Z " fill="#190F0F" transform="translate(603,417)"/>
<path d="M0 0 C1.65 0 3.3 0 5 0 C5 0.99 5 1.98 5 3 C5.66 3 6.32 3 7 3 C7.33 4.32 7.66 5.64 8 7 C4.125 6.125 4.125 6.125 3 5 C2.67 6.98 2.34 8.96 2 11 C1.34 11 0.68 11 0 11 C0 7.37 0 3.74 0 0 Z " fill="#DA8755" transform="translate(478,440)"/>
<path d="M0 0 C-1.34337464 2.9802049 -2.87278029 5.08191755 -5.125 7.4375 C-7.28476413 9.86985572 -7.95205868 10.62445963 -8.375 13.9375 C-8.25125 14.618125 -8.1275 15.29875 -8 16 C-9.32 15.01 -10.64 14.02 -12 13 C-11.41965777 9.16622404 -9.6736413 7.10671882 -7.125 4.25 C-6.42632813 3.45078125 -5.72765625 2.6515625 -5.0078125 1.828125 C-3 0 -3 0 0 0 Z " fill="#DB7B56" transform="translate(571,426)"/>
<path d="M0 0 C-0.99 0.33 -1.98 0.66 -3 1 C0.38591168 3.25727445 1.94853113 3.30277039 5.9375 3.5 C9.83332682 3.6931017 12.62553987 3.98345515 16 6 C15.01 6.495 15.01 6.495 14 7 C13.01 6.67 12.02 6.34 11 6 C9.5211813 5.789235 8.03703148 5.61446626 6.55078125 5.46484375 C5.70322266 5.37783203 4.85566406 5.29082031 3.98242188 5.20117188 C2.66081055 5.0706543 2.66081055 5.0706543 1.3125 4.9375 C0.41982422 4.84662109 -0.47285156 4.75574219 -1.39257812 4.66210938 C-3.59476265 4.43835801 -5.79721768 4.21777399 -8 4 C-7.6875 2.0625 -7.6875 2.0625 -7 0 C-3.86650268 -1.04449911 -3.01031744 -0.93423645 0 0 Z " fill="#A5A6A5" transform="translate(489,326)"/>
<path d="M0 0 C7.26 0 14.52 0 22 0 C25 7 25 7 24.6875 9.4375 C24.460625 9.953125 24.23375 10.46875 24 11 C21 4.375 21 4.375 21 1 C18.08115472 1.06005854 15.16738361 1.14708616 12.25 1.25 C11.425 1.26417969 10.6 1.27835938 9.75 1.29296875 C4.6888713 1.46710812 4.6888713 1.46710812 0.421875 4.046875 C-0.04734375 4.69140625 -0.5165625 5.3359375 -1 6 C-0.67 4.02 -0.34 2.04 0 0 Z " fill="#BFBFBF" transform="translate(397,171)"/>
<path d="M0 0 C0.66 0 1.32 0 2 0 C2 3.3 2 6.6 2 10 C5.63 10 9.26 10 13 10 C13 10.66 13 11.32 13 12 C8.71 12 4.42 12 0 12 C0 8.04 0 4.08 0 0 Z " fill="#F9F3DD" transform="translate(250,439)"/>
<path d="M0 0 C2.7972908 2.06756277 3.02692273 3.14440371 3.6875 6.6875 C3.790625 7.780625 3.89375 8.87375 4 10 C2.68 8.68 1.36 7.36 0 6 C-1.86551426 9.58752742 -3.42535928 13.27812193 -5 17 C-6.14153078 14.15992644 -5.99776303 12.99306176 -5.0390625 10.01953125 C-4.33910156 8.43205078 -4.33910156 8.43205078 -3.625 6.8125 C-3.16351563 5.74644531 -2.70203125 4.68039063 -2.2265625 3.58203125 C-1 1 -1 1 0 0 Z " fill="#5A5B5B" transform="translate(399,187)"/>
<path d="M0 0 C4.95 0 9.9 0 15 0 C15 1.98 15 3.96 15 6 C14.67 4.68 14.34 3.36 14 2 C13.01 2.33 12.02 2.66 11 3 C9.10529184 3.0685495 7.2083166 3.08480372 5.3125 3.0625 C4.31863281 3.05347656 3.32476562 3.04445313 2.30078125 3.03515625 C1.16189453 3.01775391 1.16189453 3.01775391 0 3 C0 2.01 0 1.02 0 0 Z " fill="#F6D5B3" transform="translate(372,436)"/>
<path d="M0 0 C3.375 -0.125 3.375 -0.125 7 0 C7.66 0.66 8.32 1.32 9 2 C6.36 2 3.72 2 1 2 C2.61268692 4.71224618 4.24901874 7.37352812 6 10 C6.1953125 12.69921875 6.1953125 12.69921875 6.125 15.6875 C6.10695313 16.68136719 6.08890625 17.67523438 6.0703125 18.69921875 C6.03550781 19.83810547 6.03550781 19.83810547 6 21 C5.67 21 5.34 21 5 21 C4.85304688 19.77023438 4.85304688 19.77023438 4.703125 18.515625 C4.47882812 16.89914063 4.47882812 16.89914063 4.25 15.25 C4.11078125 14.18265625 3.9715625 13.1153125 3.828125 12.015625 C2.88223536 8.57115895 1.55924834 7.39142878 -1 5 C-0.75 2.25 -0.75 2.25 0 0 Z " fill="#7A7B7A" transform="translate(515,214)"/>
<path d="M0 0 C0.66 0.33 1.32 0.66 2 1 C-2.99475656 5.18479603 -5.94056087 6.12696579 -12.41796875 6.09765625 C-13.67158203 6.09443359 -14.92519531 6.09121094 -16.21679688 6.08789062 C-17.52712891 6.07951172 -18.83746094 6.07113281 -20.1875 6.0625 C-21.52278481 6.05748317 -22.85807141 6.05292059 -24.19335938 6.04882812 C-27.46228473 6.03702695 -30.73111991 6.02056297 -34 6 C-34 5.67 -34 5.34 -34 5 C-33.21874756 4.9906543 -32.43749512 4.98130859 -31.63256836 4.97167969 C-28.06692236 4.91774688 -24.50255585 4.8341419 -20.9375 4.75 C-19.09381836 4.72873047 -19.09381836 4.72873047 -17.21289062 4.70703125 C-10.20262247 4.51807523 -5.79076627 3.97550479 0 0 Z " fill="#979798" transform="translate(507,377)"/>
<path d="M0 0 C1.485 0.99 1.485 0.99 3 2 C3.29296875 4.6015625 3.29296875 4.6015625 3.1875 7.625 C3.16042969 8.62789063 3.13335937 9.63078125 3.10546875 10.6640625 C3.07066406 11.43492187 3.03585937 12.20578125 3 13 C1.02 13.99 1.02 13.99 -1 15 C-0.67 10.05 -0.34 5.1 0 0 Z " fill="#F8ECDE" transform="translate(461,431)"/>
<path d="M0 0 C0.66 0.33 1.32 0.66 2 1 C2.08097324 3.27024968 2.13917704 5.54132075 2.1875 7.8125 C2.22230469 9.07707031 2.25710938 10.34164063 2.29296875 11.64453125 C2 15 2 15 0.48828125 16.94921875 C-0.00285156 17.29597656 -0.49398438 17.64273437 -1 18 C-1.99 17.67 -2.98 17.34 -4 17 C-3.51917969 16.47921875 -3.03835938 15.9584375 -2.54296875 15.421875 C-0.54826135 12.29094187 -0.49681589 9.93631779 -0.3125 6.25 C-0.24675781 5.07953125 -0.18101562 3.9090625 -0.11328125 2.703125 C-0.05720703 1.36507813 -0.05720703 1.36507813 0 0 Z " fill="#E58652" transform="translate(464,431)"/>
<path d="M0 0 C3.23180698 0.8618152 5.48261455 1.48261455 7.875 3.875 C9 6 9 6 9 10 C7.171875 9.78515625 7.171875 9.78515625 5 9 C3.515625 6.93359375 3.515625 6.93359375 2.25 4.4375 C1.82203125 3.61121094 1.3940625 2.78492188 0.953125 1.93359375 C0.63859375 1.29550781 0.3240625 0.65742188 0 0 Z " fill="#F6E2C7" transform="translate(341,441)"/>
<path d="M0 0 C0 2 0 2 -2.25 4.5 C-4.5264965 6.56954228 -6.19566446 7.85749293 -9 9 C-9.66 8.34 -10.32 7.68 -11 7 C-9.9296491 5.82141137 -8.84316035 4.6574639 -7.75 3.5 C-7.14671875 2.8503125 -6.5434375 2.200625 -5.921875 1.53125 C-4 0 -4 0 0 0 Z " fill="#F1D2C4" transform="translate(570,424)"/>
<path d="M0 0 C5.46875 3.61328125 5.46875 3.61328125 7 5 C7 5.99 7 6.98 7 8 C5.02 8.66 3.04 9.32 1 10 C0.67 6.7 0.34 3.4 0 0 Z " fill="#D96536" transform="translate(556,442)"/>
<path d="M0 0 C1.13199353 0.9080162 2.25532363 1.82683826 3.375 2.75 C4.00148438 3.26046875 4.62796875 3.7709375 5.2734375 4.296875 C7.08312318 6.08199481 8.00117455 7.67949644 9 10 C6.75 10.375 6.75 10.375 4 10 C0.96787659 6.39423163 0 4.77053792 0 0 Z " fill="#F2D3C1" transform="translate(561,441)"/>
<path d="M0 0 C2.97 0.495 2.97 0.495 6 1 C5.38640625 1.22429687 4.7728125 1.44859375 4.140625 1.6796875 C1.31073913 3.42512806 0.86066943 5.0309923 -0.25 8.125 C-0.58515625 9.03507812 -0.9203125 9.94515625 -1.265625 10.8828125 C-1.50796875 11.58148438 -1.7503125 12.28015625 -2 13 C-3.32 12.67 -4.64 12.34 -6 12 C-5.34 11.67 -4.68 11.34 -4 11 C-4 9.35 -4 7.7 -4 6 C-2.68 5.67 -1.36 5.34 0 5 C0 3.35 0 1.7 0 0 Z " fill="#E38D4A" transform="translate(410,422)"/>
<path d="M0 0 C-4.52941176 12.76470588 -4.52941176 12.76470588 -9 15 C-9 13.68 -9 12.36 -9 11 C-8.34 11 -7.68 11 -7 11 C-6.89042969 10.37351562 -6.78085937 9.74703125 -6.66796875 9.1015625 C-6.50941406 8.28429687 -6.35085938 7.46703125 -6.1875 6.625 C-6.03667969 5.81289063 -5.88585937 5.00078125 -5.73046875 4.1640625 C-4.72269948 1.17847868 -3.19663259 0 0 0 Z " fill="#C95031" transform="translate(605,413)"/>
<path d="M0 0 C0.66 0.33 1.32 0.66 2 1 C0.71520959 2.50589388 -0.57804082 4.00457375 -1.875 5.5 C-2.59429688 6.3353125 -3.31359375 7.170625 -4.0546875 8.03125 C-4.69664062 8.6809375 -5.33859375 9.330625 -6 10 C-6.66 10 -7.32 10 -8 10 C-8.33 11.65 -8.66 13.3 -9 15 C-9.66 15 -10.32 15 -11 15 C-9.26848032 8.38874306 -5.67607103 3.78404735 0 0 Z " fill="#BDBEBD" transform="translate(596,170)"/>
<path d="M0 0 C0.33 0 0.66 0 1 0 C1 3.63 1 7.26 1 11 C2.32 10.67 3.64 10.34 5 10 C5 11.32 5 12.64 5 14 C3.68 14 2.36 14 1 14 C1 17.3 1 20.6 1 24 C0.67 24 0.34 24 0 24 C0 16.08 0 8.16 0 0 Z " fill="#FAF2ED" transform="translate(553,426)"/>
<path d="M0 0 C1.32 0 2.64 0 4 0 C3.39301257 4.12751449 1.96189209 7.3321148 0 11 C-1.125 9.4375 -1.125 9.4375 -2 7 C-1.125 3.25 -1.125 3.25 0 0 Z " fill="#F1D4B6" transform="translate(412,424)"/>
<path d="M0 0 C-1.32 0.33 -2.64 0.66 -4 1 C-4 1.66 -4 2.32 -4 3 C-3.09636719 3.04898438 -2.19273437 3.09796875 -1.26171875 3.1484375 C-0.08222656 3.22320312 1.09726562 3.29796875 2.3125 3.375 C3.48425781 3.44460937 4.65601563 3.51421875 5.86328125 3.5859375 C9 4 9 4 12 6 C9.22867983 5.69140975 6.45800014 5.3782967 3.6875 5.0625 C2.90181641 4.97548828 2.11613281 4.88847656 1.30664062 4.79882812 C0.1706543 4.66831055 0.1706543 4.66831055 -0.98828125 4.53515625 C-2.03302612 4.41732788 -2.03302612 4.41732788 -3.09887695 4.29711914 C-5 4 -5 4 -8 3 C-8 2.34 -8 1.68 -8 1 C-4.93251126 -0.86240388 -3.40254489 -1.2151946 0 0 Z " fill="#4D4E4E" transform="translate(255,198)"/>
<path d="M0 0 C0.99 0 1.98 0 3 0 C2.01 2.97 1.02 5.94 0 9 C-1.65 9.33 -3.3 9.66 -5 10 C-3.35 6.7 -1.7 3.4 0 0 Z " fill="#C5842A" transform="translate(232,421)"/>
<path d="M0 0 C0.33 0 0.66 0 1 0 C1 8.25 1 16.5 1 25 C0.01 25 -0.98 25 -2 25 C-2.33 23.68 -2.66 22.36 -3 21 C-2.01 21 -1.02 21 0 21 C0 14.07 0 7.14 0 0 Z " fill="#FCF9F5" transform="translate(538,425)"/>
<path d="M0 0 C0.99 0.33 1.98 0.66 3 1 C3 5.95 3 10.9 3 16 C2.67 16 2.34 16 2 16 C1.67 13.36 1.34 10.72 1 8 C0.34 8 -0.32 8 -1 8 C-0.67 5.36 -0.34 2.72 0 0 Z " fill="#6D6E6E" transform="translate(395,318)"/>
<path d="M0 0 C8.91 0 17.82 0 27 0 C27 0.33 27 0.66 27 1 C26.28344238 1.01458252 25.56688477 1.02916504 24.82861328 1.04418945 C21.59352017 1.11849 18.35947981 1.21520861 15.125 1.3125 C13.99707031 1.33505859 12.86914062 1.35761719 11.70703125 1.38085938 C10.63066406 1.41630859 9.55429688 1.45175781 8.4453125 1.48828125 C6.95281982 1.52755737 6.95281982 1.52755737 5.43017578 1.56762695 C4.62821777 1.71031006 3.82625977 1.85299316 3 2 C2.01 3.485 2.01 3.485 1 5 C0.67 3.35 0.34 1.7 0 0 Z " fill="#CFCFCF" transform="translate(197,171)"/>
<path d="M0 0 C1.5625 1.8125 1.5625 1.8125 3 4 C2.67 4.99 2.34 5.98 2 7 C-2.95 7 -7.9 7 -13 7 C-13 6.67 -13 6.34 -13 6 C-7.555 5.505 -7.555 5.505 -2 5 C-2.66 4.34 -3.32 3.68 -4 3 C-2.68 3 -1.36 3 0 3 C0 2.01 0 1.02 0 0 Z " fill="#DE8A42" transform="translate(386,429)"/>
<path d="M0 0 C0.99 0 1.98 0 3 0 C5.42857143 6.28571429 5.42857143 6.28571429 4 10 C3.67 8.35 3.34 6.7 3 5 C-0.16666667 6.83333333 -0.16666667 6.83333333 -2 10 C-1.54177532 6.53058454 -1.10868317 3.32604951 0 0 Z " fill="#666766" transform="translate(558,314)"/>
<path d="M0 0 C3.11579891 4.15439854 3.60792099 6.19208049 4.375 11.07421875 C4.684375 12.02748047 4.684375 12.02748047 5 13 C5.99 13.33 6.98 13.66 8 14 C6.68 14 5.36 14 4 14 C3.34 12.02 2.68 10.04 2 8 C1.67 9.65 1.34 11.3 1 13 C0.67 13 0.34 13 0 13 C0 8.71 0 4.42 0 0 Z " fill="#C5C4C4" transform="translate(674,145)"/>
<path d="M0 0 C0.99 0.33 1.98 0.66 3 1 C3.6875 3.0625 3.6875 3.0625 4 5 C0.86501708 6.85776765 -1.37471432 7.20140476 -5 7 C-5.33 5.68 -5.66 4.36 -6 3 C-4.02 3.66 -2.04 4.32 0 5 C0 3.35 0 1.7 0 0 Z " fill="#E7983A" transform="translate(296,446)"/>
<path d="M0 0 C3.3 0 6.6 0 10 0 C7.377486 1.74834267 6.00515522 2.51529754 3 3 C2.34 2.67 1.68 2.34 1 2 C1 3.32 1 4.64 1 6 C2.98 6 4.96 6 7 6 C7 6.33 7 6.66 7 7 C4.69 7 2.38 7 0 7 C0 4.69 0 2.38 0 0 Z " fill="#EE962F" transform="translate(254,428)"/>
<path d="M0 0 C2.5654594 2.5654594 2.54046087 4.47686668 3 8 C3.99 8 4.98 8 6 8 C6 9.65 6 11.3 6 13 C5.01 13 4.02 13 3 13 C2.49242138 11.58603098 1.99425075 10.16868271 1.5 8.75 C1.08234375 7.56664062 1.08234375 7.56664062 0.65625 6.359375 C0 4 0 4 0 0 Z " fill="#332F30" transform="translate(676,145)"/>
<path d="M0 0 C0.33 0 0.66 0 1 0 C1.33 2.31 1.66 4.62 2 7 C4.97 7.33 7.94 7.66 11 8 C11 8.33 11 8.66 11 9 C7.04 9 3.08 9 -1 9 C-1.09765625 2.84765625 -1.09765625 2.84765625 -1 1 C-0.67 0.67 -0.34 0.34 0 0 Z " fill="#F9F7EC" transform="translate(309,441)"/>
<path d="M0 0 C0.99 0.33 1.98 0.66 3 1 C2.01 2.485 2.01 2.485 1 4 C1.27617533 5.94074861 1.27617533 5.94074861 2 8 C2.34060811 9.66519519 2.67558396 11.33157466 3 13 C-1.87804878 8.73170732 -1.87804878 8.73170732 -2.4375 5.375 C-2 3 -2 3 0 0 Z " fill="#F8E7DA" transform="translate(559,432)"/>
<path d="M0 0 C0.88171875 0.04640625 1.7634375 0.0928125 2.671875 0.140625 C3.56390625 0.17671875 4.4559375 0.2128125 5.375 0.25 C6.38820313 0.31960937 6.38820313 0.31960937 7.421875 0.390625 C7.421875 1.050625 7.421875 1.710625 7.421875 2.390625 C2.801875 3.050625 -1.818125 3.710625 -6.578125 4.390625 C-2.578125 0.390625 -2.578125 0.390625 0 0 Z " fill="#A1A2A1" transform="translate(345.578125,201.609375)"/>
<path d="M0 0 C-3 2 -3 2 -6.0625 3.5 C-9.03112476 4.82567342 -9.03112476 4.82567342 -11 7 C-11.33 6.01 -11.66 5.02 -12 4 C-8.41084094 -0.78554541 -5.58334594 -0.37222306 0 0 Z " fill="#F9EEDC" transform="translate(376,425)"/>
<path d="M0 0 C0.89203125 0.00902344 1.7840625 0.01804687 2.703125 0.02734375 C3.37859375 0.03894531 4.0540625 0.05054688 4.75 0.0625 C4.75 0.3925 4.75 0.7225 4.75 1.0625 C3.53763672 1.26166016 3.53763672 1.26166016 2.30078125 1.46484375 C1.23214844 1.64144531 0.16351563 1.81804687 -0.9375 2 C-1.99324219 2.17402344 -3.04898437 2.34804688 -4.13671875 2.52734375 C-6.85249604 2.99417121 -9.55124235 3.50672616 -12.25 4.0625 C-8.6985919 -0.02161931 -5.22072042 -0.06869369 0 0 Z " fill="#6E6F6F" transform="translate(472.25,333.9375)"/>
<path d="M0 0 C-0.57344937 2.86724686 -0.8614515 3.8614515 -3 6 C-3.64767793 8.57061311 -3.64767793 8.57061311 -4 11 C-6 9 -6 9 -6.375 6.625 C-5.85761283 3.00328983 -3.93056022 0 0 0 Z " fill="#404141" transform="translate(357,204)"/>
<path d="M0 0 C4.95 0 9.9 0 15 0 C15.66 1.65 16.32 3.3 17 5 C16.30519531 4.51917969 15.61039062 4.03835938 14.89453125 3.54296875 C11.63629506 1.8061222 9.35210254 1.51385179 5.6875 1.3125 C4.08455078 1.21388672 4.08455078 1.21388672 2.44921875 1.11328125 C1.64097656 1.07589844 0.83273437 1.03851563 0 1 C0 0.67 0 0.34 0 0 Z " fill="#DE8456" transform="translate(475,423)"/>
<path d="M0 0 C1.32 0.33 2.64 0.66 4 1 C3.01 2.485 3.01 2.485 2 4 C-0.6015625 4.29296875 -0.6015625 4.29296875 -3.625 4.1875 C-5.12933594 4.14689453 -5.12933594 4.14689453 -6.6640625 4.10546875 C-7.82035156 4.05326172 -7.82035156 4.05326172 -9 4 C-9 3.67 -9 3.34 -9 3 C-4.545 2.505 -4.545 2.505 0 2 C0 1.34 0 0.68 0 0 Z " fill="#F1942E" transform="translate(263,444)"/>
<path d="M0 0 C0.99 0 1.98 0 3 0 C3.125 5.75 3.125 5.75 2 8 C1.01 7.67 0.02 7.34 -1 7 C-0.67 4.69 -0.34 2.38 0 0 Z " fill="#F9F0E5" transform="translate(383,438)"/>
<path d="M0 0 C1.32 0 2.64 0 4 0 C3.25 4.75 3.25 4.75 1 7 C0.01 6.67 -0.98 6.34 -2 6 C-1.34 6 -0.68 6 0 6 C0 4.02 0 2.04 0 0 Z " fill="#DC5E2E" transform="translate(542,446)"/>
<path d="M0 0 C0.66 0.33 1.32 0.66 2 1 C1.34 3.97 0.68 6.94 0 10 C0.66 10.33 1.32 10.66 2 11 C1.01 11.66 0.02 12.32 -1 13 C-1.22151549 11.20991533 -1.42682213 9.41781838 -1.625 7.625 C-1.74101563 6.62726563 -1.85703125 5.62953125 -1.9765625 4.6015625 C-1.98429688 3.74304688 -1.99203125 2.88453125 -2 2 C-1.34 1.34 -0.68 0.68 0 0 Z " fill="#D46536" transform="translate(557,421)"/>
<path d="M0 0 C0.33 0.99 0.66 1.98 1 3 C1.94875 2.95875 2.8975 2.9175 3.875 2.875 C7 3 7 3 9 5 C5.7 5.33 2.4 5.66 -1 6 C-0.67 4.02 -0.34 2.04 0 0 Z " fill="#4B4C4C" transform="translate(547,350)"/>
<path d="M0 0 C0.66 0.33 1.32 0.66 2 1 C1.07038578 2.15224028 0.1309875 3.29659176 -0.8125 4.4375 C-1.59560547 5.39462891 -1.59560547 5.39462891 -2.39453125 6.37109375 C-4 8 -4 8 -7 9 C-5.44499019 5.18315774 -2.96404505 2.80804268 0 0 Z " fill="#BEBFBF" transform="translate(470,176)"/>
<path d="M0 0 C1 3 1 3 0.3125 5.5625 C-1.16086774 8.29875437 -2.13522966 8.94958421 -5 10 C-3.66511872 6.40608886 -2.03977277 3.24509304 0 0 Z " fill="#BE9A62" transform="translate(217,447)"/>
<path d="M0 0 C2.79872437 2.52788007 4.45773019 4.20411134 5 8 C2.525 7.01 2.525 7.01 0 6 C0 4.02 0 2.04 0 0 Z " fill="#E6A159" transform="translate(341,442)"/>
<path d="M0 0 C3.80666984 1.44390925 5.26602582 3.34952803 7 7 C6.67 7.66 6.34 8.32 6 9 C0.42857143 3.85714286 0.42857143 3.85714286 0 0 Z " fill="#EAA856" transform="translate(281,437)"/>
<path d="M0 0 C1.65 0.99 3.3 1.98 5 3 C4.01 4.485 4.01 4.485 3 6 C1.0625 5.6875 1.0625 5.6875 -1 5 C-1.33 4.01 -1.66 3.02 -2 2 C-1.34 2 -0.68 2 0 2 C0 1.34 0 0.68 0 0 Z " fill="#EED9BB" transform="translate(366,444)"/>
<path d="M0 0 C0.66 0.33 1.32 0.66 2 1 C-0.97 5.95 -0.97 5.95 -4 11 C-5 8 -5 8 -4.00390625 5.95703125 C-3.52824219 5.24933594 -3.05257812 4.54164063 -2.5625 3.8125 C-2.08941406 3.09707031 -1.61632812 2.38164062 -1.12890625 1.64453125 C-0.75636719 1.10183594 -0.38382813 0.55914062 0 0 Z " fill="#D17357" transform="translate(588,441)"/>
<path d="M0 0 C2.64 0 5.28 0 8 0 C6.515 1.98 6.515 1.98 5 4 C3.0625 3.6875 3.0625 3.6875 1 3 C0.67 2.01 0.34 1.02 0 0 Z " fill="#DB522A" transform="translate(595,409)"/>
<path d="M0 0 C0.66 0.33 1.32 0.66 2 1 C-1.88309282 4.64775386 -4.71201818 5.58525633 -10 6 C-6.71739341 3.81159561 -3.49181927 1.84114107 0 0 Z " fill="#585959" transform="translate(507,377)"/>
<path d="M0 0 C-2 3 -2 3 -4.3828125 3.73046875 C-5.74019531 3.95669922 -5.74019531 3.95669922 -7.125 4.1875 C-8.49011719 4.42533203 -8.49011719 4.42533203 -9.8828125 4.66796875 C-10.58148437 4.77753906 -11.28015625 4.88710937 -12 5 C-10.66272409 2.32544817 -9.26711677 2.01118615 -6.5625 0.8125 C-5.75941406 0.44769531 -4.95632813 0.08289063 -4.12890625 -0.29296875 C-2 -1 -2 -1 0 0 Z " fill="#6E6F6E" transform="translate(525,250)"/>
<path d="M0 0 C0.66 0.33 1.32 0.66 2 1 C-2.625 6.875 -2.625 6.875 -6 8 C-4.55746343 4.63408134 -2.66735273 2.48952921 0 0 Z " fill="#464746" transform="translate(613,176)"/>
<path d="M0 0 C0.66 0 1.32 0 2 0 C2 2.31 2 4.62 2 7 C0.02 7.99 0.02 7.99 -2 9 C-1.34 6.03 -0.68 3.06 0 0 Z " fill="#FAF2E5" transform="translate(348,429)"/>
<path d="M0 0 C-3.465 2.97 -3.465 2.97 -7 6 C-6.75 3.625 -6.75 3.625 -6 1 C-2.69333333 -1.34666667 -2.69333333 -1.34666667 0 0 Z " fill="#DBDBDB" transform="translate(343,206)"/>
<path d="M0 0 C0.33 0.99 0.66 1.98 1 3 C-1.3125 5.5 -1.3125 5.5 -4 8 C-4.99 8 -5.98 8 -7 8 C-4.69 5.36 -2.38 2.72 0 0 Z " fill="#B5B5B5" transform="translate(581,190)"/>
<path d="M0 0 C0.66 0 1.32 0 2 0 C1.25 5.75 1.25 5.75 -1 8 C-1.93065133 5.39417629 -2.14917407 4.35801776 -1.0625 1.75 C-0.711875 1.1725 -0.36125 0.595 0 0 Z " fill="#F8E6D2" transform="translate(409,431)"/>
<path d="M0 0 C0.99 0 1.98 0 3 0 C3 1.65 3 3.3 3 5 C1.68 4.67 0.36 4.34 -1 4 C-0.67 2.68 -0.34 1.36 0 0 Z " fill="#DC6C2C" transform="translate(484,431)"/>
<path d="M0 0 C4 2 4 2 5 4 C4.34 4 3.68 4 3 4 C3 5.98 3 7.96 3 10 C2.67 10 2.34 10 2 10 C1.34 6.7 0.68 3.4 0 0 Z " fill="#F6E1C7" transform="translate(345,425)"/>
<path d="M0 0 C0.6875 1.6875 0.6875 1.6875 1 4 C-0.3125 6.75 -0.3125 6.75 -2 9 C-2.66 9 -3.32 9 -4 9 C-2.94124926 5.59687262 -1.99097846 2.98646769 0 0 Z " fill="#4F241A" transform="translate(603,417)"/>
<path d="M0 0 C0.33 0 0.66 0 1 0 C1 2.64 1 5.28 1 8 C-0.32 7.67 -1.64 7.34 -3 7 C-2.67 5.68 -2.34 4.36 -2 3 C-2 3.66 -2 4.32 -2 5 C-1.34 5 -0.68 5 0 5 C0 3.35 0 1.7 0 0 Z " fill="#A9A9A9" transform="translate(383,338)"/>
<path d="M0 0 C0.33 0.66 0.66 1.32 1 2 C1.66 2.33 2.32 2.66 3 3 C2.01 3.99 1.02 4.98 0 6 C-0.66 5.67 -1.32 5.34 -2 5 C-2 2 -2 2 0 0 Z " fill="#F1D9C7" transform="translate(459,444)"/>
<path d="M0 0 C1.2065625 0.495 1.2065625 0.495 2.4375 1 C4.69681125 2.06059041 4.69681125 2.06059041 6 2 C6 3.65 6 5.3 6 7 C5.34 7 4.68 7 4 7 C0 2.52941176 0 2.52941176 0 0 Z " fill="#EAAB5C" transform="translate(285,435)"/>
<path d="M0 0 C-0.99 0.33 -1.98 0.66 -3 1 C-2.34 1.66 -1.68 2.32 -1 3 C-2.98 3 -4.96 3 -7 3 C-7 2.01 -7 1.02 -7 0 C-3.86650268 -1.04449911 -3.01031744 -0.93423645 0 0 Z " fill="#5F605F" transform="translate(489,326)"/>
</svg>
